<svg width="161" height="60" fill="none" xmlns="http://www.w3.org/2000/svg"><path d="M63.15 40.9h-6.6c-.6 0-1.05-.15-1.4-.5-.35-.35-.5-.8-.5-1.4 0-.6.15-1.05.5-1.4.35-.35.8-.5 1.4-.5h13.9v-7.2H53.9c-2.9 0-5.15.8-6.75 2.35-1.6 1.6-2.35 3.85-2.35 6.75s.8 5.15 2.35 6.7c1.55 1.55 3.85 2.4 6.75 2.4h6.6c.6 0 1.1.15 1.4.5.35.35.5.8.5 1.4 0 .6-.15 1.05-.5 1.4-.35.35-.8.5-1.4.5H44.55v7.2h18.6c2.9 0 5.15-.8 6.75-2.4 1.6-1.6 2.4-3.85 2.4-6.7 0-2.9-.8-5.15-2.4-6.75-1.6-1.55-3.85-2.35-6.75-2.35zM90.25 51.35c-.4-.4-.6-1.05-.6-2.05V37.1h9v-7.2h-9v-7.85H79.9v7.8h-4.05v7.2h4.05V49.8c0 1.7.15 3.15.5 4.35.35 1.2.85 2.15 1.6 2.9.75.75 1.7 1.3 2.9 1.6 1.2.35 2.65.5 4.35.5h9.5v-7.2H92.3c-.95 0-1.65-.2-2.05-.6zM159.4 36.6c-.5-1.55-1.2-2.8-2.2-3.8-1-1-2.25-1.75-3.8-2.2-1.55-.5-3.4-.7-5.5-.7h-15.85v7.2h15.35c1.1 0 1.85.25 2.35.7.45.45.7 1.25.7 2.3v.35H139.4c-3.05 0-5.35.8-6.95 2.4-1.6 1.6-2.4 3.95-2.4 6.95s.8 5.3 2.4 6.95c1.6 1.65 3.95 2.4 6.95 2.4h20.75V42.1c0-2.1-.25-3.95-.75-5.5zm-8.85 15.45h-8.4c-.7 0-1.3-.2-1.7-.6-.4-.4-.6-.95-.6-1.65 0-.75.2-1.3.6-1.7.4-.4.95-.6 1.7-.6h8.4v4.55zM103.7 39.05v20.1h9.7v-18.7c0-2.4.85-3.35 2.4-3.35h10.8v-7.2h-13.75c-5.05 0-9.15 4.1-9.15 9.15zM13.15 24L0 59.15h10.9l9.95-30.4 9.95 30.4h10.9L28.55 24c-2.7-7-12.6-7.25-15.4 0z" fill="#EB6C34"/><path d="M9.35 1.4C8.9.95 8.3.6 7.6.35 6.9.15 6.05 0 5.1 0H0v11.3h5.05c.95 0 1.8-.1 2.5-.35.7-.2 1.3-.55 1.75-1.05.45-.45.8-1.05 1.05-1.75.2-.7.35-1.55.35-2.5s-.1-1.8-.35-2.5c-.25-.7-.55-1.25-1-1.75zM7.6 7.25c-.1.4-.3.75-.55 1-.25.25-.6.45-1 .55-.4.1-.95.15-1.55.15H2.8V2.4h1.7c.6 0 1.15.05 1.55.15.4.1.75.3 1 .55.25.25.45.6.55 1 .1.4.15.95.15 1.55 0 .6 0 1.2-.15 1.6zM19.55 3.9c-.3-.3-.65-.5-1.1-.65-.45-.15-.95-.2-1.55-.2h-4.5V5.1h4.35c.3 0 .55.05.65.2.15.15.2.35.2.65v.1h-3.1c-.85 0-1.5.25-1.95.7-.45.45-.7 1.1-.7 1.95 0 .85.25 1.5.7 1.95.45.45 1.1.7 1.95.7h5.9V6.5c0-.6-.05-1.1-.2-1.55-.15-.45-.4-.8-.65-1.05zm-1.9 5.45h-2.4c-.2 0-.35-.05-.5-.15-.1-.1-.15-.25-.15-.45s.05-.35.15-.5c.1-.1.25-.15.5-.15h2.4v1.25zM25.5 9.15c-.1-.1-.15-.3-.15-.6V5.1h2.55V3.05h-2.55V.85H22.6v2.2h-1.15V5.1h1.15v3.6c0 .5.05.9.15 1.25.1.35.25.6.45.8.2.2.5.35.8.45.35.1.75.15 1.25.15h2.7V9.3H26.1c-.3 0-.5-.05-.6-.15zM36.55 3.9c-.3-.3-.65-.5-1.1-.65-.4-.15-.95-.2-1.55-.2h-4.5V5.1h4.35c.3 0 .55.05.65.2.15.15.2.35.2.65v.1h-3.1c-.85 0-1.5.25-1.95.7-.45.45-.7 1.1-.7 1.95 0 .85.25 1.5.7 1.95.45.45 1.1.7 1.95.7h5.9V6.5c0-.6-.05-1.1-.2-1.55-.15-.45-.35-.8-.65-1.05zm-1.9 5.45h-2.4c-.2 0-.35-.05-.5-.15-.1-.1-.15-.25-.15-.45s.05-.35.15-.5c.1-.1.25-.15.5-.15h2.4v1.25zM44.7 4.5h-2.1c-.35 0-.6-.1-.8-.25-.2-.2-.25-.45-.25-.8 0-.35.1-.6.25-.8.2-.2.45-.25.8-.25h5.05V.05H42c-1.15 0-2 .3-2.55.85-.55.55-.85 1.4-.85 2.55s.3 2 .85 2.55c.55.55 1.4.85 2.55.85h2.15c.7 0 1.05.35 1.05 1.05 0 .7-.35 1.05-1.05 1.05H38.9v2.35h5.8c1.15 0 2-.3 2.55-.85.6-.6.85-1.45.85-2.55 0-1.1-.3-2-.85-2.55-.55-.55-1.45-.85-2.55-.85zM53.15 9.15c-.1-.1-.15-.3-.15-.6V5.1h2.55V3.05H53V.85h-2.75v2.2H49.1V5.1h1.15v3.6c0 .5.05.9.15 1.25.1.35.25.6.45.8.2.2.5.35.8.45.35.1.75.15 1.25.15h2.7V9.3h-1.85c-.3 0-.5-.05-.6-.15zM64.15 3.9c-.3-.3-.65-.5-1.1-.65-.45-.15-.95-.2-1.55-.2H57V5.1h4.35c.3 0 .55.05.65.2.15.15.2.35.2.65v.1h-3.15c-.85 0-1.5.25-1.95.7-.45.45-.7 1.1-.7 1.95 0 .85.25 1.5.7 1.95.45.45 1.1.7 1.95.7H65V6.5c0-.6-.05-1.1-.2-1.55-.15-.45-.35-.8-.65-1.05zM62.3 9.35h-2.4c-.2 0-.35-.05-.5-.15-.1-.1-.15-.25-.15-.45s.05-.35.15-.5c.1-.1.25-.15.5-.15h2.4v1.25zM72 7.15l3.05-4.1H72.1l-1.7 2.4-1.65-2.4H65.7l3.05 4.1-3.25 4.2h3.1l1.75-2.5 1.7 2.5h3.2L72 7.15z" fill="#6B7682"/></svg>