<?xml version="1.0" encoding="UTF-8"?><svg id="Layer_2" xmlns="http://www.w3.org/2000/svg" viewBox="0 0 871 132.35"><defs><style>.cls-1{fill:#fff;}</style></defs><g id="Layer_1-2"><g><path class="cls-1" d="M66.18,60.71c-3.29-3.29-7.45-5.74-12.47-7.32-5.02-1.59-10.96-2.38-17.82-2.38H0v80H35.88c6.86,0,12.8-.79,17.82-2.38,5.02-1.59,9.18-4.03,12.47-7.32,3.29-3.29,5.74-7.45,7.32-12.47,1.59-5.02,2.38-10.96,2.38-17.82s-.79-12.8-2.38-17.82c-1.59-5.02-4.03-9.18-7.32-12.47Zm-11.73,41.92c-.79,3-2.1,5.42-3.94,7.25s-4.25,3.15-7.25,3.94c-3,.79-6.71,1.18-11.13,1.18h-12.13v-47h12.13c4.42,0,8.13,.39,11.13,1.18,3,.79,5.42,2.1,7.25,3.94s3.15,4.25,3.94,7.25c.79,3,1.18,6.71,1.18,11.13s-.39,8.13-1.18,11.13Z"/><path class="cls-1" d="M141.91,78.27c-2.93-2.46-6.48-4.27-10.66-5.42-4.18-1.15-8.87-1.73-14.06-1.73s-9.94,.58-14.12,1.73c-4.18,1.15-7.73,2.96-10.66,5.42s-5.18,5.62-6.74,9.49c-1.56,3.87-2.34,8.52-2.34,13.95s.78,10.14,2.34,14c1.56,3.87,3.81,7.03,6.74,9.49s6.48,4.27,10.66,5.42c4.18,1.15,8.89,1.73,14.12,1.73s9.88-.58,14.06-1.73c4.18-1.15,7.73-2.96,10.66-5.42s5.19-5.62,6.77-9.49,2.37-8.53,2.37-14-.79-10.08-2.37-13.95-3.84-7.03-6.77-9.49Zm-14,35.39c-2.31,2.62-5.88,3.93-10.72,3.93s-8.42-1.31-10.72-3.93c-2.31-2.62-3.46-6.6-3.46-11.95s1.15-9.28,3.46-11.89c2.3-2.62,5.88-3.93,10.72-3.93s8.42,1.31,10.72,3.93c2.3,2.62,3.46,6.58,3.46,11.89s-1.15,9.34-3.46,11.95Z"/><path class="cls-1" d="M181.58,112.9c-2.31-2.3-3.46-6.04-3.46-11.19s1.15-8.89,3.46-11.19c2.3-2.3,6.04-3.46,11.19-3.52h17.23v-15h-22.5c-4.73,.47-8.92,1.11-12.57,2.37-3.65,1.27-6.72,3.14-9.2,5.62-2.48,2.48-4.36,5.54-5.62,9.17-1.27,3.63-1.9,7.81-1.9,12.54,0,9.53,2.5,16.8,7.5,21.8,5,5,12.27,7.5,21.8,7.49h23.5v-15h-18.23c-5.16,.36-8.89-.8-11.19-3.1Z"/><path class="cls-1" d="M261,116h-11.56c-3.34,0-5.74-.76-7.22-2.27-1.48-1.52-2.22-3.99-2.22-7.41v-34.31h-20v34.31c0,4.29,.48,7.99,1.43,11.1,.95,3.11,2.42,5.67,4.41,7.68,1.98,2.01,4.51,3.49,7.59,4.46,3.07,.97,6.73,1.45,10.97,1.45h35.6v-59h-19v44Z"/><path class="cls-1" d="M377.17,77.91c-1.98-2.01-4.5-3.49-7.55-4.46-3.05-.96-6.69-1.45-10.93-1.45h-64.7v59h19v-44h16v44h19v-44h6.89c3.24,0,5.56,.7,6.98,2.1,1.42,1.4,2.13,3.67,2.13,6.82v35.08h19v-34.37c0-4.29-.48-7.98-1.43-11.07-.95-3.09-2.42-5.64-4.4-7.65Z"/><path class="cls-1" d="M516.11,77.91c-2-2.01-4.55-3.49-7.65-4.46-3.1-.96-6.79-1.45-11.07-1.45h-36.39v59h19v-44h12.33c3.42,0,5.89,.76,7.4,2.27,1.51,1.52,2.27,3.97,2.27,7.35v34.37h20v-34.37c0-4.29-.48-7.98-1.44-11.07-.96-3.09-2.44-5.64-4.45-7.65Z"/><path class="cls-1" d="M558.16,115.86c-.77-.76-1.16-2.08-1.16-3.98v-24.89h18v-14h-18v-16h-20v16h-8v14h8v25.38c0,3.39,.33,6.26,.98,8.64,.65,2.37,1.71,4.3,3.17,5.78,1.46,1.48,3.36,2.55,5.7,3.21,2.34,.66,5.18,.99,8.52,.99h19.64v-14h-12.79c-1.93,0-3.28-.38-4.05-1.14Z"/><path class="cls-1" d="M635.19,78.81c-1.97-1.97-4.49-3.43-7.55-4.38-3.06-.95-6.7-1.42-10.91-1.42h-32.73v14h30.92c2.2,0,3.77,.44,4.69,1.33,.92,.88,1.39,2.38,1.39,4.49v1.19h-21.83c-5.98,0-10.57,1.59-13.75,4.78-3.18,3.18-4.78,7.77-4.78,13.75s1.59,10.51,4.78,13.69c3.18,3.18,7.77,4.78,13.75,4.78h41.83v-33.79c0-4.22-.47-7.85-1.42-10.89-.95-3.04-2.41-5.54-4.38-7.52Zm-13.19,38.19h-16.66c-1.43,0-2.55-.39-3.34-1.16-.79-.77-1.19-1.88-1.19-3.31s.4-2.59,1.19-3.37c.79-.77,1.91-1.16,3.34-1.16h16.66v9Z"/><path class="cls-1" d="M677.16,115.86c-.77-.76-1.16-2.08-1.16-3.98v-24.89h18v-14h-18v-16h-20v16h-8v14h8v25.38c0,3.39,.33,6.26,.98,8.64,.65,2.37,1.71,4.3,3.17,5.78,1.46,1.48,3.36,2.55,5.7,3.21,2.34,.66,5.18,.99,8.52,.99h19.64v-14h-12.79c-1.93,0-3.28-.38-4.05-1.14Z"/><rect class="cls-1" x="703" y="72" width="19" height="59"/><rect class="cls-1" x="703" y="51" width="19" height="15"/><path class="cls-1" d="M790.49,78.27c-2.93-2.46-6.48-4.27-10.66-5.42-4.18-1.15-8.87-1.73-14.06-1.73s-9.94,.58-14.12,1.73c-4.18,1.15-7.73,2.96-10.66,5.42s-5.18,5.62-6.74,9.49c-1.56,3.87-2.34,8.52-2.34,13.95s.78,10.14,2.34,14c1.56,3.87,3.81,7.03,6.74,9.49s6.48,4.27,10.66,5.42c4.18,1.15,8.89,1.73,14.12,1.73s9.88-.58,14.06-1.73c4.18-1.15,7.73-2.96,10.66-5.42s5.19-5.62,6.77-9.49,2.37-8.53,2.37-14-.79-10.08-2.37-13.95-3.84-7.03-6.77-9.49Zm-14,35.39c-2.31,2.62-5.88,3.93-10.72,3.93s-8.42-1.31-10.72-3.93c-2.31-2.62-3.46-6.6-3.46-11.95s1.15-9.28,3.46-11.89c2.3-2.62,5.88-3.93,10.72-3.93s8.42,1.31,10.72,3.93c2.3,2.62,3.46,6.58,3.46,11.89s-1.15,9.34-3.46,11.95Z"/><path class="cls-1" d="M869.56,85.55c-.96-3.09-2.44-5.64-4.45-7.65s-4.55-3.49-7.65-4.46c-3.1-.96-6.79-1.45-11.07-1.45h-36.39v59h19v-44h12.33c3.42,0,5.89,.76,7.4,2.27,1.51,1.52,2.27,3.97,2.27,7.35v34.37h20v-34.37c0-4.29-.48-7.98-1.44-11.07Z"/><path class="cls-1" d="M21.48,31.05c2.01-.64,3.67-1.61,4.99-2.93,1.32-1.32,2.29-2.98,2.93-4.99,.64-2.01,.95-4.38,.95-7.13s-.32-5.12-.95-7.13c-.64-2.01-1.61-3.67-2.93-4.99-1.32-1.32-2.98-2.29-4.99-2.93-2.01-.64-4.38-.95-7.13-.95H0V32H14.35c2.74,0,5.12-.32,7.13-.95Zm-13.48-6.05V7h4.65c1.69,0,3.11,.15,4.26,.45,1.15,.3,2.07,.8,2.78,1.51,.7,.7,1.21,1.63,1.51,2.78,.3,1.15,.45,2.57,.45,4.26s-.15,3.11-.45,4.26c-.3,1.15-.8,2.07-1.51,2.78-.7,.7-1.63,1.21-2.78,1.51-1.15,.3-2.57,.45-4.26,.45h-4.65Z"/><path class="cls-1" d="M40.15,17c-2.43,0-4.28,.65-5.58,1.94-1.29,1.29-1.94,3.15-1.94,5.58s.65,4.26,1.94,5.55c1.29,1.29,3.15,1.94,5.58,1.94h16.85v-13.98c0-1.75-.2-3.25-.59-4.5-.39-1.26-1-2.29-1.81-3.11-.82-.82-1.86-1.42-3.12-1.81-1.27-.39-2.77-.59-4.52-.59h-12.96v6h12.54c.89,0,1.53,.19,1.9,.57,.37,.38,.56,1.02,.56,1.92v.51h-8.85Zm8.85,5v4h-6.39c-.57,.24-1.02,.08-1.34-.23-.32-.31-.48-.75-.48-1.33s.16-1.04,.48-1.35c.32-.31,.76-.47,1.34-1.09h6.39Z"/><path class="cls-1" d="M71.45,25.51c-.3-.32-.45-.89-.45-1.7V14h7v-5h-7V3h-8v6h-3v5h3v10.38c0,1.38,.12,2.56,.37,3.53,.24,.97,.64,1.76,1.19,2.36,.55,.61,1.26,1.04,2.14,1.31,.88,.27,1.94,.41,3.19,.41h8.12v-6h-4.97c-.75,0-1.28-.16-1.58-.49Z"/><path class="cls-1" d="M104,32v-14.3c0-1.69-.19-3.15-.57-4.36-.38-1.22-.97-2.22-1.76-3.01s-1.8-1.38-3.02-1.76c-1.23-.38-2.68-.57-4.37-.57h-12.27v6h12.54c.89,0,1.53,.19,1.9,.57,.37,.38,.56,1.02,.56,1.92v.51h-7.95c-2.18,0-3.85,.65-5.01,1.94-1.16,1.29-1.74,3.15-1.74,5.58s.58,4.26,1.74,5.55c1.16,1.29,2.83,1.94,5.01,1.94h14.95Zm-15.44-8.91c.32-.31,.76-.47,1.34-1.09h7.11v4h-7.11c-.57,.24-1.02,.08-1.34-.23-.32-.31-.48-.75-.48-1.33s.16-1.04,.48-1.35Z"/><path class="cls-1" d="M118.18,19h5.45c1.64,0,2.99,1.32,3,2.95,.02,2.03-.98,3.05-3,3.05h-14.63v7h16.05c3.14,0,5.51-.8,7.13-2.4,1.61-1.6,2.42-3.97,2.42-7.11s-.81-5.51-2.42-7.1c-1.61-1.59-3.99-2.39-7.13-2.39h-5.51c-.98,0-1.73-.26-2.24-.77-.51-.51-.77-1.26-.77-2.23s.26-1.72,.77-2.23c.51-.51,1.26-.77,2.24-.77h14.47V0h-15.82c-3.19,0-5.56,.78-7.11,2.34-1.55,1.56-2.33,3.94-2.33,7.12s.78,5.57,2.33,7.16c1.55,1.59,3.92,2.38,7.11,2.38Z"/><path class="cls-1" d="M149.45,25.51c-.3-.32-.45-.89-.45-1.7V14h7v-5h-7V3h-8v6h-3v5h3v10.38c0,1.38,.12,2.56,.37,3.53,.24,.97,.64,1.76,1.19,2.36,.55,.61,1.26,1.04,2.14,1.31,.88,.27,1.94,.41,3.19,.41h8.12v-6h-4.97c-.75,0-1.28-.16-1.58-.49Z"/><path class="cls-1" d="M165.15,17c-2.43,0-4.28,.65-5.58,1.94-1.29,1.29-1.94,3.15-1.94,5.58s.65,4.26,1.94,5.55c1.29,1.29,3.15,1.94,5.58,1.94h16.85v-13.98c0-1.75-.2-3.25-.59-4.5-.39-1.26-1-2.29-1.81-3.11-.82-.82-1.86-1.42-3.12-1.81-1.27-.39-2.77-.59-4.52-.59h-12.96v6h12.54c.89,0,1.53,.19,1.9,.57,.37,.38,.56,1.02,.56,1.92v.51h-8.85Zm8.85,5v4h-6.32c-.57,.24-1.02,.08-1.34-.23-.32-.31-.48-.75-.48-1.33s.16-1.04,.48-1.35c.32-.31,.76-.47,1.34-1.09h6.32Z"/><polygon class="cls-1" points="210.42 9 202.23 9 197.55 15.68 192.9 9 184.41 9 192.9 20.4 183.95 32 192.51 32 197.32 25.12 202.14 32 210.91 32 201.95 20.4 210.42 9"/><path class="cls-1" d="M446.54,84.63c-.92-1.5-2-2.86-3.22-4.08-2.45-2.45-5.48-4.31-9.1-5.56-3.6-1.25-7.74-1.88-12.4-1.88-4.66,0-8.8,.63-12.4,1.88-3.61,1.26-6.65,3.11-9.1,5.56-1.22,1.22-2.29,2.58-3.22,4.08-.93,1.52-1.72,3.18-2.35,4.99-1.26,3.59-1.88,7.73-1.88,12.4,0,9.43,2.47,16.61,7.42,21.56,4.95,4.95,12.13,7.42,21.56,7.42h25.15v-14h-23.05c-2.2,0-4.06-.2-5.6-.6-1.54-.4-2.79-.96-3.77-1.68-.98-.72-1.72-1.58-2.22-2.57-.49-.97-.79-2.02-.92-3.15h38.8c.34-2.17,.52-4.49,.52-6.98,0-4.67-.63-8.81-1.88-12.4-.63-1.81-1.41-3.47-2.35-4.99Zm-34.16,10.37c1.64-10.1,17.09-9.89,18.69,0h-18.69Z"/></g></g></svg>