<svg width="2000" height="400" viewBox="0 0 2000 400" fill="none" xmlns="http://www.w3.org/2000/svg">
<g clip-path="url(#clip0_252_1306)">
<rect width="2000" height="400" fill="url(#paint0_linear_252_1306)"/>
<path opacity="0.4" d="M1934.88 -5.02984L1934.35 -5.79661L1933.9 -5.02984L1933.54 -4.24742L1935.33 -4.24742L1934.88 -5.02984V-5.02984ZM1957.36 -4.21612L1955.4 -4.21612L1956.37 -5.9218L1957.36 -4.21612ZM1979.36 -4.18482L1977.31 -4.18482L1978.33 -5.9531L1979.35 -4.18482L1979.36 -4.18482ZM2001.39 -4.15352L1999.26 -4.15352L2000.31 -5.98439L2001.37 -4.13787L2001.39 -4.15352ZM2023.36 -4.15352L2021.23 -4.15352L2022.28 -5.98439L2023.34 -4.13787L2023.36 -4.15352ZM2045.34 -4.15352L2043.21 -4.15352L2044.26 -5.98439L2045.32 -4.13787L2045.34 -4.15352ZM2067.31 -4.15352L2065.18 -4.15352L2066.23 -5.98438L2067.3 -4.13787L2067.31 -4.15352ZM2089.29 -4.15352L2087.16 -4.15352L2088.22 -6.00003L2089.29 -4.15352ZM2111.21 -4.18481L2109.17 -4.18481L2110.18 -5.95308L2111.2 -4.18481L2111.21 -4.18481ZM2133.11 -4.26305L2131.31 -4.26305L2131.67 -5.04547L2132.13 -5.81225L2132.66 -5.04547L2133.11 -4.26305V-4.26305ZM2155.07 -4.26305L2153.29 -4.26305L2153.65 -5.04547L2154.1 -5.82789L2154.63 -5.04547L2155.07 -4.2787L2155.07 -4.26305ZM1814.51 17.7543L1812.55 17.7543L1813.54 16.0486L1814.51 17.7543ZM1836.58 17.8325L1834.45 17.8325L1835.51 15.986L1836.58 17.8325ZM1858.68 17.9421L1856.29 17.9421L1857.47 15.8765L1858.66 17.9421L1858.68 17.9421ZM1880.83 18.0985L1878.09 18.0985L1879.45 15.7356L1880.81 18.0985L1880.83 18.0985ZM1902.93 18.2081L1899.92 18.2081L1901.42 15.6104L1902.93 18.2081V18.2081ZM1925.07 18.3646L1921.74 18.3646L1923.42 15.4696L1925.09 18.3646L1925.07 18.3646ZM1947.17 18.4741L1943.58 18.4741L1945.38 15.3601L1947.17 18.4741V18.4741ZM1969.23 18.5524L1965.46 18.5524L1967.35 15.2818L1969.24 18.5524L1969.23 18.5524ZM1991.25 18.5837L1987.39 18.5837L1989.31 15.2505L1991.23 18.5837L1991.25 18.5837ZM2013.3 18.6619L2009.27 18.6619L2011.29 15.1723L2013.3 18.6619V18.6619ZM2035.28 18.6619L2031.24 18.6619L2033.26 15.1723L2035.28 18.6619V18.6619ZM2057.25 18.6619L2053.22 18.6619L2055.24 15.1723L2057.25 18.6619V18.6619ZM2079.18 18.6306L2075.24 18.6306L2077.21 15.2192L2079.18 18.6306V18.6306ZM2101.11 18.5993L2097.25 18.5993L2099.17 15.2662L2101.1 18.5993L2101.11 18.5993ZM2122.99 18.5211L2119.3 18.5211L2121.15 15.3288L2122.99 18.5211V18.5211ZM2144.84 18.4115L2141.42 18.4115L2143.14 15.4383L2144.86 18.4115L2144.84 18.4115ZM2166.65 18.2551L2163.56 18.2551L2165.1 15.5792L2166.63 18.2551L2166.65 18.2551ZM2188.4 18.0673L2185.74 18.0673L2187.07 15.767L2188.4 18.0673ZM2210.21 17.9108L2207.91 17.9108L2209.06 15.9078L2210.22 17.9108L2210.21 17.9108ZM2232.06 17.8013L2230.01 17.8013L2231.02 16.033L2232.04 17.8013L2232.06 17.8013ZM1737.62 39.7873L1735.57 39.7873L1736.6 38.019L1737.62 39.7873ZM1759.77 39.9438L1757.37 39.9438L1758.56 37.8782L1759.75 39.9438L1759.77 39.9438ZM1781.96 40.1315L1779.15 40.1315L1780.55 37.6904L1781.96 40.1315V40.1315ZM1804.15 40.3193L1800.9 40.3193L1802.53 37.5026L1804.15 40.3193V40.3193ZM1826.4 40.5384L1822.63 40.5384L1824.52 37.2679L1826.4 40.5384V40.5384ZM1848.59 40.7262L1844.38 40.7262L1846.48 37.0801L1848.57 40.7262L1848.59 40.7262ZM1870.74 40.8827L1866.19 40.8827L1868.45 36.9393L1870.72 40.8827L1870.74 40.8827ZM1892.88 41.0392L1887.99 41.0392L1890.43 36.7984L1892.87 41.0392L1892.88 41.0392ZM1914.99 41.1487L1909.84 41.1487L1912.42 36.6889L1915 41.1487L1914.99 41.1487ZM1937.09 41.2582L1931.67 41.2582L1934.38 36.5794L1937.09 41.2582V41.2582ZM1959.19 41.3678L1953.52 41.3678L1956.36 36.4542L1959.19 41.3678ZM1981.24 41.446L1975.41 41.446L1978.33 36.3916L1981.26 41.446L1981.24 41.446ZM2003.29 41.5243L1997.29 41.5243L2000.29 36.3133L2003.29 41.5243V41.5243ZM2025.27 41.5243L2019.26 41.5243L2022.27 36.3133L2025.27 41.5243V41.5243ZM2047.29 41.5556L2041.19 41.5556L2044.24 36.2664L2047.29 41.5556V41.5556ZM2069.22 41.5243L2063.21 41.5243L2066.22 36.3133L2069.22 41.5243V41.5243ZM2091.15 41.493L2085.22 41.493L2088.18 36.3603L2091.13 41.493L2091.15 41.493ZM2113.04 41.4147L2107.29 41.4147L2110.17 36.4385L2113.04 41.4147ZM2134.89 41.3052L2129.41 41.3052L2132.16 36.5481L2134.91 41.3052L2134.89 41.3052ZM2156.75 41.1957L2151.51 41.1957L2154.12 36.6576L2156.73 41.1957L2156.75 41.1957ZM2178.55 41.0392L2173.65 41.0392L2176.09 36.7985L2178.53 41.0392L2178.55 41.0392ZM2200.3 40.8514L2195.85 40.8514L2198.08 36.9862L2200.32 40.8514L2200.3 40.8514ZM2222.03 40.6323L2218.09 40.6323L2220.06 37.221L2222.03 40.6323V40.6323ZM2243.74 40.4132L2240.31 40.4132L2242.03 37.44L2243.74 40.4132ZM2265.42 40.1472L2262.6 40.1472L2264.01 37.7061L2265.42 40.1472V40.1472ZM2287.1 39.8812L2284.87 39.8812L2285.99 37.9564L2287.1 39.8812V39.8812ZM2308.9 39.7247L2307.1 39.7247L2307.46 38.9423L2307.91 38.1755L2308.45 38.9423L2308.9 39.7247V39.7247ZM1660.68 61.742L1658.73 61.742L1659.71 60.0363L1660.68 61.742ZM1682.83 61.8985L1680.53 61.8985L1681.69 59.8955L1682.84 61.8985L1682.83 61.8985ZM1705.1 62.1645L1702.19 62.1645L1703.65 59.6451L1705.1 62.1645ZM1727.34 62.3836L1723.92 62.3836L1725.64 59.4104L1727.36 62.3836L1727.34 62.3836ZM1749.62 62.6496L1745.58 62.6496L1747.6 59.16L1749.62 62.6496V62.6496ZM1771.86 62.8687L1767.31 62.8687L1769.57 58.9253L1771.84 62.8687L1771.86 62.8687ZM1794.1 63.0878L1789.03 63.0878L1791.56 58.7062L1794.1 63.0878ZM1816.29 63.2756L1810.8 63.2756L1813.55 58.5184L1816.31 63.2756L1816.29 63.2756ZM1838.49 63.4634L1832.56 63.4634L1835.51 58.3307L1838.47 63.4634L1838.49 63.4634ZM1860.68 63.6511L1854.33 63.6511L1857.51 58.1429L1860.68 63.6511V63.6511ZM1882.83 63.8076L1876.13 63.8076L1879.48 58.0021L1882.83 63.8076ZM1904.98 63.9641L1897.94 63.9641L1901.46 57.8612L1904.98 63.9641ZM1927.08 64.0737L1919.77 64.0737L1923.43 57.7517L1927.08 64.0737V64.0737ZM1949.18 64.1832L1941.61 64.1832L1945.39 57.6265L1949.18 64.1832V64.1832ZM1971.23 64.2614L1963.49 64.2614L1967.35 57.5639L1971.21 64.2614L1971.23 64.2614ZM1993.28 64.3397L1985.37 64.3397L1989.33 57.4857L1993.28 64.3397V64.3397ZM2015.31 64.371L2007.31 64.371L2011.32 57.4387L2015.32 64.371L2015.31 64.371ZM2037.28 64.371L2029.29 64.371L2033.29 57.4387L2037.28 64.371ZM2059.26 64.371L2051.26 64.371L2055.27 57.4387L2059.27 64.371L2059.26 64.371ZM2081.18 64.3397L2073.27 64.3397L2077.23 57.4857L2081.18 64.3397ZM2103.11 64.3084L2095.29 64.3084L2099.2 57.5326L2103.11 64.3084ZM2124.99 64.2302L2117.35 64.2302L2121.18 57.6109L2124.99 64.2302V64.2302ZM2146.84 64.1206L2139.45 64.1206L2143.14 57.7204L2146.83 64.1206L2146.84 64.1206ZM2168.65 63.9641L2161.61 63.9641L2165.13 57.8612L2168.65 63.9641ZM2190.45 63.8076L2183.76 63.8076L2187.1 58.0021L2190.45 63.8076V63.8076ZM2212.21 63.6199L2205.94 63.6199L2209.06 58.1899L2212.19 63.6199L2212.21 63.6199ZM2233.92 63.4008L2228.16 63.4008L2231.04 58.4246L2233.92 63.4008ZM2255.6 63.1348L2250.45 63.1348L2253.03 58.675L2255.61 63.1348L2255.6 63.1348ZM2277.23 62.8375L2272.77 62.8375L2275.01 58.9723L2277.24 62.8375L2277.23 62.8375ZM2298.81 62.5088L2295.12 62.5088L2296.96 59.3166L2298.81 62.5088V62.5088ZM2320.35 62.1333L2317.53 62.1333L2318.94 59.6921L2320.35 62.1333V62.1333ZM2341.98 61.836L2339.85 61.836L2340.92 59.9894L2341.98 61.836ZM1583.71 83.7124L1581.93 83.7124L1582.27 82.9456L1582.71 82.1632L1583.24 82.9456L1583.7 83.7281L1583.71 83.7124ZM1605.86 83.8689L1603.64 83.8689L1604.75 81.9441L1605.86 83.8689V83.8689ZM1628.1 84.088L1625.36 84.088L1626.73 81.7251L1628.09 84.088L1628.1 84.088ZM1650.37 84.354L1647.03 84.354L1648.7 81.459L1650.37 84.354ZM1672.65 84.62L1668.71 84.62L1670.68 81.2087L1672.65 84.62ZM1694.97 84.9173L1690.34 84.9173L1692.65 80.9113L1694.97 84.9173V84.9173ZM1717.21 85.1364L1712.06 85.1364L1714.64 80.6766L1717.22 85.1364L1717.21 85.1364ZM1739.48 85.4025L1733.72 85.4025L1736.6 80.4263L1739.48 85.4025V85.4025ZM1761.71 85.6215L1755.43 85.6215L1758.56 80.1915L1761.69 85.6215L1761.71 85.6215ZM1783.95 85.8406L1777.16 85.8406L1780.55 79.9568L1783.95 85.8406V85.8406ZM1806.19 86.0597L1798.88 86.0597L1802.53 79.7377L1806.17 86.0597L1806.19 86.0597ZM1828.38 86.2475L1820.66 86.2475L1824.52 79.5499L1828.38 86.2475V86.2475ZM1850.58 86.4353L1842.41 86.4353L1846.49 79.3622L1850.58 86.4353V86.4353ZM1872.72 86.5917L1864.22 86.5917L1868.47 79.2213L1872.72 86.5917V86.5917ZM1894.87 86.7482L1886.02 86.7482L1890.45 79.0805L1894.87 86.7482V86.7482ZM1916.97 86.8578L1907.85 86.8578L1912.4 78.9553L1916.96 86.8578L1916.97 86.8578ZM1939.07 86.9673L1929.7 86.9673L1934.4 78.8458L1939.09 86.9673L1939.07 86.9673ZM1961.17 87.0769L1951.54 87.0769L1956.36 78.7362L1961.17 87.0769V87.0769ZM1983.23 87.1551L1973.42 87.1551L1978.32 78.658L1983.21 87.1551L1983.23 87.1551ZM2005.25 87.1864L1995.36 87.1864L2000.31 78.6267L2005.25 87.1864V87.1864ZM2027.27 87.2177L2017.29 87.2177L2022.28 78.5798L2027.27 87.2177ZM2049.25 87.2177L2039.27 87.2177L2044.26 78.5798L2049.25 87.2177ZM2071.22 87.2177L2061.24 87.2177L2066.23 78.5798L2071.22 87.2177ZM2093.1 87.1395L2083.3 87.1395L2088.19 78.6424L2093.09 87.1395L2093.1 87.1395ZM2114.98 87.0612L2105.35 87.0612L2110.17 78.7206L2114.98 87.0612V87.0612ZM2136.87 86.983L2127.4 86.983L2132.13 78.7832L2136.85 86.983L2136.87 86.983ZM2158.72 86.8734L2149.52 86.8734L2154.12 78.9084L2158.72 86.8734V86.8734ZM2180.52 86.717L2171.67 86.717L2176.09 79.0492L2180.52 86.717V86.717ZM2202.28 86.5292L2193.85 86.5292L2198.05 79.237L2202.26 86.5292L2202.28 86.5292ZM2224.03 86.3414L2216.04 86.3414L2220.04 79.4091L2224.05 86.3414L2224.03 86.3414ZM2245.71 86.0754L2238.33 86.0754L2242.02 79.6752L2245.71 86.0754V86.0754ZM2267.39 85.8094L2260.6 85.8094L2263.99 79.9255L2267.39 85.8094ZM2289.02 85.512L2282.92 85.512L2285.97 80.2229L2289.02 85.512ZM2310.6 85.1834L2305.29 85.1834L2307.94 80.5671L2310.6 85.1834ZM2332.14 84.8079L2327.68 84.8079L2329.92 80.9427L2332.16 84.8079L2332.14 84.8079ZM2353.6 84.3541L2350.17 84.3541L2351.9 81.3809L2353.62 84.3541L2353.6 84.3541ZM2375.11 83.9472L2372.64 83.9472L2373.87 81.8034L2375.11 83.9472ZM2396.78 83.6812L2394.99 83.6812L2395.35 82.8988L2395.8 82.132L2396.33 82.8988L2396.78 83.6812ZM1528.81 105.698L1526.86 105.698L1527.84 103.993L1528.81 105.698ZM1551.01 105.886L1548.62 105.886L1549.8 103.821L1550.99 105.886L1551.01 105.886ZM1573.28 106.152L1570.28 106.152L1571.78 103.555L1573.28 106.152V106.152ZM1595.6 106.45L1591.91 106.45L1593.75 103.257L1595.6 106.45V106.45ZM1617.92 106.747L1613.54 106.747L1615.73 102.96L1617.92 106.747ZM1640.24 107.044L1635.17 107.044L1637.71 102.663L1640.24 107.044ZM1662.51 107.31L1656.85 107.31L1659.68 102.397L1662.51 107.31ZM1684.78 107.576L1678.51 107.576L1681.64 102.146L1684.77 107.576L1684.78 107.576ZM1707.06 107.842L1700.19 107.842L1703.63 101.88L1707.07 107.842L1707.06 107.842ZM1729.33 108.108L1721.85 108.108L1725.59 101.63L1729.33 108.108ZM1751.57 108.327L1743.58 108.327L1747.58 101.395L1751.57 108.327ZM1773.81 108.547L1765.3 108.547L1769.56 101.176L1773.81 108.547V108.547ZM1796.05 108.766L1787.03 108.766L1791.55 100.941L1796.07 108.766L1796.05 108.766ZM1818.25 108.953L1808.78 108.953L1813.51 100.754L1818.23 108.953L1818.25 108.953ZM1840.44 109.141L1830.56 109.141L1835.5 100.581L1840.44 109.141V109.141ZM1862.64 109.329L1852.31 109.329L1857.47 100.394L1862.64 109.329ZM1884.78 109.485L1874.12 109.485L1879.45 100.253L1884.78 109.485V109.485ZM1906.88 109.595L1895.97 109.595L1901.42 100.128L1906.88 109.595ZM1929.03 109.751L1917.77 109.751L1923.4 99.9868L1929.03 109.751V109.751ZM1951.08 109.83L1939.65 109.83L1945.38 99.9242L1951.1 109.83L1951.08 109.83ZM1973.18 109.939L1961.49 109.939L1967.34 99.799L1973.18 109.939ZM1995.21 109.971L1983.43 109.971L1989.33 99.7677L1995.22 109.971L1995.21 109.971ZM2017.23 110.002L2005.36 110.002L2011.3 99.7208L2017.23 110.002V110.002ZM2039.25 110.033L2027.3 110.033L2033.28 99.6739L2039.25 110.033ZM2061.18 110.002L2049.31 110.002L2055.25 99.7208L2061.18 110.002V110.002ZM2083.16 110.002L2071.28 110.002L2077.23 99.7208L2083.16 110.002V110.002ZM2105.04 109.924L2093.34 109.924L2099.19 99.7834L2105.04 109.924V109.924ZM2126.92 109.845L2115.39 109.845L2121.16 99.8616L2126.92 109.845ZM2148.77 109.736L2137.51 109.736L2143.14 99.9712L2148.77 109.736ZM2170.62 109.626L2159.61 109.626L2165.11 100.096L2170.62 109.626V109.626ZM2192.37 109.439L2181.8 109.439L2187.09 100.269L2192.37 109.439ZM2214.13 109.251L2203.98 109.251L2209.05 100.456L2214.12 109.251L2214.13 109.251ZM2235.84 109.032L2226.21 109.032L2231.02 100.691L2235.84 109.032V109.032ZM2257.55 108.813L2248.43 108.813L2252.98 100.91L2257.53 108.813L2257.55 108.813ZM2279.18 108.515L2270.75 108.515L2274.96 101.223L2279.17 108.515L2279.18 108.515ZM2300.81 108.218L2293.07 108.218L2296.93 101.52L2300.8 108.218L2300.81 108.218ZM2322.35 107.842L2315.48 107.842L2318.92 101.88L2322.37 107.842L2322.35 107.842ZM2343.86 107.436L2337.93 107.436L2340.88 102.303L2343.84 107.436L2343.86 107.436ZM2365.36 107.029L2360.39 107.029L2362.88 102.71L2365.36 107.029V107.029ZM2386.77 106.544L2382.91 106.544L2384.83 103.21L2386.76 106.544L2386.77 106.544ZM2408.19 106.058L2405.45 106.058L2406.83 103.696L2408.19 106.058ZM2429.77 105.73L2427.8 105.73L2428.79 104.04L2429.77 105.73ZM1473.95 127.794L1471.82 127.794L1472.88 125.948L1473.95 127.794V127.794ZM1496.14 127.982L1493.58 127.982L1494.86 125.76L1496.14 127.982V127.982ZM1518.51 128.31L1515.16 128.31L1516.83 125.415L1518.51 128.31V128.31ZM1540.78 128.576L1536.84 128.576L1538.81 125.165L1540.78 128.576ZM1563.15 128.905L1558.42 128.905L1560.78 124.821L1563.15 128.905ZM1585.47 129.202L1580.05 129.202L1582.76 124.524L1585.47 129.202ZM1607.78 129.5L1601.68 129.5L1604.73 124.211L1607.78 129.5V129.5ZM1630.06 129.766L1623.36 129.766L1626.71 123.96L1630.06 129.766ZM1652.38 130.063L1644.99 130.063L1648.69 123.663L1652.38 130.063ZM1674.65 130.329L1666.66 130.329L1670.66 123.397L1674.65 130.329ZM1696.92 130.595L1688.32 130.595L1692.62 123.146L1696.92 130.595ZM1719.16 130.814L1710.04 130.814L1714.6 122.912L1719.15 130.814L1719.16 130.814ZM1741.4 131.033L1731.77 131.033L1736.59 122.693L1741.4 131.033V131.033ZM1763.68 131.299L1753.45 131.299L1758.56 122.427L1763.68 131.299V131.299ZM1785.92 131.518L1775.17 131.518L1780.55 122.208L1785.93 131.518L1785.92 131.518ZM1808.11 131.706L1796.93 131.706L1802.53 122.02L1808.11 131.706ZM1830.31 131.894L1818.7 131.894L1824.5 121.832L1830.31 131.894V131.894ZM1852.5 132.082L1840.46 132.082L1846.48 121.644L1852.5 132.082V132.082ZM1868.45 121.503L1874.65 132.238L1862.26 132.238L1868.45 121.503V121.503ZM1890.43 121.347L1896.8 132.379L1884.06 132.379L1890.43 121.347ZM1912.4 121.237L1918.9 132.489L1905.9 132.489L1912.39 121.237L1912.4 121.237ZM1934.38 121.128L1941.01 132.614L1927.76 132.614L1934.4 121.128L1934.38 121.128ZM1956.36 121.05L1963.07 132.676L1949.65 132.676L1956.36 121.05V121.05ZM1978.33 120.971L1985.13 132.755L1971.54 132.755L1978.35 120.971L1978.33 120.971ZM2000.31 120.94L2007.14 132.786L1993.46 132.786L2000.29 120.94L2000.31 120.94ZM2022.28 120.909L2029.16 132.833L2015.4 132.833L2022.28 120.909V120.909ZM2044.26 120.909L2051.14 132.833L2037.37 132.833L2044.26 120.909V120.909ZM2066.23 120.94L2073.07 132.786L2059.38 132.786L2066.22 120.94L2066.23 120.94ZM2088.21 120.971L2095.01 132.755L2081.42 132.755L2088.22 120.971L2088.21 120.971ZM2110.18 121.003L2116.94 132.708L2103.43 132.708L2110.18 121.003ZM2132.16 121.112L2138.79 132.598L2125.54 132.598L2132.17 121.112L2132.16 121.112ZM2154.13 121.222L2160.62 132.473L2147.63 132.473L2154.12 121.222L2154.13 121.222ZM2176.11 121.331L2182.47 132.363L2169.74 132.363L2176.11 121.331ZM2198.08 121.519L2204.23 132.176L2191.94 132.176L2198.08 121.519ZM2220.06 121.707L2225.99 131.988L2214.12 131.988L2220.06 121.707V121.707ZM2247.71 131.769L2236.36 131.769L2242.03 121.926L2247.71 131.769ZM2269.34 131.471L2258.68 131.471L2264.01 122.239L2269.34 131.471V131.471ZM2290.97 131.174L2281 131.174L2285.99 122.536L2290.97 131.174ZM2312.61 130.877L2303.32 130.877L2307.96 122.834L2312.61 130.877ZM2334.14 130.501L2325.71 130.501L2329.92 123.209L2334.13 130.501L2334.14 130.501ZM2355.65 130.094L2348.17 130.094L2351.91 123.616L2355.65 130.094ZM2377.11 129.641L2370.66 129.641L2373.89 124.054L2377.11 129.641V129.641ZM2398.52 129.156L2393.2 129.156L2395.86 124.539L2398.52 129.156ZM2419.89 128.639L2415.77 128.639L2417.84 125.071L2419.9 128.639L2419.89 128.639ZM2439.81 128.076L2438.4 128.076L2439.81 125.635L2439.81 128.076ZM518.2 149.874L515.807 149.874L517.011 147.808L518.2 149.874ZM1396.93 149.655L1395.15 149.655L1395.51 148.872L1395.96 148.09L1396.49 148.872L1396.93 149.639L1396.93 149.655ZM1419.09 149.811L1416.87 149.811L1417.98 147.887L1419.09 149.811V149.811ZM1441.37 150.077L1438.55 150.077L1439.96 147.636L1441.37 150.077ZM1463.69 150.375L1460.17 150.375L1461.92 147.339L1463.67 150.375L1463.69 150.375ZM1486.01 150.672L1481.8 150.672L1483.89 147.026L1485.99 150.672L1486.01 150.672ZM1508.37 151.001L1503.4 151.001L1505.88 146.682L1508.37 151.001V151.001ZM1530.69 151.298L1525.03 151.298L1527.86 146.384L1530.69 151.298V151.298ZM1553.01 151.595L1546.66 151.595L1549.84 146.087L1553.01 151.595ZM1575.33 151.893L1568.29 151.893L1571.81 145.79L1575.33 151.893ZM1597.65 152.19L1589.91 152.19L1593.77 145.492L1597.63 152.19L1597.65 152.19ZM1619.92 152.456L1611.59 152.456L1615.76 145.226L1619.92 152.456V152.456ZM1642.24 152.753L1633.22 152.753L1637.74 144.929L1642.26 152.753L1642.24 152.753ZM1664.51 153.019L1654.88 153.019L1659.7 144.679L1664.51 153.019V153.019ZM1686.79 153.285L1676.56 153.285L1681.67 144.413L1686.79 153.285V153.285ZM1709.03 153.504L1698.28 153.504L1703.66 144.194L1709.04 153.504L1709.03 153.504ZM1731.3 153.77L1719.94 153.77L1725.62 143.928L1731.3 153.77ZM1753.54 153.99L1741.67 153.99L1747.61 143.709L1753.54 153.99V153.99ZM1769.59 143.489L1775.78 154.224L1763.39 154.224L1769.59 143.489V143.489ZM1791.56 143.302L1797.98 154.412L1785.15 154.412L1791.56 143.302V143.302ZM1813.54 143.114L1820.17 154.6L1806.92 154.6L1813.55 143.114L1813.54 143.114ZM1835.51 142.926L1842.35 154.772L1828.66 154.772L1835.5 142.926L1835.51 142.926ZM1857.49 142.77L1864.5 154.913L1850.47 154.913L1857.47 142.77L1857.49 142.77ZM1879.47 142.613L1886.64 155.069L1872.27 155.069L1879.45 142.613L1879.47 142.613ZM1901.44 142.504L1908.76 155.179L1894.14 155.179L1901.46 142.504L1901.44 142.504ZM1923.42 142.394L1930.86 155.288L1915.97 155.288L1923.42 142.394ZM1945.39 142.285L1952.96 155.398L1937.82 155.398L1945.39 142.285V142.285ZM1967.37 142.206L1975.03 155.476L1959.72 155.476L1967.38 142.206L1967.37 142.206ZM1989.34 142.175L1997.04 155.523L1981.63 155.523L1989.34 142.175ZM2011.32 142.144L2019.06 155.57L2003.57 155.57L2011.32 142.144ZM2033.29 142.112L2041.08 155.601L2025.5 155.601L2033.29 142.112ZM2055.27 142.112L2063.06 155.601L2047.48 155.601L2055.27 142.112V142.112ZM2077.24 142.144L2084.99 155.57L2069.5 155.57L2077.24 142.144V142.144ZM2099.22 142.175L2106.91 155.523L2091.51 155.523L2099.2 142.175L2099.22 142.175ZM2121.19 142.253L2128.81 155.445L2113.58 155.445L2121.19 142.253V142.253ZM2143.17 142.363L2150.66 155.335L2135.69 155.335L2143.18 142.363L2143.17 142.363ZM2165.14 142.472L2172.5 155.226L2157.78 155.226L2165.13 142.472L2165.14 142.472ZM2187.12 142.629L2194.3 155.085L2179.92 155.085L2187.1 142.629L2187.12 142.629ZM2209.09 142.817L2216.07 154.897L2202.13 154.897L2209.11 142.817L2209.09 142.817ZM2231.07 143.036L2237.78 154.662L2224.36 154.662L2231.07 143.036V143.036ZM2253.05 143.255L2259.49 154.428L2246.59 154.428L2253.05 143.255ZM2275.02 143.521L2281.17 154.177L2268.87 154.177L2275.02 143.521V143.521ZM2302.8 153.88L2291.19 153.88L2297 143.818L2302.8 153.88V153.88ZM2324.34 153.505L2313.59 153.505L2318.97 144.194L2324.35 153.505L2324.34 153.505ZM2345.87 153.129L2335.99 153.129L2340.93 144.569L2345.87 153.129V153.129ZM2367.38 152.722L2358.43 152.722L2362.91 144.976L2367.38 152.722ZM2388.84 152.268L2380.92 152.268L2384.88 145.414L2388.84 152.268ZM2410.2 151.752L2403.51 151.752L2406.86 145.946L2410.2 151.752ZM2431.57 151.235L2426.08 151.235L2428.83 146.478L2431.59 151.235L2431.57 151.235ZM508.471 172.955L506.031 172.955L506.031 168.715L508.471 172.955ZM529.805 172.392L526.208 172.392L528.007 169.278L529.805 172.392V172.392ZM551.218 171.907L548.746 171.907L549.982 169.763L551.218 171.907ZM572.896 171.641L571.113 171.641L571.472 170.858L571.926 170.092L572.458 170.874L572.896 171.641V171.641ZM1342.06 171.672L1340.09 171.672L1341.08 169.982L1342.06 171.672ZM1364.26 171.86L1361.86 171.86L1363.07 169.794L1364.26 171.86ZM1386.58 172.157L1383.5 172.157L1385.03 169.481L1386.56 172.157L1386.58 172.157ZM1408.9 172.455L1405.13 172.455L1407.02 169.184L1408.9 172.455V172.455ZM1431.22 172.752L1426.76 172.752L1428.99 168.887L1431.23 172.752L1431.22 172.752ZM1453.54 173.049L1448.39 173.049L1450.97 168.59L1453.55 173.049L1453.54 173.049ZM1475.9 173.378L1469.97 173.378L1472.93 168.245L1475.89 173.378L1475.9 173.378ZM1498.22 173.675L1491.6 173.675L1494.9 167.948L1498.21 173.675L1498.22 173.675ZM1520.54 173.973L1513.24 173.973L1516.88 167.651L1520.52 173.973L1520.54 173.973ZM1542.86 174.27L1534.87 174.27L1538.87 167.353L1542.86 174.27V174.27ZM1565.18 174.567L1556.5 174.567L1560.85 167.04L1565.19 174.567L1565.18 174.567ZM1587.45 174.833L1578.16 174.833L1582.81 166.79L1587.45 174.833ZM1609.77 175.131L1599.79 175.131L1604.78 166.493L1609.77 175.131V175.131ZM1632.04 175.397L1621.47 175.397L1626.76 166.227L1632.04 175.397ZM1654.36 175.694L1643.1 175.694L1648.73 165.929L1654.36 175.694V175.694ZM1676.64 175.96L1664.76 175.96L1670.71 165.679L1676.64 175.96V175.96ZM1692.68 165.46L1698.88 176.195L1686.49 176.195L1692.68 165.46V165.46ZM1714.66 165.194L1721.15 176.445L1708.15 176.445L1714.64 165.194L1714.66 165.194ZM1736.63 164.975L1743.39 176.68L1729.88 176.68L1736.63 164.975ZM1758.61 164.787L1765.58 176.868L1751.65 176.868L1758.62 164.787L1758.61 164.787ZM1780.58 164.568L1787.81 177.087L1773.36 177.087L1780.58 164.568ZM1802.56 164.38L1810 177.274L1795.11 177.274L1802.56 164.38ZM1824.53 164.192L1832.2 177.462L1816.89 177.462L1824.55 164.192L1824.53 164.192ZM1846.51 164.036L1854.35 177.603L1838.69 177.603L1846.53 164.036L1846.51 164.036ZM1868.49 163.879L1876.49 177.744L1860.49 177.744L1868.5 163.879L1868.49 163.879ZM1890.46 163.723L1898.64 177.885L1882.28 177.885L1890.46 163.723V163.723ZM1912.44 163.613L1920.74 178.01L1904.13 178.01L1912.44 163.613ZM1934.41 163.504L1942.84 178.119L1925.97 178.119L1934.4 163.504L1934.41 163.504ZM1956.39 163.426L1964.91 178.182L1947.86 178.182L1956.39 163.426ZM1978.36 163.347L1986.96 178.26L1969.74 178.26L1978.35 163.347L1978.36 163.347ZM2000.34 163.316L2008.99 178.307L1991.69 178.307L2000.34 163.316V163.316ZM2022.31 163.285L2031.01 178.354L2013.62 178.354L2022.31 163.285ZM2044.29 163.285L2052.98 178.354L2035.59 178.354L2044.29 163.285ZM2066.26 163.316L2074.91 178.307L2057.61 178.307L2066.26 163.316ZM2088.24 163.347L2096.84 178.26L2079.62 178.26L2088.22 163.347L2088.24 163.347ZM2110.21 163.379L2118.77 178.213L2101.64 178.213L2110.21 163.379ZM2132.19 163.457L2140.67 178.151L2123.71 178.151L2132.19 163.457V163.457ZM2154.16 163.566L2162.52 178.026L2145.81 178.026L2154.16 163.566ZM2176.14 163.723L2184.32 177.885L2167.96 177.885L2176.14 163.723V163.723ZM2198.12 163.879L2206.12 177.744L2190.12 177.744L2198.13 163.879L2198.12 163.879ZM2220.09 164.098L2227.83 177.525L2212.35 177.525L2220.09 164.098V164.098ZM2242.07 164.318L2249.56 177.29L2234.59 177.29L2242.08 164.318L2242.07 164.318ZM2264.04 164.537L2271.27 177.055L2256.81 177.055L2264.04 164.537V164.537ZM2286.02 164.834L2292.9 176.758L2279.13 176.758L2286.02 164.834V164.834ZM2307.99 165.131L2314.53 176.461L2301.45 176.461L2307.99 165.131ZM2329.97 165.46L2336.11 176.117L2323.8 176.117L2329.95 165.46L2329.97 165.46ZM2357.62 175.71L2346.26 175.71L2351.94 165.867L2357.62 175.71V175.71ZM2379.08 175.256L2368.76 175.256L2373.92 166.321L2379.08 175.256V175.256ZM2400.54 174.802L2391.25 174.802L2395.89 166.759L2400.54 174.802V174.802ZM2421.9 174.286L2413.82 174.286L2417.85 167.291L2421.89 174.286L2421.9 174.286ZM2439.84 173.722L2436.42 173.722L2439.81 167.885L2439.81 173.769L2439.84 173.722ZM520.17 195.489L513.899 195.489L517.027 190.059L520.155 195.489L520.17 195.489ZM541.536 194.973L536.468 194.973L539.002 190.591L541.536 194.973V194.973ZM562.901 194.456L559.038 194.456L560.962 191.108L562.886 194.456L562.901 194.456ZM584.36 194.003L581.545 194.003L582.953 191.561L584.36 194.003V194.003ZM605.945 193.674L603.896 193.674L604.912 191.906L605.929 193.674L605.945 193.674ZM1265.11 193.596L1263.31 193.596L1263.67 192.813L1264.12 192.047L1264.66 192.813L1265.11 193.596ZM1287.26 193.752L1285.04 193.752L1286.15 191.827L1287.26 193.752V193.752ZM1309.48 193.971L1306.75 193.971L1308.11 191.608L1309.47 193.971L1309.48 193.971ZM1331.76 194.237L1328.42 194.237L1330.1 191.342L1331.77 194.237L1331.76 194.237ZM1354.08 194.535L1350.04 194.535L1352.06 191.045L1354.08 194.535V194.535ZM1376.39 194.832L1371.67 194.832L1374.03 190.748L1376.39 194.832ZM1398.71 195.129L1393.3 195.129L1396.01 190.45L1398.71 195.129ZM1421.03 195.427L1414.93 195.427L1417.98 190.137L1421.03 195.427V195.427ZM1443.35 195.724L1436.56 195.724L1439.96 189.84L1443.35 195.724V195.724ZM1465.72 196.053L1458.16 196.053L1461.95 189.496L1465.73 196.053L1465.72 196.053ZM1488.04 196.35L1479.78 196.35L1483.91 189.199L1488.04 196.35ZM1510.31 196.616L1501.46 196.616L1505.88 188.948L1510.31 196.616V196.616ZM1532.63 196.913L1523.09 196.913L1527.86 188.651L1532.63 196.913V196.913ZM1554.95 197.211L1544.72 197.211L1549.84 188.338L1554.95 197.211ZM1577.27 197.508L1566.35 197.508L1571.81 188.041L1577.27 197.508ZM1599.59 197.805L1587.98 197.805L1593.79 187.743L1599.59 197.805V197.805ZM1615.76 187.477L1621.88 198.056L1609.66 198.056L1615.78 187.477L1615.76 187.477ZM1637.74 187.211L1644.15 198.322L1631.32 198.322L1637.74 187.211V187.211ZM1659.71 186.945L1666.42 198.572L1653 198.572L1659.71 186.945V186.945ZM1681.69 186.726L1688.66 198.807L1674.73 198.807L1681.7 186.726L1681.69 186.726ZM1703.66 186.46L1710.94 199.057L1696.39 199.057L1703.66 186.46V186.46ZM1725.64 186.241L1733.16 199.292L1718.1 199.292L1725.64 186.241V186.241ZM1747.61 186.022L1755.4 199.511L1739.82 199.511L1747.61 186.022V186.022ZM1769.59 185.834L1777.6 199.699L1761.6 199.699L1769.6 185.834L1769.59 185.834ZM1791.56 185.615L1799.82 199.933L1783.29 199.933L1791.55 185.615L1791.56 185.615ZM1813.54 185.427L1822.02 200.121L1805.06 200.121L1813.54 185.427V185.427ZM1835.51 185.271L1844.16 200.262L1826.87 200.262L1835.51 185.271V185.271ZM1857.49 185.161L1866.26 200.372L1848.7 200.372L1857.47 185.161L1857.49 185.161ZM1879.47 185.005L1888.41 200.512L1870.5 200.512L1879.45 185.005L1879.47 185.005ZM1901.44 184.895L1910.53 200.622L1892.37 200.622L1901.46 184.895L1901.44 184.895ZM1923.42 184.817L1932.58 200.7L1914.25 200.7L1923.42 184.817ZM1945.39 184.739L1954.63 200.763L1936.13 200.763L1945.39 184.739V184.739ZM1967.37 184.661L1976.7 200.841L1958.03 200.841L1967.37 184.661V184.661ZM1989.34 184.629L1998.73 200.888L1979.96 200.888L1989.34 184.629ZM2011.32 184.598L2020.75 200.935L2001.9 200.935L2011.33 184.598L2011.32 184.598ZM2033.29 184.598L2042.72 200.935L2023.88 200.935L2033.31 184.598L2033.29 184.598ZM2055.27 184.598L2064.7 200.935L2045.85 200.935L2055.28 184.598L2055.27 184.598ZM2077.24 184.598L2086.67 200.935L2067.83 200.935L2077.26 184.598L2077.24 184.598ZM2099.22 184.629L2108.6 200.888L2089.83 200.888L2099.22 184.629ZM2121.19 184.707L2130.48 200.81L2111.89 200.81L2121.18 184.707L2121.19 184.707ZM2143.17 184.786L2152.38 200.747L2133.96 200.747L2143.17 184.786V184.786ZM2165.14 184.895L2174.23 200.622L2156.07 200.622L2165.16 184.895L2165.14 184.895ZM2187.12 185.005L2196.07 200.512L2178.16 200.512L2187.1 185.005L2187.12 185.005ZM2209.09 185.161L2217.87 200.372L2200.3 200.372L2209.08 185.161L2209.09 185.161ZM2231.07 185.349L2239.63 200.184L2222.5 200.184L2231.07 185.349ZM2253.05 185.568L2261.35 199.965L2244.74 199.965L2253.05 185.568V185.568ZM2275.02 185.865L2282.98 199.652L2267.06 199.652L2275.02 185.865ZM2297 186.163L2304.61 199.354L2289.38 199.354L2297 186.163V186.163ZM2318.97 186.491L2326.2 199.01L2311.75 199.01L2318.97 186.491V186.491ZM2340.95 186.82L2347.78 198.666L2334.1 198.666L2340.93 186.82L2340.95 186.82ZM2362.92 187.196L2369.33 198.306L2356.51 198.306L2362.92 187.196V187.196ZM2384.9 187.649L2390.79 197.852L2379.02 197.852L2384.91 187.649L2384.9 187.649ZM2412.21 197.367L2401.54 197.367L2406.87 188.135L2412.21 197.367ZM2433.54 196.804L2424.17 196.804L2428.86 188.682L2433.56 196.804L2433.54 196.804ZM510.473 218.571L506.047 218.571L506.047 210.903L510.473 218.571ZM531.839 218.054L524.19 218.054L528.022 211.435L531.839 218.054ZM553.204 217.538L546.76 217.538L549.982 211.951L553.204 217.538ZM574.616 217.053L569.298 217.053L571.957 212.436L574.616 217.053ZM596.075 216.599L591.79 216.599L593.932 212.89L596.075 216.599V216.599ZM617.581 216.192L614.234 216.192L615.908 213.297L617.581 216.192V216.192ZM639.119 215.816L636.648 215.816L637.883 213.673L639.119 215.816ZM660.844 215.597L658.873 215.597L659.858 213.907L660.844 215.597V215.597ZM1188.19 215.566L1186.41 215.566L1186.77 214.784L1187.22 214.017L1187.75 214.799L1188.19 215.566ZM1210.29 215.676L1208.16 215.676L1209.23 213.829L1210.29 215.676V215.676ZM1232.48 215.863L1229.92 215.863L1231.2 213.641L1232.48 215.863V215.863ZM1254.76 216.129L1251.58 216.129L1253.16 213.391L1254.74 216.129L1254.76 216.129ZM1277.03 216.395L1273.26 216.395L1275.15 213.125L1277.03 216.395V216.395ZM1299.35 216.693L1294.89 216.693L1297.13 212.828L1299.36 216.693L1299.35 216.693ZM1321.62 216.959L1316.55 216.959L1319.09 212.577L1321.62 216.959ZM1343.94 217.256L1338.18 217.256L1341.06 212.28L1343.94 217.256V217.256ZM1366.21 217.522L1359.86 217.522L1363.04 212.014L1366.21 217.522ZM1388.53 217.819L1381.49 217.819L1385.01 211.717L1388.53 217.819ZM1410.85 218.117L1403.11 218.117L1406.97 211.419L1410.84 218.117L1410.85 218.117ZM1433.17 218.414L1424.74 218.414L1428.95 211.122L1433.16 218.414L1433.17 218.414ZM1455.49 218.711L1446.37 218.711L1450.92 210.825L1455.47 218.711L1455.49 218.711ZM1477.81 219.009L1468 219.009L1472.9 210.512L1477.79 219.009L1477.81 219.009ZM1500.13 219.306L1489.63 219.306L1494.87 210.214L1500.11 219.306L1500.13 219.306ZM1522.45 219.603L1511.27 219.603L1516.86 209.917L1522.45 219.603V219.603ZM1544.77 219.901L1532.9 219.901L1538.84 209.62L1544.77 219.901V219.901ZM1560.82 209.354L1567.06 220.167L1554.57 220.167L1560.82 209.354ZM1582.79 209.056L1589.38 220.464L1576.21 220.464L1582.79 209.056V209.056ZM1604.77 208.79L1611.65 220.714L1597.88 220.714L1604.77 208.79ZM1626.74 208.524L1633.92 220.98L1619.55 220.98L1626.73 208.524L1626.74 208.524ZM1648.72 208.305L1656.16 221.2L1641.27 221.2L1648.72 208.305ZM1670.69 208.039L1678.43 221.466L1662.95 221.466L1670.69 208.039ZM1692.67 207.773L1700.71 221.716L1684.61 221.716L1692.67 207.773V207.773ZM1714.64 207.554L1722.95 221.951L1706.34 221.951L1714.64 207.554ZM1736.62 207.335L1745.17 222.17L1728.05 222.17L1736.62 207.335V207.335ZM1758.59 207.147L1767.37 222.358L1749.8 222.358L1758.58 207.147L1758.59 207.147ZM1780.57 206.96L1789.56 222.545L1771.57 222.545L1780.57 206.96ZM1802.54 206.803L1811.71 222.686L1793.38 222.686L1802.54 206.803ZM1824.52 206.647L1833.86 222.827L1815.18 222.827L1824.52 206.647V206.647ZM1846.49 206.537L1855.96 222.937L1837.02 222.937L1846.48 206.537L1846.49 206.537ZM1868.47 206.381L1878.1 223.077L1858.82 223.077L1868.47 206.381V206.381ZM1890.45 206.271L1900.22 223.203L1880.69 223.203L1890.46 206.271L1890.45 206.271ZM1912.42 206.193L1922.27 223.265L1902.57 223.265L1912.42 206.193ZM1934.4 206.114L1944.34 223.343L1924.46 223.343L1934.41 206.114L1934.4 206.114ZM1956.37 206.036L1966.4 223.406L1946.35 223.406L1956.37 206.036V206.036ZM1978.35 206.005L1988.42 223.453L1968.27 223.453L1978.35 206.005ZM2000.32 205.974L2010.44 223.5L1990.22 223.5L2000.34 205.974L2000.32 205.974ZM2022.3 205.942L2032.45 223.547L2012.13 223.547L2022.3 205.942ZM2044.27 205.942L2054.42 223.547L2034.11 223.547L2044.27 205.942ZM2066.25 205.942L2076.4 223.547L2056.08 223.547L2066.25 205.942ZM2088.22 205.974L2098.34 223.5L2078.12 223.5L2088.24 205.974L2088.22 205.974ZM2110.2 206.005L2120.27 223.453L2100.13 223.453L2110.2 206.005ZM2132.17 206.083L2142.15 223.39L2122.18 223.39L2132.16 206.083L2132.17 206.083ZM2154.15 206.161L2164.05 223.312L2144.25 223.312L2154.15 206.161V206.161ZM2176.12 206.271L2185.9 223.203L2166.36 223.203L2176.14 206.271L2176.12 206.271ZM2198.1 206.428L2207.7 223.062L2188.51 223.062L2198.12 206.428L2198.1 206.428ZM2220.07 206.584L2229.51 222.921L2210.66 222.921L2220.09 206.584L2220.07 206.584ZM2242.05 206.772L2251.26 222.733L2232.84 222.733L2242.05 206.772ZM2264.03 206.96L2273.02 222.545L2255.03 222.545L2264.03 206.96ZM2286 207.226L2294.7 222.295L2277.3 222.295L2286 207.226ZM2307.98 207.523L2316.33 221.982L2299.64 221.982L2307.99 207.523L2307.98 207.523ZM2329.95 207.852L2337.91 221.638L2321.99 221.638L2329.95 207.852V207.852ZM2351.93 208.227L2359.45 221.278L2344.39 221.278L2351.93 208.227ZM2373.9 208.634L2380.96 220.855L2366.85 220.855L2373.9 208.634V208.634ZM2395.88 209.088L2402.42 220.417L2389.34 220.417L2395.88 209.088V209.088ZM2417.85 209.573L2423.83 219.932L2411.86 219.932L2417.84 209.573L2417.85 209.573ZM2439.81 219.447L2434.43 219.447L2439.81 210.136L2439.81 219.447ZM522.079 241.167L511.928 241.167L516.996 232.372L522.063 241.167L522.079 241.167ZM543.444 240.65L534.497 240.65L538.971 232.905L543.444 240.65V240.65ZM564.856 240.165L557.036 240.165L560.946 233.39L564.856 240.165ZM586.315 239.712L579.527 239.712L582.921 233.828L586.315 239.712V239.712ZM607.822 239.305L601.988 239.305L604.912 234.25L607.837 239.305L607.822 239.305ZM629.328 238.898L624.432 238.898L626.872 234.657L629.312 238.898L629.328 238.898ZM650.865 238.522L646.83 238.522L648.847 235.033L650.865 238.522ZM672.496 238.225L669.165 238.225L670.838 235.33L672.512 238.225L672.496 238.225ZM694.128 237.928L691.484 237.928L692.814 235.627L694.143 237.928L694.128 237.928ZM715.884 237.74L713.663 237.74L714.773 235.815L715.884 237.74ZM737.734 237.63L735.779 237.63L736.764 235.925L737.75 237.63L737.734 237.63ZM1089.29 237.599L1087.51 237.599L1087.87 236.832L1088.31 236.05L1088.84 236.817L1089.29 237.599ZM1111.35 237.677L1109.3 237.677L1110.31 235.909L1111.33 237.677L1111.35 237.677ZM1133.45 237.787L1131.15 237.787L1132.3 235.784L1133.46 237.787L1133.45 237.787ZM1155.64 237.975L1152.9 237.975L1154.26 235.596L1155.62 237.975L1155.64 237.975ZM1177.88 238.194L1174.63 238.194L1176.25 235.377L1177.88 238.194V238.194ZM1200.11 238.413L1196.34 238.413L1198.23 235.142L1200.11 238.413V238.413ZM1222.35 238.632L1218.06 238.632L1220.21 234.923L1222.35 238.632ZM1244.62 238.898L1239.73 238.898L1242.17 234.657L1244.61 238.898L1244.62 238.898ZM1266.89 239.164L1261.4 239.164L1264.16 234.407L1266.91 239.164L1266.89 239.164ZM1289.17 239.43L1283.07 239.43L1286.12 234.141L1289.17 239.43V239.43ZM1311.44 239.696L1304.74 239.696L1308.09 233.89L1311.44 239.696ZM1333.76 239.993L1326.36 239.993L1330.05 233.593L1333.74 239.993L1333.76 239.993ZM1356.08 240.291L1347.99 240.291L1352.03 233.296L1356.06 240.291L1356.08 240.291ZM1378.35 240.557L1369.67 240.557L1374.02 233.03L1378.37 240.557L1378.35 240.557ZM1400.67 240.854L1391.3 240.854L1395.99 232.732L1400.68 240.854L1400.67 240.854ZM1422.99 241.151L1412.93 241.151L1417.97 232.435L1423 241.151L1422.99 241.151ZM1445.31 241.449L1434.56 241.449L1439.94 232.138L1445.32 241.449L1445.31 241.449ZM1467.63 241.746L1456.19 241.746L1461.92 231.84L1467.64 241.746L1467.63 241.746ZM1489.9 242.012L1477.86 242.012L1483.88 231.574L1489.9 242.012ZM1505.85 231.277L1512.22 242.309L1499.49 242.309L1505.85 231.277V231.277ZM1527.83 230.98L1534.54 242.607L1521.12 242.607L1527.83 230.98V230.98ZM1549.8 230.714L1556.81 242.857L1542.78 242.857L1549.79 230.714L1549.8 230.714ZM1571.78 230.448L1579.1 243.123L1564.48 243.123L1571.8 230.448L1571.78 230.448ZM1593.75 230.182L1601.37 243.373L1586.14 243.373L1593.75 230.182ZM1615.73 229.884L1623.69 243.671L1607.77 243.671L1615.73 229.884V229.884ZM1637.71 229.618L1645.96 243.937L1629.43 243.937L1637.69 229.618L1637.71 229.618ZM1659.68 229.399L1668.2 244.156L1651.16 244.156L1659.68 229.399ZM1681.66 229.18L1690.43 244.391L1672.87 244.391L1681.64 229.18L1681.66 229.18ZM1703.63 228.993L1712.62 244.578L1694.64 244.578L1703.63 228.993ZM1725.61 228.805L1734.82 244.766L1716.39 244.766L1725.61 228.805ZM1747.58 228.617L1757.01 244.954L1738.17 244.954L1747.6 228.617L1747.58 228.617ZM1769.56 228.429L1779.19 245.126L1759.91 245.126L1769.56 228.429V228.429ZM1791.53 228.273L1801.34 245.283L1781.71 245.283L1791.53 228.273V228.273ZM1813.51 228.116L1823.49 245.423L1803.51 245.423L1813.51 228.116ZM1835.48 228.007L1845.6 245.533L1825.38 245.533L1835.5 228.007L1835.48 228.007ZM1857.46 227.897L1867.7 245.642L1847.21 245.642L1857.46 227.897ZM1879.43 227.788L1889.8 245.768L1869.06 245.768L1879.43 227.788ZM1901.41 227.709L1911.87 245.83L1890.95 245.83L1901.41 227.709ZM1923.38 227.631L1933.93 245.908L1912.83 245.908L1923.37 227.631L1923.38 227.631ZM1945.36 227.553L1956 245.971L1934.72 245.971L1945.36 227.553ZM1967.34 227.522L1978 246.018L1956.65 246.018L1967.34 227.522ZM1989.31 227.443L2000.07 246.096L1978.55 246.096L1989.31 227.443ZM2011.29 227.443L2022.05 246.096L2000.52 246.096L2011.29 227.443ZM2033.26 227.412L2044.07 246.128L2022.45 246.128L2033.26 227.412ZM2055.24 227.443L2066 246.096L2044.48 246.096L2055.24 227.443ZM2077.21 227.443L2087.97 246.096L2066.45 246.096L2077.21 227.443ZM2099.19 227.475L2109.9 246.049L2088.46 246.049L2099.17 227.475L2099.19 227.475ZM2121.16 227.506L2131.83 246.002L2110.48 246.002L2121.16 227.506ZM2143.14 227.584L2153.73 245.924L2132.55 245.924L2143.14 227.584V227.584ZM2165.11 227.662L2175.61 245.862L2154.6 245.862L2165.11 227.662ZM2187.09 227.772L2197.46 245.752L2176.72 245.752L2187.09 227.772ZM2209.06 227.881L2219.31 245.627L2198.82 245.627L2209.06 227.881V227.881ZM2231.04 228.069L2241.06 245.439L2221.01 245.439L2231.04 228.069ZM2253.01 228.226L2262.87 245.298L2243.16 245.298L2253.01 228.226ZM2274.99 228.445L2284.59 245.079L2265.4 245.079L2275.01 228.445L2274.99 228.445ZM2296.96 228.664L2306.3 244.844L2287.63 244.844L2296.96 228.664ZM2318.94 228.961L2327.93 244.547L2309.95 244.547L2318.94 228.961ZM2340.92 229.259L2349.56 244.25L2332.27 244.25L2340.92 229.259ZM2362.89 229.634L2371.1 243.874L2354.66 243.874L2362.89 229.634ZM2384.87 230.088L2392.56 243.436L2377.16 243.436L2384.85 230.088L2384.87 230.088ZM2406.84 230.542L2414.02 242.998L2399.65 242.998L2406.83 230.542L2406.84 230.542ZM2428.82 231.027L2435.45 242.513L2422.2 242.513L2428.83 231.027L2428.82 231.027ZM512.381 264.264L506.016 264.264L506.016 253.232L512.381 264.264ZM533.747 263.748L522.219 263.748L527.975 253.764L533.731 263.748L533.747 263.748ZM555.112 263.231L544.789 263.231L549.951 254.296L555.112 263.231ZM576.524 262.746L567.327 262.746L571.926 254.781L576.524 262.746ZM598.03 262.339L589.772 262.339L593.901 255.188L598.03 262.339V262.339ZM619.536 261.932L612.232 261.932L615.892 255.61L619.536 261.932V261.932ZM641.074 261.557L634.63 261.557L637.852 255.97L641.074 261.557ZM662.658 261.228L656.996 261.228L659.827 256.315L662.658 261.228ZM684.289 260.931L679.316 260.931L681.803 256.612L684.289 260.931V260.931ZM705.968 260.665L701.588 260.665L703.778 256.878L705.968 260.665V260.665ZM727.646 260.399L723.876 260.399L725.769 257.128L727.661 260.399L727.646 260.399ZM749.402 260.211L746.055 260.211L747.729 257.316L749.402 260.211V260.211ZM771.158 260.023L768.249 260.023L769.704 257.504L771.158 260.023V260.023ZM792.962 259.867L790.397 259.867L791.679 257.645L792.962 259.867V259.867ZM814.812 259.757L812.513 259.757L813.67 257.754L814.827 259.757L814.812 259.757ZM836.74 259.726L834.519 259.726L835.63 257.801L836.74 259.726ZM858.669 259.695L856.541 259.695L857.605 257.848L858.669 259.695V259.695ZM880.597 259.663L878.548 259.663L879.565 257.895L880.581 259.663L880.597 259.663ZM902.572 259.663L900.523 259.663L901.54 257.895L902.557 259.663L902.572 259.663ZM924.548 259.663L922.499 259.663L923.515 257.895L924.532 259.663L924.548 259.663ZM946.523 259.663L944.474 259.663L945.491 257.895L946.507 259.663L946.523 259.663ZM968.545 259.695L966.418 259.695L967.482 257.848L968.545 259.695V259.695ZM990.567 259.726L988.346 259.726L989.457 257.801L990.567 259.726V259.726ZM1012.62 259.804L1010.23 259.804L1011.43 257.739L1012.62 259.804ZM1034.69 259.882L1032.13 259.882L1033.41 257.66L1034.69 259.882V259.882ZM1056.84 260.039L1053.93 260.039L1055.38 257.52L1056.84 260.039V260.039ZM1078.98 260.195L1075.73 260.195L1077.36 257.379L1078.98 260.195V260.195ZM1101.13 260.352L1097.53 260.352L1099.33 257.238L1101.13 260.352ZM1123.33 260.54L1119.29 260.54L1121.31 257.05L1123.33 260.54V260.54ZM1145.57 260.759L1141.02 260.759L1143.28 256.815L1145.55 260.759L1145.57 260.759ZM1167.76 260.947L1162.79 260.947L1165.28 256.628L1167.76 260.947V260.947ZM1190 261.166L1184.51 261.166L1187.27 256.409L1190.02 261.166L1190 261.166ZM1212.23 261.385L1206.22 261.385L1209.23 256.174L1212.23 261.385V261.385ZM1234.5 261.651L1227.89 261.651L1231.19 255.923L1234.49 261.651L1234.5 261.651ZM1256.74 261.87L1249.61 261.87L1253.18 255.689L1256.74 261.87ZM1279.01 262.136L1271.29 262.136L1275.15 255.438L1279.01 262.136ZM1301.33 262.433L1292.9 262.433L1297.11 255.141L1301.32 262.433L1301.33 262.433ZM1323.61 262.699L1314.58 262.699L1319.1 254.875L1323.62 262.699L1323.61 262.699ZM1345.88 262.965L1336.24 262.965L1341.06 254.625L1345.88 262.965V262.965ZM1368.2 263.263L1357.88 263.263L1363.04 254.327L1368.2 263.263V263.263ZM1390.52 263.56L1379.51 263.56L1385.01 254.03L1390.52 263.56ZM1412.84 263.857L1401.14 263.857L1406.99 253.717L1412.84 263.857ZM1428.96 253.467L1435.11 264.123L1422.8 264.123L1428.95 253.467L1428.96 253.467ZM1450.94 253.169L1457.43 264.421L1444.43 264.421L1450.92 253.169L1450.94 253.169ZM1472.91 252.903L1479.72 264.687L1466.13 264.687L1472.93 252.903L1472.91 252.903ZM1494.89 252.637L1501.99 264.937L1487.79 264.937L1494.89 252.637V252.637ZM1516.86 252.34L1524.31 265.234L1509.42 265.234L1516.86 252.34ZM1538.84 252.074L1546.58 265.5L1531.1 265.5L1538.84 252.074V252.074ZM1560.82 251.777L1568.9 265.798L1552.73 265.798L1560.82 251.777V251.777ZM1582.79 251.511L1591.17 266.048L1574.39 266.048L1582.79 251.511ZM1604.77 251.245L1613.46 266.314L1596.07 266.314L1604.77 251.245V251.245ZM1626.74 251.025L1635.69 266.533L1617.78 266.533L1626.73 251.025L1626.74 251.025ZM1648.72 250.838L1657.88 266.721L1639.55 266.721L1648.72 250.838ZM1670.69 250.619L1680.12 266.956L1661.28 266.956L1670.71 250.619L1670.69 250.619ZM1692.67 250.431L1702.3 267.128L1683.02 267.128L1692.67 250.431V250.431ZM1714.64 250.243L1724.5 267.316L1704.79 267.316L1714.64 250.243ZM1736.62 250.055L1746.69 267.503L1726.55 267.503L1736.62 250.055ZM1758.59 249.899L1768.84 267.644L1748.35 267.644L1758.59 249.899ZM1780.57 249.742L1790.99 267.785L1770.15 267.785L1780.57 249.742V249.742ZM1802.54 249.633L1813.09 267.91L1791.99 267.91L1802.53 249.633L1802.54 249.633ZM1824.52 249.523L1835.19 268.02L1813.84 268.02L1824.52 249.523ZM1846.49 249.414L1857.3 268.129L1835.69 268.129L1846.49 249.414V249.414ZM1868.47 249.304L1879.4 268.254L1857.54 268.254L1868.47 249.304ZM2187.14 268.317L2165.21 268.317L2165.25 268.395L2143.33 268.395L2143.37 268.474L2121.41 268.474L2121.41 268.505L2099.48 268.505L2099.48 268.536L2077.56 268.536L2077.56 268.567L2010.99 268.567L2010.99 268.536L1967.08 268.536L1967.08 268.505L1945.16 268.505L1945.2 268.427L1923.28 268.427L1923.29 268.395L1901.33 268.395L1901.38 268.317L1879.45 268.317L1890.48 249.226L1901.44 268.223L1912.45 249.148L1923.43 268.161L1934.43 249.101L1945.39 268.098L1956.4 249.023L1967.38 268.035L1978.38 248.976L1989.36 268.02L2000.35 248.976L2011.33 267.988L2022.33 248.929L2033.31 267.973L2044.3 248.929L2055.28 267.973L2066.28 248.929L2077.27 267.988L2088.25 248.976L2099.25 268.035L2110.23 249.023L2121.22 268.082L2132.2 249.069L2143.22 268.145L2154.18 249.148L2165.19 268.223L2176.16 249.226L2187.18 268.317L2187.14 268.317ZM2198.1 249.336L2208.99 268.208L2187.2 268.208L2198.08 249.336L2198.1 249.336ZM2220.07 249.445L2230.84 268.098L2209.31 268.098L2220.07 249.445ZM2242.05 249.602L2252.64 267.942L2231.46 267.942L2242.05 249.602ZM2264.03 249.789L2274.4 267.769L2253.66 267.769L2264.03 249.789V249.789ZM2286 249.977L2296.15 267.582L2275.83 267.582L2286 249.977ZM2307.98 250.196L2317.88 267.347L2298.08 267.347L2307.98 250.196ZM2329.95 250.462L2339.55 267.096L2320.36 267.096L2329.97 250.462L2329.95 250.462ZM2351.93 250.76L2361.19 266.799L2342.68 266.799L2351.94 250.76L2351.93 250.76ZM2373.9 251.135L2382.72 266.424L2365.08 266.424L2373.9 251.135ZM2395.88 251.542L2404.23 266.001L2387.54 266.001L2395.89 251.542L2395.88 251.542ZM2417.85 251.996L2425.69 265.563L2410.03 265.563L2417.87 251.996L2417.85 251.996ZM2439.81 265.031L2432.57 265.031L2439.81 252.512L2439.81 265.031ZM517.011 274.717L523.987 286.798L510.051 286.798L517.027 274.717L517.011 274.717ZM538.986 275.202L545.399 286.313L532.574 286.313L538.986 275.202V275.202ZM560.962 275.687L566.811 285.828L555.112 285.828L560.962 275.687ZM588.271 285.374L577.604 285.374L582.937 276.141L588.271 285.374V285.374ZM609.777 284.967L600.064 284.967L604.928 276.548L609.792 284.967L609.777 284.967ZM631.314 284.591L622.461 284.591L626.888 276.924L631.314 284.591V284.591ZM652.898 284.263L644.812 284.263L648.847 277.268L652.883 284.263L652.898 284.263ZM674.483 283.934L667.178 283.934L670.838 277.612L674.483 283.934V283.934ZM696.161 283.668L689.467 283.668L692.814 277.862L696.161 283.668V283.668ZM717.839 283.402L711.739 283.402L714.789 278.113L717.839 283.402ZM739.548 283.183L733.965 283.183L736.749 278.348L739.533 283.183L739.548 283.183ZM761.273 282.964L756.206 282.964L758.74 278.582L761.273 282.964V282.964ZM783.077 282.807L778.353 282.807L780.715 278.723L783.077 282.807ZM804.88 282.651L800.501 282.651L802.69 278.864L804.88 282.651V282.651ZM826.761 282.573L822.554 282.573L824.65 278.927L826.746 282.573L826.761 282.573ZM848.612 282.463L844.67 282.463L846.641 279.052L848.612 282.463ZM870.54 282.432L866.677 282.432L868.601 279.083L870.524 282.432L870.54 282.432ZM892.468 282.401L888.699 282.401L890.592 279.13L892.468 282.401V282.401ZM914.444 282.401L910.674 282.401L912.567 279.13L914.444 282.401V282.401ZM936.466 282.432L932.603 282.432L934.526 279.083L936.45 282.432L936.466 282.432ZM958.488 282.463L954.547 282.463L956.517 279.052L958.488 282.463ZM980.51 282.494L976.475 282.494L978.493 279.005L980.51 282.494V282.494ZM1002.56 282.573L998.357 282.573L1000.45 278.927L1002.55 282.573L1002.56 282.573ZM1024.66 282.682L1020.21 282.682L1022.44 278.817L1024.68 282.682L1024.66 282.682ZM1046.76 282.792L1042.04 282.792L1044.4 278.708L1046.76 282.792ZM1068.91 282.948L1063.84 282.948L1066.38 278.567L1068.91 282.948ZM1091.06 283.105L1085.65 283.105L1088.35 278.426L1091.06 283.105ZM1113.25 283.293L1107.42 283.293L1110.34 278.238L1113.27 283.293L1113.25 283.293ZM1135.45 283.48L1129.18 283.48L1132.3 278.05L1135.43 283.48L1135.45 283.48ZM1157.64 283.668L1150.95 283.668L1154.3 277.863L1157.64 283.668ZM1179.88 283.887L1172.67 283.887L1176.29 277.628L1179.9 283.887L1179.88 283.887ZM1202.11 284.106L1194.38 284.106L1198.25 277.409L1202.11 284.106ZM1224.35 284.325L1216.09 284.325L1220.22 277.174L1224.35 284.325ZM1246.62 284.591L1237.77 284.591L1242.2 276.924L1246.62 284.591V284.591ZM1268.9 284.857L1259.43 284.857L1264.16 276.658L1268.88 284.857L1268.9 284.857ZM1291.17 285.123L1281.11 285.123L1286.15 276.407L1291.18 285.123L1291.17 285.123ZM1313.44 285.389L1302.77 285.389L1308.11 276.157L1313.44 285.389V285.389ZM1335.71 285.655L1324.45 285.655L1330.08 275.891L1335.71 285.655ZM1358.03 285.953L1346.07 285.953L1352.04 275.594L1358.02 285.953L1358.03 285.953ZM1374.03 275.327L1380.3 286.203L1367.75 286.203L1374.03 275.327ZM1396.01 275.061L1402.59 286.469L1389.42 286.469L1396.01 275.061V275.061ZM1417.98 274.764L1424.91 286.767L1411.05 286.767L1417.98 274.764V274.764ZM1439.96 274.498L1447.18 287.017L1432.73 287.017L1439.96 274.498ZM1461.93 274.232L1469.46 287.283L1454.4 287.283L1461.92 274.232L1461.93 274.232ZM1483.91 273.935L1491.78 287.58L1476.03 287.58L1483.91 273.935V273.935ZM1505.88 273.669L1514.06 287.831L1497.7 287.831L1505.88 273.669ZM1527.86 273.371L1536.38 288.128L1519.34 288.128L1527.86 273.371V273.371ZM1549.84 273.152L1558.61 288.363L1541.05 288.363L1549.82 273.152L1549.84 273.152ZM1571.81 272.933L1580.85 288.597L1562.77 288.597L1571.81 272.933ZM1593.79 272.667L1603.12 288.848L1584.45 288.848L1593.79 272.667ZM1625.32 289.036L1606.2 289.036L1615.76 272.479L1625.32 289.036ZM1637.74 272.26L1647.54 289.27L1627.91 289.27L1637.74 272.26ZM1659.71 272.073L1669.74 289.442L1649.69 289.442L1659.71 272.073V272.073ZM1681.69 271.885L1691.93 289.63L1671.44 289.63L1681.69 271.885ZM1703.66 271.728L1714.08 289.771L1693.25 289.771L1703.66 271.728V271.728ZM1725.64 271.572L1736.23 289.912L1715.05 289.912L1725.64 271.572V271.572ZM1747.61 271.415L1758.37 290.068L1736.85 290.068L1747.61 271.415ZM1769.59 271.259L1780.52 290.209L1758.66 290.209L1769.59 271.259ZM1857.49 270.852L1868.45 289.849L1879.47 270.774L1890.45 289.787L1901.44 270.727L1912.4 289.724L1923.42 270.649L1934.4 289.661L1945.39 270.602L1956.37 289.615L1967.37 270.555L1978.35 289.568L1989.34 270.508L2000.32 289.552L2011.32 270.508L2022.3 289.552L2033.29 270.508L2044.27 289.552L2055.27 270.508L2066.25 289.552L2077.24 270.508L2088.24 289.568L2099.22 270.555L2110.21 289.615L2121.19 270.602L2132.19 289.662L2143.17 270.649L2154.18 289.724L2165.14 270.727L2176.14 289.787L2187.12 270.774L2198.13 289.865L2209.09 270.883L2220.11 289.975L2231.07 270.993L2242.1 290.1L2253.05 271.134L2264.1 290.303L2242.21 290.303L2242.3 290.46L2220.39 290.46L2220.45 290.569L2198.54 290.569L2198.6 290.679L2176.64 290.679L2176.64 290.71L2154.73 290.71L2154.77 290.788L2132.81 290.788L2132.81 290.82L2110.89 290.82L2110.89 290.851L2088.96 290.851L2088.96 290.882L1977.58 290.882L1977.58 290.851L1955.65 290.851L1955.65 290.819L1933.72 290.819L1933.72 290.788L1911.79 290.788L1911.84 290.71L1889.91 290.71L1889.93 290.679L1867.97 290.679L1868.02 290.6L1846.09 290.6L1846.15 290.491L1824.24 290.491L1824.28 290.413L1802.36 290.413L1802.42 290.303L1780.51 290.303L1791.56 271.134L1802.51 290.115L1813.54 271.024L1824.5 290.021L1835.51 270.946L1846.46 289.928L1857.49 270.836L1857.49 270.852ZM2275.01 271.306L2285.89 290.178L2264.1 290.178L2274.99 271.306L2275.01 271.306ZM2296.98 271.494L2307.65 289.99L2286.3 289.99L2296.98 271.494ZM2318.96 271.713L2329.37 289.755L2308.54 289.755L2318.96 271.713ZM2340.93 271.979L2351.05 289.505L2330.83 289.505L2340.95 271.979L2340.93 271.979ZM2372.68 289.208L2353.15 289.208L2362.92 272.276L2372.7 289.208L2372.68 289.208ZM2384.88 272.62L2394.27 288.879L2375.5 288.879L2384.88 272.62V272.62ZM2406.86 272.996L2415.8 288.504L2397.89 288.504L2406.84 272.996L2406.86 272.996ZM2437.25 288.065L2420.39 288.065L2428.82 273.45L2437.25 288.065V288.065ZM506.016 295.623L514.227 309.864L506 309.864L506 295.623L506.016 295.623ZM527.991 296.14L535.608 309.331L520.374 309.331L527.991 296.14V296.14ZM549.966 296.625L557.02 308.846L542.912 308.846L549.966 296.625ZM571.942 297.079L578.479 308.408L565.404 308.408L571.942 297.079V297.079ZM593.917 297.486L599.985 307.986L587.848 307.986L593.917 297.486V297.486ZM621.476 307.579L610.293 307.579L615.892 297.892L621.476 307.579V307.579ZM643.06 307.25L632.659 307.25L637.867 298.237L643.076 307.25L643.06 307.25ZM664.644 306.922L655.01 306.922L659.827 298.581L664.644 306.922V306.922ZM686.276 306.624L677.329 306.624L681.803 298.878L686.276 306.624V306.624ZM707.954 306.358L699.617 306.358L703.793 299.129L707.97 306.358L707.954 306.358ZM729.632 306.092L721.89 306.092L725.753 299.395L729.616 306.092L729.632 306.092ZM751.388 305.904L744.084 305.904L747.744 299.583L751.388 305.904V305.904ZM773.145 305.717L766.279 305.717L769.719 299.77L773.16 305.717L773.145 305.717ZM794.948 305.56L788.426 305.56L791.695 299.911L794.964 305.56L794.948 305.56ZM816.798 305.451L810.526 305.451L813.654 300.021L816.783 305.451L816.798 305.451ZM838.68 305.372L832.58 305.372L835.63 300.083L838.68 305.372ZM860.561 305.294L854.633 305.294L857.589 300.162L860.546 305.294L860.561 305.294ZM882.49 305.263L876.656 305.263L879.58 300.208L882.505 305.263L882.49 305.263ZM904.418 305.232L898.662 305.232L901.54 300.255L904.418 305.232V305.232ZM926.393 305.232L920.637 305.232L923.515 300.255L926.393 305.232V305.232ZM948.415 305.263L942.582 305.263L945.506 300.208L948.431 305.263L948.415 305.263ZM970.469 305.341L964.463 305.341L967.466 300.13L970.469 305.341V305.341ZM992.491 305.372L986.391 305.372L989.441 300.083L992.491 305.372V305.372ZM1014.59 305.482L1008.24 305.482L1011.42 299.974L1014.59 305.482ZM1036.69 305.592L1030.08 305.592L1033.38 299.864L1036.68 305.592L1036.69 305.592ZM1058.79 305.701L1051.93 305.701L1055.37 299.755L1058.81 305.701L1058.79 305.701ZM1080.94 305.858L1073.73 305.858L1077.34 299.598L1080.96 305.858L1080.94 305.858ZM1103.13 306.045L1095.49 306.045L1099.32 299.426L1103.15 306.045L1103.13 306.045ZM1125.28 306.202L1117.29 306.202L1121.29 299.285L1125.28 306.202V306.202ZM1147.48 306.39L1139.05 306.39L1143.25 299.097L1147.46 306.39L1147.48 306.39ZM1169.7 306.609L1160.75 306.609L1165.23 298.863L1169.7 306.609ZM1191.94 306.828L1182.48 306.828L1187.2 298.628L1191.93 306.828L1191.94 306.828ZM1214.17 307.047L1204.19 307.047L1209.18 298.409L1214.17 307.047V307.047ZM1236.41 307.266L1225.91 307.266L1231.15 298.174L1236.39 307.266L1236.41 307.266ZM1258.68 307.532L1247.59 307.532L1253.15 297.924L1258.7 307.532L1258.68 307.532ZM1280.95 307.798L1269.26 307.798L1275.1 297.658L1280.95 307.798ZM1297.08 297.407L1303.23 308.064L1290.92 308.064L1297.06 297.407L1297.08 297.407ZM1319.06 297.141L1325.5 308.314L1312.6 308.314L1319.06 297.141ZM1341.03 296.922L1347.74 308.549L1334.32 308.549L1341.03 296.922V296.922ZM1363.01 296.656L1370.01 308.815L1355.98 308.815L1362.99 296.656L1363.01 296.656ZM1384.98 296.39L1392.3 309.066L1377.68 309.066L1385 296.39L1384.98 296.39ZM1406.96 296.093L1414.62 309.363L1399.31 309.363L1406.97 296.093L1406.96 296.093ZM1436.94 309.66L1420.94 309.66L1428.95 295.796L1436.96 309.66L1436.94 309.66ZM1459.21 309.926L1442.6 309.926L1450.91 295.53L1459.21 309.926V309.926ZM1481.49 310.192L1464.26 310.192L1472.87 295.279L1481.47 310.192L1481.49 310.192ZM1503.76 310.458L1485.94 310.458L1494.86 295.029L1503.77 310.458L1503.76 310.458ZM1516.82 294.794L1525.98 310.677L1507.65 310.677L1516.82 294.794ZM1538.79 294.575L1548.22 310.912L1529.38 310.912L1538.81 294.575L1538.79 294.575ZM1560.77 294.356L1570.45 311.131L1551.09 311.131L1560.77 294.356V294.356ZM1592.69 311.366L1572.81 311.366L1582.76 294.137L1592.71 311.366L1592.69 311.366ZM1614.89 311.554L1594.57 311.554L1604.73 293.949L1614.89 311.554ZM1637.08 311.741L1616.34 311.741L1626.71 293.761L1637.08 311.741ZM1648.69 293.574L1659.27 311.914L1638.1 311.914L1648.69 293.574V293.574ZM1670.66 293.417L1681.42 312.07L1659.9 312.07L1670.66 293.417ZM1692.64 293.261L1703.57 312.211L1681.7 312.211L1692.64 293.261ZM2319.08 312.399L2297.2 312.399L2297.29 312.555L2275.41 312.555L2275.51 312.712L2253.59 312.712L2253.66 312.821L2231.74 312.821L2231.81 312.931L2209.85 312.931L2209.85 312.962L2187.92 312.962L2187.92 312.993L2165.99 312.993L2165.99 313.025L1900.52 313.025L1900.52 312.993L1856.61 312.993L1856.66 312.915L1834.73 312.915L1834.75 312.884L1812.79 312.884L1812.85 312.774L1790.94 312.774L1790.99 312.696L1769.06 312.696L1769.12 312.586L1747.21 312.586L1747.27 312.477L1725.36 312.477L1725.42 312.367L1703.51 312.367L1714.61 293.12L1725.56 312.101L1736.59 293.01L1747.54 311.992L1758.56 292.901L1769.51 311.882L1780.54 292.791L1791.5 311.788L1802.51 292.713L1813.46 311.694L1824.49 292.603L1835.47 311.616L1846.46 292.556L1857.43 311.554L1868.44 292.478L1879.42 311.522L1890.41 292.478L1901.39 311.491L1912.39 292.431L1923.37 311.475L1934.36 292.431L1945.34 311.475L1956.34 292.431L1967.32 311.475L1978.31 292.431L1989.29 311.475L2000.29 292.431L2011.27 311.475L2022.27 292.431L2033.25 311.475L2044.24 292.431L2055.22 311.475L2066.22 292.431L2077.2 311.475L2088.19 292.431L2099.17 311.475L2110.17 292.431L2121.15 311.475L2132.14 292.431L2143.12 311.475L2154.12 292.431L2165.11 311.491L2176.09 292.478L2187.09 311.538L2198.07 292.525L2209.06 311.585L2220.04 292.572L2231.07 311.663L2242.03 292.682L2253.05 311.773L2263.99 292.791L2275.02 311.898L2285.97 292.932L2297 312.039L2307.94 293.073L2319.1 312.383L2319.08 312.399ZM2340.79 312.18L2319 312.18L2329.89 293.308L2340.77 312.18L2340.79 312.18ZM2351.88 293.574L2362.47 311.914L2341.29 311.914L2351.88 293.574ZM2384.15 311.663L2363.58 311.663L2373.87 293.84L2384.16 311.663L2384.15 311.663ZM2405.73 311.335L2385.93 311.335L2395.83 294.184L2405.73 311.335V311.335ZM2417.81 294.56L2427.27 310.959L2408.33 310.959L2417.79 294.56L2417.81 294.56ZM2439.81 310.537L2430.82 310.537L2439.81 294.951L2439.81 310.537ZM517.011 317.124L525.786 332.335L508.221 332.335L516.996 317.124L517.011 317.124ZM538.986 317.609L547.198 331.85L530.759 331.85L538.986 317.609ZM560.962 318.063L568.657 331.411L553.251 331.411L560.962 318.063V318.063ZM590.116 330.958L575.742 330.958L582.921 318.501L590.101 330.958L590.116 330.958ZM611.654 330.582L598.14 330.582L604.897 318.877L611.654 330.582V330.582ZM633.238 330.253L620.506 330.253L626.872 319.221L633.238 330.253V330.253ZM648.847 319.566L654.822 329.925L642.857 329.925L648.832 319.566L648.847 319.566ZM676.406 329.581L665.223 329.581L670.823 319.894L676.406 329.581V329.581ZM698.084 329.315L687.511 329.315L692.798 320.145L698.084 329.315V329.315ZM719.763 329.049L709.784 329.049L714.773 320.411L719.763 329.049ZM741.472 328.829L732.009 328.829L736.733 320.63L741.457 328.829L741.472 328.829ZM763.228 328.642L754.204 328.642L758.724 320.817L763.244 328.642L763.228 328.642ZM785.032 328.485L776.351 328.485L780.699 320.958L785.047 328.485L785.032 328.485ZM806.835 328.329L798.499 328.329L802.674 321.099L806.851 328.329L806.835 328.329ZM828.716 328.25L820.552 328.25L824.634 321.177L828.716 328.25V328.25ZM850.614 328.172L842.621 328.172L846.625 321.24L850.614 328.172V328.172ZM872.495 328.094L864.675 328.094L868.585 321.318L872.495 328.094ZM894.423 328.063L886.681 328.063L890.545 321.365L894.408 328.063L894.423 328.063ZM916.399 328.063L908.657 328.063L912.52 321.365L916.383 328.063L916.399 328.063ZM938.421 328.094L930.601 328.094L934.511 321.318L938.421 328.094ZM960.443 328.125L952.529 328.125L956.486 321.271L960.443 328.125ZM982.466 328.157L974.473 328.157L978.477 321.224L982.466 328.157V328.157ZM1004.57 328.266L996.308 328.266L1000.44 321.115L1004.57 328.266ZM1026.62 328.344L1018.19 328.344L1022.4 321.052L1026.6 328.344L1026.62 328.344ZM1048.72 328.454L1040.04 328.454L1044.39 320.927L1048.74 328.454L1048.72 328.454ZM1070.87 328.61L1061.84 328.61L1066.36 320.786L1070.88 328.61L1070.87 328.61ZM1093.01 328.767L1083.65 328.767L1088.34 320.645L1093.03 328.767L1093.01 328.767ZM1115.21 328.955L1105.4 328.955L1110.3 320.458L1115.19 328.955L1115.21 328.955ZM1137.36 329.111L1127.21 329.111L1132.27 320.317L1137.34 329.111L1137.36 329.111ZM1159.6 329.33L1148.93 329.33L1154.26 320.098L1159.6 329.33V329.33ZM1181.82 329.549L1170.64 329.549L1176.24 319.863L1181.82 329.549V329.549ZM1204.02 329.737L1192.41 329.737L1198.21 319.675L1204.02 329.737V329.737ZM1226.24 329.956L1214.11 329.956L1220.17 319.456L1226.24 329.956ZM1248.52 330.222L1235.78 330.222L1242.15 319.19L1248.52 330.222V330.222ZM1270.76 330.441L1257.51 330.441L1264.14 318.955L1270.77 330.441L1270.76 330.441ZM1286.1 318.736L1292.98 330.66L1279.22 330.66L1286.1 318.736ZM1308.08 318.47L1315.25 330.926L1300.88 330.926L1308.06 318.47L1308.08 318.47ZM1330.05 318.204L1337.54 331.177L1322.57 331.177L1330.07 318.204L1330.05 318.204ZM1352.03 317.938L1359.82 331.427L1344.24 331.427L1352.03 317.938ZM1374 317.672L1382.09 331.693L1365.92 331.693L1374 317.672V317.672ZM1395.98 317.375L1404.41 331.99L1387.53 331.99L1395.96 317.375L1395.98 317.375ZM1417.95 317.156L1426.65 332.21L1409.26 332.21L1417.95 317.156V317.156ZM1448.92 332.476L1430.93 332.476L1439.93 316.89L1448.92 332.476ZM1471.16 332.695L1452.66 332.695L1461.92 316.671L1471.18 332.695L1471.16 332.695ZM1493.4 332.914L1474.38 332.914L1483.89 316.436L1493.4 332.914V332.914ZM1515.64 333.133L1496.11 333.133L1505.88 316.201L1515.66 333.133L1515.64 333.133ZM1537.89 333.352L1517.83 333.352L1527.86 315.982L1537.89 333.352V333.352ZM1560.08 333.54L1539.59 333.54L1549.84 315.794L1560.08 333.54V333.54ZM1582.27 333.727L1561.35 333.727L1571.81 315.607L1582.27 333.727V333.727ZM1604.47 333.915L1583.12 333.915L1593.8 315.419L1604.47 333.915V333.915ZM1626.62 334.072L1604.92 334.072L1615.78 315.278L1626.62 334.072ZM2373.93 334.228L2352.11 334.228L2352.27 334.494L2330.39 334.494L2330.47 334.635L2308.6 334.635L2308.71 334.823L2286.78 334.823L2286.83 334.901L2264.9 334.901L2264.95 334.979L1779.66 334.979L1779.68 334.948L1757.72 334.948L1757.76 334.87L1735.84 334.87L1735.9 334.76L1713.99 334.76L1714.03 334.682L1692.1 334.682L1692.2 334.526L1670.3 334.526L1670.36 334.416L1648.45 334.416L1648.54 334.26L1626.66 334.26L1637.72 315.09L1648.67 334.056L1659.7 314.949L1670.64 333.931L1681.67 314.84L1692.62 333.806L1703.65 314.699L1714.61 333.696L1725.62 314.621L1736.57 333.602L1747.6 314.511L1758.56 333.508L1769.57 314.433L1780.55 333.446L1791.55 314.386L1802.53 333.43L1813.52 314.386L1824.5 333.43L1835.5 314.386L1846.48 333.43L1857.47 314.386L1868.45 333.43L1879.45 314.386L1890.43 333.43L1901.42 314.386L1912.4 333.43L1923.4 314.386L1934.38 333.43L1945.38 314.386L1956.36 333.43L1967.35 314.386L1978.33 333.43L1989.33 314.386L2000.31 333.43L2011.3 314.386L2022.28 333.43L2033.28 314.386L2044.26 333.43L2055.25 314.386L2066.23 333.43L2077.23 314.386L2088.21 333.43L2099.2 314.386L2110.18 333.43L2121.18 314.386L2132.16 333.43L2143.15 314.386L2154.13 333.43L2165.13 314.386L2176.11 333.43L2187.1 314.386L2198.08 333.43L2209.08 314.386L2220.06 333.43L2231.05 314.386L2242.03 333.43L2253.03 314.386L2264.04 333.462L2275.01 314.464L2286.02 333.54L2296.98 314.543L2308.02 333.665L2318.96 314.715L2329.98 333.821L2340.93 314.856L2351.99 334.025L2362.91 315.122L2373.93 334.213L2373.93 334.228ZM2395.61 333.962L2374.17 333.962L2384.88 315.388L2395.6 333.962L2395.61 333.962ZM2417.24 333.665L2396.5 333.665L2406.87 315.685L2417.24 333.665V333.665ZM2438.78 333.289L2418.87 333.289L2428.82 316.06L2438.76 333.289L2438.78 333.289ZM506.031 355.119L506.031 338.187L515.807 355.119L506.031 355.119ZM537.297 354.712L518.7 354.712L527.991 338.61L537.282 354.712L537.297 354.712ZM558.803 354.305L541.16 354.305L549.982 339.017L558.803 354.305V354.305ZM580.309 353.898L563.605 353.898L571.957 339.439L580.309 353.898V353.898ZM601.847 353.523L586.018 353.523L593.932 339.799L601.847 353.523ZM623.353 353.116L608.463 353.116L615.908 340.221L623.353 353.116ZM644.937 352.787L630.829 352.787L637.883 340.566L644.937 352.787ZM666.568 352.49L653.149 352.49L659.858 340.863L666.568 352.49ZM688.247 352.224L675.421 352.224L681.834 341.113L688.247 352.224V352.224ZM709.925 351.958L697.709 351.958L703.825 341.379L709.925 351.958V351.958ZM731.634 351.739L719.935 351.739L725.784 341.599L731.634 351.739ZM753.344 351.52L742.16 351.52L747.76 341.833L753.344 351.52V351.52ZM775.147 351.363L764.308 351.363L769.719 341.974L775.131 351.363L775.147 351.363ZM796.95 351.207L786.455 351.207L791.695 342.115L796.934 351.207L796.95 351.207ZM818.8 351.097L808.571 351.097L813.686 342.225L818.8 351.097ZM840.65 350.988L830.672 350.988L835.661 342.35L840.65 350.988ZM862.532 350.909L852.725 350.909L857.621 342.412L862.516 350.909L862.532 350.909ZM884.46 350.878L874.747 350.878L879.612 342.459L884.476 350.878L884.46 350.878ZM906.436 350.878L896.723 350.878L901.587 342.459L906.451 350.878L906.436 350.878ZM928.411 350.878L918.698 350.878L923.562 342.459L928.427 350.878L928.411 350.878ZM950.433 350.909L940.626 350.909L945.522 342.412L950.418 350.909L950.433 350.909ZM972.455 350.941L962.57 350.941L967.513 342.381L972.455 350.941V350.941ZM994.509 351.019L984.452 351.019L989.488 342.303L994.525 351.019L994.509 351.019ZM1016.61 351.128L1006.29 351.128L1011.45 342.193L1016.61 351.128V351.128ZM1038.66 351.207L1028.17 351.207L1033.41 342.115L1038.65 351.207L1038.66 351.207ZM1060.81 351.363L1049.97 351.363L1055.38 341.974L1060.79 351.363L1060.81 351.363ZM1082.96 351.52L1071.77 351.52L1077.37 341.833L1082.96 351.52V351.52ZM1105.1 351.676L1093.58 351.676L1099.35 341.692L1105.1 351.676ZM1127.3 351.864L1115.35 351.864L1121.32 341.505L1127.3 351.864V351.864ZM1149.45 352.02L1137.14 352.02L1143.28 341.364L1149.43 352.02L1149.45 352.02ZM1171.69 352.24L1158.86 352.24L1165.28 341.129L1171.69 352.24ZM1193.88 352.427L1180.63 352.427L1187.27 340.941L1193.9 352.427L1193.88 352.427ZM1216.12 352.646L1202.36 352.646L1209.24 340.722L1216.12 352.646ZM1238.32 352.834L1224.12 352.834L1231.22 340.535L1238.32 352.834V352.834ZM1260.59 353.1L1245.79 353.1L1253.19 340.284L1260.59 353.1ZM1282.83 353.319L1267.52 353.319L1275.18 340.049L1282.85 353.319L1282.83 353.319ZM1305.1 353.585L1289.18 353.585L1297.14 339.799L1305.1 353.585V353.585ZM1327.38 353.851L1310.86 353.851L1319.12 339.533L1327.38 353.851ZM1349.65 354.117L1332.52 354.117L1341.09 339.283L1349.65 354.117ZM1371.89 354.336L1354.25 354.336L1363.07 339.048L1371.89 354.336ZM1394.13 354.556L1375.97 354.556L1385.06 338.829L1394.15 354.556L1394.13 354.556ZM1416.37 354.775L1397.7 354.775L1407.03 338.594L1416.37 354.775ZM1438.61 354.994L1419.42 354.994L1429.03 338.359L1438.63 354.994L1438.61 354.994ZM1460.85 355.213L1441.15 355.213L1451 338.14L1460.85 355.213V355.213ZM1483.08 355.432L1462.86 355.432L1472.98 337.906L1483.1 355.432L1483.08 355.432ZM1505.27 355.62L1484.61 355.62L1494.95 337.718L1505.27 355.62ZM1527.47 355.807L1506.37 355.807L1516.91 337.53L1527.45 355.807L1527.47 355.807ZM1549.66 355.995L1528.14 355.995L1538.9 337.342L1549.66 355.995ZM2407.08 356.324L2385.23 356.324L2385.35 356.543L2363.49 356.543L2363.59 356.731L2341.71 356.731L2341.81 356.887L2319.88 356.887L2319.93 356.965L2186.29 356.965L2186.31 356.934L2142.37 356.934L2142.39 356.903L2120.43 356.903L2120.44 356.872L2076.51 356.872L2076.52 356.84L1990.11 356.84L1990.12 356.872L1946.19 356.872L1946.2 356.903L1924.24 356.903L1924.24 356.934L1880.34 356.934L1880.34 356.965L1702.77 356.965L1702.77 356.934L1680.84 356.934L1680.89 356.856L1658.96 356.856L1659.02 356.746L1637.11 356.746L1637.17 356.637L1615.26 356.637L1615.35 356.48L1593.47 356.48L1593.57 356.324L1571.69 356.324L1571.78 356.167L1549.9 356.167L1560.88 337.154L1571.83 356.12L1582.85 337.014L1593.8 355.98L1604.83 336.873L1615.78 355.839L1626.8 336.732L1637.75 355.714L1648.78 336.622L1659.73 355.604L1670.75 336.513L1681.72 355.51L1692.73 336.435L1703.71 355.448L1714.71 336.388L1725.68 355.432L1736.68 336.388L1747.66 355.432L1758.66 336.388L1769.64 355.432L1780.63 336.388L1791.61 355.432L1802.61 336.388L1813.59 355.432L1824.58 336.388L1835.56 355.432L1846.56 336.388L1857.54 355.432L1868.53 336.388L1879.53 355.448L1890.51 336.435L1901.49 355.463L1912.48 336.435L1923.48 355.494L1934.46 336.482L1945.45 355.541L1956.43 336.529L1967.41 355.557L1978.41 336.529L1989.4 355.588L2000.38 336.576L2011.36 355.62L2022.36 336.576L2033.34 355.62L2044.33 336.576L2055.31 355.62L2066.31 336.576L2077.29 355.588L2088.29 336.529L2099.27 355.557L2110.26 336.529L2121.24 355.541L2132.24 336.482L2143.22 355.494L2154.21 336.435L2165.19 355.463L2176.19 336.435L2187.17 355.448L2198.16 336.388L2209.14 355.432L2220.14 336.388L2231.12 355.432L2242.11 336.388L2253.09 355.432L2264.09 336.388L2275.07 355.432L2286.06 336.388L2297.04 355.432L2308.04 336.388L2319.05 355.463L2330.01 336.466L2341.04 355.573L2351.99 336.607L2363.03 355.745L2373.96 336.795L2385.02 355.948L2395.94 337.029L2407.09 356.34L2407.08 356.324ZM2428.71 356.027L2407.09 356.027L2417.9 337.311L2428.71 356.027V356.027ZM2439.87 355.698L2429.4 355.698L2439.81 337.687L2439.81 355.729L2439.87 355.698ZM527.318 377.527L506.829 377.527L517.074 359.782L527.318 377.527ZM548.856 377.152L529.227 377.152L539.049 360.142L548.856 377.152ZM570.393 376.776L551.624 376.776L561.009 360.518L570.393 376.776V376.776ZM591.93 376.401L574.022 376.401L582.968 360.893L591.915 376.401L591.93 376.401ZM613.515 376.072L596.388 376.072L604.959 361.237L613.515 376.072ZM635.099 375.743L618.739 375.743L626.919 361.582L635.099 375.743ZM656.683 375.415L641.105 375.415L648.894 361.926L656.683 375.415ZM678.315 375.117L663.425 375.117L670.87 362.223L678.315 375.117ZM699.993 374.851L685.713 374.851L692.861 362.474L700.008 374.851L699.993 374.851ZM721.702 374.632L707.938 374.632L714.82 362.708L721.702 374.632V374.632ZM736.795 362.927L743.427 374.413L730.179 374.413L736.811 362.927L736.795 362.927ZM758.771 363.084L765.231 374.257L752.327 374.257L758.787 363.084L758.771 363.084ZM780.746 363.24L787.018 374.116L774.459 374.116L780.746 363.24ZM802.721 363.35L808.868 374.006L796.559 374.006L802.706 363.35L802.721 363.35ZM824.697 363.459L830.719 373.897L818.675 373.897L824.697 363.459V363.459ZM852.6 373.819L840.729 373.819L846.672 363.538L852.6 373.819V373.819ZM874.481 373.74L862.782 373.74L868.632 363.6L874.481 373.74ZM896.457 373.74L884.757 373.74L890.607 363.6L896.457 373.74ZM918.432 373.74L906.733 373.74L912.582 363.6L918.432 373.74ZM940.407 373.74L928.708 373.74L934.558 363.6L940.407 373.74ZM962.43 373.772L950.652 373.772L956.549 363.569L962.445 373.772L962.43 373.772ZM984.483 373.85L972.534 373.85L978.508 363.491L984.483 373.85V373.85ZM1000.48 363.413L1006.55 373.913L994.415 373.913L1000.48 363.413ZM1022.46 363.334L1028.61 373.991L1016.3 373.991L1022.44 363.334L1022.46 363.334ZM1044.43 363.225L1050.71 374.1L1038.15 374.1L1044.43 363.225ZM1066.41 363.068L1072.85 374.241L1059.95 374.241L1066.41 363.068ZM1088.38 362.959L1094.97 374.366L1081.8 374.366L1088.38 362.959V362.959ZM1110.36 362.802L1117.12 374.507L1103.6 374.507L1110.36 362.802V362.802ZM1132.34 362.614L1139.31 374.695L1125.38 374.695L1132.35 362.614L1132.34 362.614ZM1161.49 374.883L1147.12 374.883L1154.3 362.427L1161.47 374.883L1161.49 374.883ZM1183.68 375.071L1168.89 375.071L1176.29 362.255L1183.68 375.071ZM1205.93 375.29L1190.61 375.29L1198.28 362.02L1205.94 375.29L1205.93 375.29ZM1228.17 375.509L1212.34 375.509L1220.25 361.785L1228.17 375.509V375.509ZM1250.41 375.728L1234.05 375.728L1242.23 361.566L1250.41 375.728ZM1272.65 375.947L1255.77 375.947L1264.2 361.331L1272.63 375.947L1272.65 375.947ZM1294.89 376.166L1277.5 376.166L1286.19 361.112L1294.89 376.166V376.166ZM1317.12 376.385L1299.21 376.385L1308.15 360.877L1317.1 376.385L1317.12 376.385ZM1339.36 376.604L1320.93 376.604L1330.14 360.643L1339.36 376.604ZM1361.6 376.823L1342.66 376.823L1352.12 360.424L1361.58 376.823L1361.6 376.823ZM1383.79 377.011L1364.43 377.011L1374.11 360.236L1383.79 377.011V377.011ZM1406.02 377.23L1386.14 377.23L1396.09 360.001L1406.03 377.23L1406.02 377.23ZM1428.26 377.449L1407.86 377.449L1418.06 359.782L1428.26 377.449ZM1450.45 377.637L1429.62 377.637L1440.04 359.594L1450.45 377.637V377.637ZM1472.65 377.825L1451.39 377.825L1462.03 359.407L1472.66 377.825L1472.65 377.825ZM1494.84 378.013L1473.15 378.013L1484 359.219L1494.84 378.013ZM2439.97 378.357L2418.17 378.357L2418.34 378.654L2396.47 378.654L2396.58 378.842L2374.67 378.842L2374.73 378.952L2352.77 378.952L2352.77 378.983L2263.1 378.983L2263.1 378.952L2241.17 378.952L2241.22 378.873L2219.29 378.873L2219.34 378.795L2197.41 378.795L2197.46 378.717L2175.53 378.717L2175.58 378.639L2153.65 378.639L2153.7 378.56L2131.77 378.56L2131.78 378.529L2109.82 378.529L2109.84 378.498L2087.88 378.498L2087.89 378.466L2043.96 378.466L2043.98 378.435L2022.53 378.435L2022.53 378.466L2000.6 378.466L2000.6 378.498L1956.7 378.498L1956.7 378.529L1934.79 378.529L1934.83 378.607L1912.87 378.607L1912.87 378.639L1890.96 378.639L1891.01 378.717L1869.08 378.717L1869.13 378.795L1847.17 378.795L1847.17 378.826L1825.25 378.826L1825.3 378.905L1803.34 378.905L1803.34 378.936L1781.41 378.936L1781.41 378.967L1625.82 378.967L1625.87 378.889L1603.94 378.889L1603.98 378.811L1582.06 378.811L1582.15 378.654L1560.27 378.654L1560.33 378.545L1538.42 378.545L1538.53 378.357L1516.66 378.357L1516.76 378.2L1494.87 378.2L1505.9 359.109L1516.85 378.075L1527.88 358.968L1538.81 377.919L1549.85 358.796L1560.8 377.778L1571.83 358.687L1582.77 377.653L1593.8 358.546L1604.77 377.543L1615.78 358.468L1626.74 377.465L1637.75 358.389L1648.73 377.434L1659.73 358.389L1670.71 377.434L1681.7 358.389L1692.68 377.434L1703.68 358.389L1714.66 377.434L1725.65 358.389L1736.63 377.434L1747.63 358.389L1758.61 377.434L1769.6 358.389L1780.6 377.449L1791.58 358.436L1802.58 377.496L1813.55 358.483L1824.57 377.559L1835.53 358.562L1846.53 377.621L1857.51 358.609L1868.52 377.684L1879.48 358.687L1890.49 377.762L1901.46 358.765L1912.45 377.825L1923.43 358.812L1934.44 377.887L1945.41 358.89L1956.4 377.95L1967.38 358.937L1978.36 377.981L1989.36 358.937L2000.35 377.997L2011.33 358.984L2022.33 378.044L2033.31 359.031L2044.29 378.044L2055.28 358.984L2066.26 378.013L2077.26 358.984L2088.24 377.997L2099.23 358.937L2110.21 377.95L2121.21 358.89L2132.19 377.903L2143.18 358.843L2154.15 377.84L2165.16 358.765L2176.12 377.762L2187.14 358.687L2198.1 377.684L2209.11 358.609L2220.07 377.606L2231.09 358.53L2242.05 377.528L2253.06 358.452L2264.04 377.465L2275.04 358.405L2286.02 377.449L2297.01 358.405L2307.99 377.449L2318.99 358.405L2329.97 377.449L2340.96 358.405L2351.96 377.465L2362.94 358.452L2373.95 377.543L2384.9 358.562L2395.94 377.684L2406.87 358.734L2417.95 377.919L2428.85 359.031L2440 378.341L2439.97 378.357ZM506.016 381.142L517.027 400.233L506 400.233L506 381.142L506.016 381.142ZM527.991 381.439L538.658 399.936L517.308 399.936L527.991 381.439V381.439ZM549.966 381.768L560.258 399.592L539.69 399.592L549.982 381.768L549.966 381.768ZM571.942 382.097L581.842 399.247L562.041 399.247L571.942 382.097V382.097ZM593.917 382.425L603.427 398.903L584.407 398.903L593.917 382.425V382.425ZM615.892 382.723L625.058 398.606L606.727 398.606L615.892 382.723V382.723ZM637.867 383.02L646.689 398.308L629.046 398.308L637.867 383.02V383.02ZM659.843 383.286L668.367 398.042L651.319 398.042L659.843 383.286V383.286ZM681.818 383.552L690.03 397.792L673.591 397.792L681.818 383.552V383.552ZM703.793 383.818L711.708 397.542L695.879 397.542L703.793 383.818ZM725.769 384.037L733.433 397.307L718.12 397.307L725.784 384.037L725.769 384.037ZM747.744 384.225L755.189 397.119L740.299 397.119L747.744 384.225V384.225ZM769.719 384.381L776.992 396.978L762.446 396.978L769.719 384.381V384.381ZM791.695 384.538L798.796 396.838L784.594 396.838L791.695 384.538V384.538ZM813.67 384.647L820.646 396.728L806.71 396.728L813.686 384.647L813.67 384.647ZM835.645 384.726L842.527 396.65L828.763 396.65L835.645 384.726V384.726ZM857.621 384.804L864.424 396.587L850.833 396.587L857.636 384.804L857.621 384.804ZM879.596 384.835L886.353 396.54L872.839 396.54L879.596 384.835V384.835ZM901.571 384.835L908.328 396.54L894.814 396.54L901.571 384.835V384.835ZM923.547 384.835L930.303 396.54L916.79 396.54L923.547 384.835V384.835ZM945.522 384.804L952.326 396.587L938.734 396.587L945.538 384.804L945.522 384.804ZM967.497 384.773L974.332 396.619L960.647 396.619L967.482 384.773L967.497 384.773ZM989.473 384.694L996.401 396.697L982.544 396.697L989.473 384.694V384.694ZM1011.45 384.616L1018.46 396.775L1004.43 396.775L1011.43 384.616L1011.45 384.616ZM1033.42 384.507L1040.57 396.885L1026.29 396.885L1033.44 384.507L1033.42 384.507ZM1055.4 384.397L1062.67 396.994L1048.13 396.994L1055.4 384.397ZM1077.37 384.288L1084.77 397.104L1069.98 397.104L1077.37 384.288ZM1099.35 384.131L1106.92 397.26L1091.78 397.26L1099.35 384.131V384.131ZM1121.32 383.943L1129.11 397.432L1113.54 397.432L1121.32 383.943V383.943ZM1143.3 383.755L1151.31 397.62L1135.31 397.62L1143.32 383.755L1143.3 383.755ZM1165.28 383.568L1173.49 397.808L1157.05 397.808L1165.28 383.568ZM1187.25 383.38L1195.68 397.996L1178.8 397.996L1187.23 383.38L1187.25 383.38ZM1209.23 383.161L1217.92 398.23L1200.53 398.23L1209.23 383.161V383.161ZM1231.2 382.973L1240.1 398.402L1222.29 398.402L1231.2 382.973V382.973ZM1253.18 382.785L1262.29 398.59L1244.04 398.59L1253.16 382.785L1253.18 382.785ZM1275.15 382.598L1284.49 398.778L1265.81 398.778L1275.15 382.598ZM1297.13 382.378L1306.73 399.013L1287.54 399.013L1297.14 382.378L1297.13 382.378ZM1319.1 382.191L1328.91 399.201L1309.28 399.201L1319.1 382.191V382.191ZM1341.08 382.003L1351.1 399.373L1331.05 399.373L1341.08 382.003V382.003ZM1363.05 381.784L1373.34 399.607L1352.78 399.607L1363.07 381.784L1363.05 381.784ZM1385.03 381.596L1395.52 399.795L1374.52 399.795L1385.03 381.596V381.596ZM1407 381.44L1417.67 399.936L1396.32 399.936L1407 381.44V381.44ZM1439.86 400.124L1418.08 400.124L1428.96 381.252L1439.85 400.124L1439.86 400.124ZM1923.4 400.202L1901.47 400.202L1901.52 400.28L1879.59 400.28L1879.64 400.359L1857.71 400.359L1857.76 400.437L1835.84 400.437L1835.91 400.546L1813.98 400.546L1814.02 400.625L1792.1 400.625L1792.14 400.703L1770.23 400.703L1770.29 400.812L1748.36 400.812L1748.41 400.891L1726.48 400.891L1726.53 400.969L1704.57 400.969L1704.57 401L1570.95 401L1570.95 400.969L1549.02 400.969L1549.07 400.891L1527.14 400.891L1527.2 400.781L1505.29 400.781L1505.38 400.625L1483.5 400.625L1483.6 400.468L1461.72 400.468L1461.81 400.312L1439.93 400.312L1451.03 381.064L1461.98 400.03L1473.01 380.923L1483.96 399.889L1494.98 380.782L1505.93 399.748L1516.96 380.641L1527.91 399.623L1538.93 380.532L1549.9 399.529L1560.91 380.454L1571.89 399.467L1582.88 380.407L1593.86 399.451L1604.86 380.407L1615.84 399.451L1626.83 380.407L1637.81 399.451L1648.81 380.407L1659.79 399.451L1670.79 380.407L1681.77 399.451L1692.76 380.407L1703.76 399.467L1714.74 380.454L1725.75 399.529L1736.71 380.532L1747.72 399.607L1758.69 380.61L1769.71 399.701L1780.68 380.72L1791.69 399.795L1802.65 380.798L1813.66 399.873L1824.63 380.876L1835.64 399.967L1846.6 380.986L1857.61 400.061L1868.58 381.064L1879.59 400.139L1890.55 381.142L1901.57 400.218L1912.53 381.221L1923.51 400.233L1923.4 400.202ZM1934.4 381.252L1945.28 400.124L1923.49 400.124L1934.38 381.252L1934.4 381.252ZM1956.37 381.33L1967.18 400.046L1945.56 400.046L1956.37 381.33V381.33ZM1978.35 381.361L1989.11 400.014L1967.59 400.014L1978.35 381.361ZM2000.32 381.361L2011.08 400.014L1989.56 400.014L2000.32 381.361ZM2022.3 381.393L2033.01 399.967L2011.57 399.967L2022.28 381.393L2022.3 381.393ZM2044.27 381.393L2054.99 399.967L2033.54 399.967L2044.26 381.393L2044.27 381.393ZM2066.25 381.361L2077.01 400.014L2055.49 400.014L2066.25 381.361ZM2088.22 381.361L2098.98 400.014L2077.46 400.014L2088.22 381.361ZM2110.2 381.33L2121.01 400.046L2099.39 400.046L2110.2 381.33V381.33ZM2132.17 381.299L2143.01 400.093L2121.32 400.093L2132.17 381.299V381.299ZM2165.08 400.171L2143.22 400.171L2154.15 381.221L2165.08 400.171V400.171ZM2439.81 400.64L2439.81 400.969L2318.06 400.969L2318.11 400.891L2296.18 400.891L2296.23 400.812L2274.3 400.812L2274.4 400.656L2252.51 400.656L2252.58 400.546L2230.66 400.546L2230.73 400.437L2208.81 400.437L2208.88 400.327L2186.96 400.327L2187.01 400.249L2165.08 400.249L2176.14 381.08L2187.1 400.077L2198.12 381.001L2209.06 399.983L2220.09 380.892L2231.04 399.873L2242.07 380.782L2253.01 399.764L2264.04 380.673L2274.99 399.639L2286.02 380.532L2296.98 399.529L2307.99 380.454L2318.96 399.451L2329.97 380.376L2340.95 399.42L2351.94 380.376L2362.92 399.42L2373.92 380.376L2384.9 399.42L2395.89 380.376L2406.92 399.467L2417.88 380.485L2428.94 399.639L2439.81 380.72L2439.81 400.64Z" fill="url(#paint1_linear_252_1306)"/>
</g>
<defs>
<linearGradient id="paint0_linear_252_1306" x1="1.11934e-05" y1="183.047" x2="2000" y2="182.905" gradientUnits="userSpaceOnUse">
<stop stop-color="#271734"/>
<stop offset="1" stop-color="#6B1C96"/>
</linearGradient>
<linearGradient id="paint1_linear_252_1306" x1="1516.5" y1="158" x2="712.5" y2="405" gradientUnits="userSpaceOnUse">
<stop stop-color="white"/>
<stop offset="1" stop-color="white" stop-opacity="0"/>
</linearGradient>
<clipPath id="clip0_252_1306">
<rect width="2000" height="400" fill="white"/>
</clipPath>
</defs>
</svg>
