<svg width="2000" height="400" viewBox="0 0 2000 400" fill="none" xmlns="http://www.w3.org/2000/svg">
<g clip-path="url(#clip0_239_1307)">
<rect width="2000" height="400" fill="white"/>
<rect width="2000" height="400" fill="url(#paint0_linear_239_1307)"/>
<path d="M857.997 -123.197L841.143 -94.0035M857.997 -123.197L874.852 -94.0035M857.997 -123.197H891.706M857.997 -123.197H824.288L841.143 -94.0035M841.143 -94.0035H874.852M874.852 -94.0035L891.706 -123.197M874.852 -94.0035H908.561M874.852 -94.0035L857.991 -64.8098M874.852 -94.0035L891.706 -64.8098M874.852 -94.0035H841.136M891.706 -123.197L908.561 -94.0035M891.706 -123.197H925.415M908.561 -94.0035L925.415 -123.197M908.561 -94.0035H942.27M908.561 -94.0035L891.706 -64.8098M908.561 -94.0035L925.415 -64.8098M925.415 -123.197L942.27 -94.0035M925.415 -123.197H959.124M942.27 -94.0035L959.124 -123.197M942.27 -94.0035H975.979M942.27 -94.0035L925.415 -64.8098M942.27 -94.0035L959.124 -64.8098M959.124 -123.197L975.979 -94.0035M959.124 -123.197H992.833M975.979 -94.0035L992.833 -123.197M975.979 -94.0035H1009.69M975.979 -94.0035L959.124 -64.8098M975.979 -94.0035L992.833 -64.8098M975.979 -94.0035H1009.69M992.833 -123.197L1009.69 -94.0035M992.833 -123.197H1026.55M1009.69 -94.0035L1026.55 -123.197M1009.69 -94.0035H1043.4M1026.55 -123.197L1043.4 -94.0035M1026.55 -123.197H1060.26M1043.4 -94.0035L1060.26 -123.197M1043.4 -94.0035H1077.11M1060.26 -123.197L1077.11 -94.0035M1060.26 -123.197H1093.97M1077.11 -94.0035L1093.97 -123.197M1077.11 -94.0035H1110.82M1093.97 -123.197L1110.82 -94.0035M1093.97 -123.197H1127.68M1110.82 -94.0035L1127.68 -123.197M1110.82 -94.0035H1144.53M1110.82 -94.0035L1093.96 -64.8098M1110.82 -94.0035L1127.68 -64.8098M1110.82 -94.0035H1077.11M1127.68 -123.197L1144.53 -94.0035M1127.68 -123.197H1161.38M1144.53 -94.0035L1161.38 -123.197M1144.53 -94.0035H1178.24M1144.53 -94.0035L1127.68 -64.8098M1144.53 -94.0035L1161.38 -64.8098M1161.38 -123.197L1178.24 -94.0035M1161.38 -123.197H1195.09M1178.24 -94.0035L1195.09 -123.197M1178.24 -94.0035H1211.95M1178.24 -94.0035L1161.38 -64.8098M1178.24 -94.0035L1195.09 -64.8098M1195.09 -123.197L1211.95 -94.0035M1195.09 -123.197H1228.81M1211.95 -94.0035L1228.81 -123.197M1211.95 -94.0035H1245.66M1211.95 -94.0035L1195.09 -64.8098M1211.95 -94.0035L1228.8 -64.8098M1211.95 -94.0035H1245.66M1228.81 -123.197L1245.66 -94.0035M1228.81 -123.197H1262.52M1245.66 -94.0035L1262.52 -123.197M1245.66 -94.0035H1279.37M1262.52 -123.197L1279.37 -94.0035M1262.52 -123.197H1296.23M1279.37 -94.0035L1296.23 -123.197M1279.37 -94.0035H1313.08M1296.23 -123.197L1313.08 -94.0035M1296.23 -123.197H1329.94M1313.08 -94.0035L1329.94 -123.197M1313.08 -94.0035H1346.79M1329.94 -123.197L1346.79 -94.0035M1329.94 -123.197H1363.64M1346.79 -94.0035L1363.64 -123.197M1346.79 -94.0035H1380.5M1346.79 -94.0035L1329.94 -64.8098M1346.79 -94.0035L1363.64 -64.8098M1346.79 -94.0035H1313.07M1363.64 -123.197L1380.5 -94.0035M1363.64 -123.197H1397.35M1380.5 -94.0035L1397.35 -123.197M1380.5 -94.0035H1414.21M1380.5 -94.0035L1363.64 -64.8098M1380.5 -94.0035L1397.35 -64.8098M1397.35 -123.197L1414.21 -94.0035M1397.35 -123.197H1431.06M1414.21 -94.0035L1431.06 -123.197M1414.21 -94.0035H1447.92M1414.21 -94.0035L1397.35 -64.8098M1414.21 -94.0035L1431.06 -64.8098M1431.06 -123.197L1447.92 -94.0035M1431.06 -123.197H1464.78M1447.92 -94.0035L1464.78 -123.197M1447.92 -94.0035H1481.63M1447.92 -94.0035L1431.06 -64.8098M1447.92 -94.0035L1464.77 -64.8098M1447.92 -94.0035H1481.63M1464.78 -123.197L1481.63 -94.0035M1464.78 -123.197H1498.49M1481.63 -94.0035L1498.49 -123.197M1481.63 -94.0035H1515.34M1498.49 -123.197L1515.34 -94.0035M1498.49 -123.197H1532.2M1515.34 -94.0035L1532.2 -123.197M1515.34 -94.0035H1549.05M1532.2 -123.197L1549.05 -94.0035M1532.2 -123.197H1565.91M1549.05 -94.0035L1565.91 -123.197M1549.05 -94.0035H1582.76M1549.05 -94.0035L1532.19 -64.8098M1549.05 -94.0035L1565.91 -64.8098M1549.05 -94.0035H1515.34M1565.91 -123.197L1582.76 -94.0035M1565.91 -123.197H1599.61M1582.76 -94.0035L1599.61 -123.197M1582.76 -94.0035H1616.47M1582.76 -94.0035L1565.91 -64.8098M1582.76 -94.0035L1599.61 -64.8098M1599.61 -123.197L1616.47 -94.0035M1599.61 -123.197H1633.32M1616.47 -94.0035L1633.32 -123.197M1616.47 -94.0035H1650.18M1616.47 -94.0035L1599.61 -64.8098M1616.47 -94.0035L1633.32 -64.8098M1633.32 -123.197L1650.18 -94.0035M1633.32 -123.197H1667.03M1650.18 -94.0035L1667.03 -123.197M1650.18 -94.0035H1683.89M1650.18 -94.0035L1633.32 -64.8098M1650.18 -94.0035L1667.03 -64.8098M1650.18 -94.0035H1683.89M1667.03 -123.197L1683.89 -94.0035M1667.03 -123.197H1700.75M1683.89 -94.0035L1700.75 -123.197M1683.89 -94.0035H1717.6M1700.75 -123.197L1717.6 -94.0035M1700.75 -123.197H1734.46M1717.6 -94.0035L1734.46 -123.197M1717.6 -94.0035H1751.31M1734.46 -123.197L1751.31 -94.0035M1734.46 -123.197H1768.17M1751.31 -94.0035L1768.17 -123.197M1751.31 -94.0035H1785.02M1768.17 -123.197L1785.02 -94.0035M1768.17 -123.197H1801.87M1785.02 -94.0035L1801.87 -123.197M1785.02 -94.0035H1818.73M1785.02 -94.0035L1768.17 -64.8098M1785.02 -94.0035L1801.87 -64.8098M1785.02 -94.0035H1751.3M1801.87 -123.197L1818.73 -94.0035M1801.87 -123.197H1835.58M1818.73 -94.0035L1835.58 -123.197M1818.73 -94.0035H1852.44M1818.73 -94.0035L1801.87 -64.8098M1818.73 -94.0035L1835.58 -64.8098M1835.58 -123.197L1852.44 -94.0035M1835.58 -123.197H1869.29M1852.44 -94.0035L1869.29 -123.197M1852.44 -94.0035H1886.15M1852.44 -94.0035L1835.58 -64.8098M1852.44 -94.0035L1869.29 -64.8098M1869.29 -123.197L1886.15 -94.0035M1869.29 -123.197H1903.01M1886.15 -94.0035L1903.01 -123.197M1886.15 -94.0035H1919.86M1886.15 -94.0035L1869.29 -64.8098M1886.15 -94.0035L1903 -64.8098M1886.15 -94.0035H1919.86M1903.01 -123.197L1919.86 -94.0035M1903.01 -123.197H1936.72M1919.86 -94.0035L1936.72 -123.197M1919.86 -94.0035H1953.57M1936.72 -123.197L1953.57 -94.0035M1936.72 -123.197H1970.43M1953.57 -94.0035L1970.43 -123.197M1953.57 -94.0035H1987.28M1970.43 -123.197L1987.28 -94.0035M1970.43 -123.197H2004.13M1987.28 -94.0035L2004.13 -123.197M1987.28 -94.0035H2020.99M1987.28 -94.0035L1970.42 -64.8098M1987.28 -94.0035L2004.13 -64.8098M1987.28 -94.0035H1953.56M2004.13 -123.197L2020.99 -94.0035M2004.13 -123.197H2037.84M2020.99 -94.0035L2037.84 -123.197M2020.99 -94.0035H2054.7M2020.99 -94.0035L2004.13 -64.8098M2020.99 -94.0035L2037.84 -64.8098M2037.84 -123.197L2054.7 -94.0035M2037.84 -123.197H2071.55M2054.7 -94.0035L2071.55 -123.197M2054.7 -94.0035H2088.41M2054.7 -94.0035L2037.84 -64.8098M2054.7 -94.0035L2071.55 -64.8098M2071.55 -123.197L2088.41 -94.0035M2071.55 -123.197H2105.26L2088.41 -94.0035M2088.41 -94.0035L2071.55 -64.8098M2088.41 -94.0035L2105.26 -64.8098M841.136 -94.0035L824.282 -64.8098H857.991M841.136 -94.0035L857.991 -64.8098M857.991 -64.8098H891.706M891.706 -64.8098H925.415M891.706 -64.8098L874.852 -35.6161M891.706 -64.8098L908.561 -35.6161M891.706 -64.8098H857.997M925.415 -64.8098H959.124M925.415 -64.8098L908.561 -35.6161M925.415 -64.8098L942.27 -35.6161M959.124 -64.8098H992.833M959.124 -64.8098L942.27 -35.6161M959.124 -64.8098L975.979 -35.6161M992.833 -64.8098L1009.69 -94.0035M992.833 -64.8098H1026.54M992.833 -64.8098L975.979 -35.6161M992.833 -64.8098L1009.69 -35.6161M992.833 -64.8098H1026.55M1009.69 -94.0035L1026.54 -64.8098M1009.69 -94.0035H1043.4M1026.54 -64.8098L1043.4 -94.0035M1026.54 -64.8098H1060.25M1043.4 -94.0035L1060.25 -64.8098M1043.4 -94.0035H1077.11M1060.25 -64.8098L1077.11 -94.0035M1060.25 -64.8098H1093.96M1077.11 -94.0035L1093.96 -64.8098M1093.96 -64.8098H1127.68M1127.68 -64.8098H1161.38M1127.68 -64.8098L1110.82 -35.6161M1127.68 -64.8098L1144.53 -35.6161M1127.68 -64.8098H1093.97M1161.38 -64.8098H1195.09M1161.38 -64.8098L1144.53 -35.6161M1161.38 -64.8098L1178.24 -35.6161M1195.09 -64.8098H1228.8M1195.09 -64.8098L1178.24 -35.6161M1195.09 -64.8098L1211.95 -35.6161M1195.09 -64.8098H1228.81M1228.8 -64.8098L1245.66 -94.0035M1228.8 -64.8098H1262.51M1245.66 -94.0035L1262.51 -64.8098M1245.66 -94.0035H1279.37M1262.51 -64.8098L1279.37 -94.0035M1262.51 -64.8098H1296.22M1279.37 -94.0035L1296.22 -64.8098M1279.37 -94.0035H1313.07M1296.22 -64.8098L1313.07 -94.0035M1296.22 -64.8098H1329.94M1313.07 -94.0035L1329.94 -64.8098M1329.94 -64.8098H1363.64M1329.94 -64.8098L1313.08 -35.6161M1329.94 -64.8098L1346.79 -35.6161M1329.94 -64.8098H1296.23M1363.64 -64.8098H1397.35M1363.64 -64.8098L1346.79 -35.6161M1363.64 -64.8098L1380.5 -35.6161M1397.35 -64.8098H1431.06M1397.35 -64.8098L1380.5 -35.6161M1397.35 -64.8098L1414.21 -35.6161M1431.06 -64.8098H1464.77M1431.06 -64.8098L1414.21 -35.6161M1431.06 -64.8098L1447.92 -35.6161M1431.06 -64.8098H1464.78M1464.77 -64.8098L1481.63 -94.0035M1464.77 -64.8098H1498.48M1481.63 -94.0035L1498.48 -64.8098M1481.63 -94.0035H1515.34M1498.48 -64.8098L1515.34 -94.0035M1498.48 -64.8098H1532.19M1515.34 -94.0035L1532.19 -64.8098M1532.19 -64.8098H1565.91M1565.91 -64.8098H1599.61M1565.91 -64.8098L1549.05 -35.6161M1565.91 -64.8098L1582.76 -35.6161M1565.91 -64.8098H1532.2M1599.61 -64.8098H1633.32M1599.61 -64.8098L1582.76 -35.6161M1599.61 -64.8098L1616.47 -35.6161M1633.32 -64.8098H1667.03M1633.32 -64.8098L1616.47 -35.6161M1633.32 -64.8098L1650.18 -35.6161M1667.03 -64.8098L1683.89 -94.0035M1667.03 -64.8098H1700.74M1667.03 -64.8098L1650.18 -35.6161M1667.03 -64.8098L1683.89 -35.6161M1667.03 -64.8098H1700.75M1683.89 -94.0035L1700.74 -64.8098M1683.89 -94.0035H1717.6M1700.74 -64.8098L1717.6 -94.0035M1700.74 -64.8098H1734.45M1717.6 -94.0035L1734.45 -64.8098M1717.6 -94.0035H1751.3M1734.45 -64.8098L1751.3 -94.0035M1734.45 -64.8098H1768.17M1751.3 -94.0035L1768.17 -64.8098M1768.17 -64.8098H1801.87M1768.17 -64.8098L1751.31 -35.6161M1768.17 -64.8098L1785.02 -35.6161M1768.17 -64.8098H1734.46M1801.87 -64.8098H1835.58M1801.87 -64.8098L1785.02 -35.6161M1801.87 -64.8098L1818.73 -35.6161M1835.58 -64.8098H1869.29M1835.58 -64.8098L1818.73 -35.6161M1835.58 -64.8098L1852.44 -35.6161M1869.29 -64.8098H1903M1869.29 -64.8098L1852.44 -35.6161M1869.29 -64.8098L1886.15 -35.6161M1869.29 -64.8098H1903.01M1903 -64.8098L1919.86 -94.0035M1903 -64.8098H1936.71M1919.86 -94.0035L1936.71 -64.8098M1919.86 -94.0035H1953.56M1936.71 -64.8098L1953.56 -94.0035M1936.71 -64.8098H1970.42M1953.56 -94.0035L1970.42 -64.8098M1970.42 -64.8098H2004.13M2004.13 -64.8098H2037.84M2004.13 -64.8098L1987.28 -35.6161M2004.13 -64.8098L2020.99 -35.6161M2004.13 -64.8098H1970.43M2037.84 -64.8098H2071.55M2037.84 -64.8098L2020.99 -35.6161M2037.84 -64.8098L2054.7 -35.6161M2071.55 -64.8098H2105.26M2071.55 -64.8098L2054.7 -35.6161M2071.55 -64.8098L2088.41 -35.6161M2105.26 -64.8098L2088.41 -35.6161M857.997 -64.8098L841.143 -35.6161M857.997 -64.8098L874.852 -35.6161M857.997 -64.8098H824.288L841.143 -35.6161M841.143 -35.6161H874.852M874.852 -35.6161H908.561M874.852 -35.6161L857.991 -6.42241M874.852 -35.6161L891.706 -6.42241M874.852 -35.6161H841.136M908.561 -35.6161H942.27M908.561 -35.6161L891.706 -6.42241M908.561 -35.6161L925.415 -6.42241M942.27 -35.6161H975.979M942.27 -35.6161L925.415 -6.42241M942.27 -35.6161L959.124 -6.42241M975.979 -35.6161H1009.69M975.979 -35.6161L959.124 -6.42241M975.979 -35.6161L992.833 -6.42241M975.979 -35.6161H1009.69M1009.69 -35.6161L1026.55 -64.8098M1009.69 -35.6161H1043.4M1026.55 -64.8098L1043.4 -35.6161M1026.55 -64.8098H1060.26M1043.4 -35.6161L1060.26 -64.8098M1043.4 -35.6161H1077.11M1060.26 -64.8098L1077.11 -35.6161M1060.26 -64.8098H1093.97M1077.11 -35.6161L1093.97 -64.8098M1077.11 -35.6161H1110.82M1093.97 -64.8098L1110.82 -35.6161M1110.82 -35.6161H1144.53M1110.82 -35.6161L1093.96 -6.42241M1110.82 -35.6161L1127.68 -6.42241M1110.82 -35.6161H1077.11M1144.53 -35.6161H1178.24M1144.53 -35.6161L1127.68 -6.42241M1144.53 -35.6161L1161.38 -6.42241M1178.24 -35.6161H1211.95M1178.24 -35.6161L1161.38 -6.42241M1178.24 -35.6161L1195.09 -6.42241M1211.95 -35.6161L1228.81 -64.8098M1211.95 -35.6161H1245.66M1211.95 -35.6161L1195.09 -6.42241M1211.95 -35.6161L1228.8 -6.42241M1211.95 -35.6161H1245.66M1228.81 -64.8098L1245.66 -35.6161M1228.81 -64.8098H1262.52M1245.66 -35.6161L1262.52 -64.8098M1245.66 -35.6161H1279.37M1262.52 -64.8098L1279.37 -35.6161M1262.52 -64.8098H1296.23M1279.37 -35.6161L1296.23 -64.8098M1279.37 -35.6161H1313.08M1296.23 -64.8098L1313.08 -35.6161M1313.08 -35.6161H1346.79M1346.79 -35.6161H1380.5M1346.79 -35.6161L1329.94 -6.42241M1346.79 -35.6161L1363.64 -6.42241M1346.79 -35.6161H1313.07M1380.5 -35.6161H1414.21M1380.5 -35.6161L1363.64 -6.42241M1380.5 -35.6161L1397.35 -6.42241M1414.21 -35.6161H1447.92M1414.21 -35.6161L1397.35 -6.42241M1414.21 -35.6161L1431.06 -6.42241M1447.92 -35.6161L1464.78 -64.8098M1447.92 -35.6161H1481.63M1447.92 -35.6161L1431.06 -6.42241M1447.92 -35.6161L1464.77 -6.42241M1447.92 -35.6161H1481.63M1464.78 -64.8098L1481.63 -35.6161M1464.78 -64.8098H1498.49M1481.63 -35.6161L1498.49 -64.8098M1481.63 -35.6161H1515.34M1498.49 -64.8098L1515.34 -35.6161M1498.49 -64.8098H1532.2M1515.34 -35.6161L1532.2 -64.8098M1515.34 -35.6161H1549.05M1532.2 -64.8098L1549.05 -35.6161M1549.05 -35.6161H1582.76M1549.05 -35.6161L1532.19 -6.42241M1549.05 -35.6161L1565.91 -6.42241M1549.05 -35.6161H1515.34M1582.76 -35.6161H1616.47M1582.76 -35.6161L1565.91 -6.42241M1582.76 -35.6161L1599.61 -6.42241M1616.47 -35.6161H1650.18M1616.47 -35.6161L1599.61 -6.42241M1616.47 -35.6161L1633.32 -6.42241M1650.18 -35.6161H1683.89M1650.18 -35.6161L1633.32 -6.42241M1650.18 -35.6161L1667.03 -6.42241M1650.18 -35.6161H1683.89M1683.89 -35.6161L1700.75 -64.8098M1683.89 -35.6161H1717.6M1700.75 -64.8098L1717.6 -35.6161M1700.75 -64.8098H1734.46M1717.6 -35.6161L1734.46 -64.8098M1717.6 -35.6161H1751.31M1734.46 -64.8098L1751.31 -35.6161M1751.31 -35.6161H1785.02M1785.02 -35.6161H1818.73M1785.02 -35.6161L1768.17 -6.42241M1785.02 -35.6161L1801.87 -6.42241M1785.02 -35.6161H1751.3M1818.73 -35.6161H1852.44M1818.73 -35.6161L1801.87 -6.42241M1818.73 -35.6161L1835.58 -6.42241M1852.44 -35.6161H1886.15M1852.44 -35.6161L1835.58 -6.42241M1852.44 -35.6161L1869.29 -6.42241M1886.15 -35.6161L1903.01 -64.8098M1886.15 -35.6161H1919.86M1886.15 -35.6161L1869.29 -6.42241M1886.15 -35.6161L1903 -6.42241M1886.15 -35.6161H1919.86M1903.01 -64.8098L1919.86 -35.6161M1903.01 -64.8098H1936.72M1919.86 -35.6161L1936.72 -64.8098M1919.86 -35.6161H1953.57M1936.72 -64.8098L1953.57 -35.6161M1936.72 -64.8098H1970.43M1953.57 -35.6161L1970.43 -64.8098M1953.57 -35.6161H1987.28M1970.43 -64.8098L1987.28 -35.6161M1987.28 -35.6161H2020.99M1987.28 -35.6161L1970.42 -6.42241M1987.28 -35.6161L2004.13 -6.42241M1987.28 -35.6161H1953.56M2020.99 -35.6161H2054.7M2020.99 -35.6161L2004.13 -6.42241M2020.99 -35.6161L2037.84 -6.42241M2054.7 -35.6161H2088.41M2054.7 -35.6161L2037.84 -6.42241M2054.7 -35.6161L2071.55 -6.42241M2088.41 -35.6161L2071.55 -6.42241M2088.41 -35.6161L2105.26 -6.42241M841.136 -35.6161L824.282 -6.42241H857.991M841.136 -35.6161L857.991 -6.42241M857.991 -6.42241H891.706M891.706 -6.42241H925.415M891.706 -6.42241L874.852 22.7713M891.706 -6.42241L908.561 22.7713M891.706 -6.42241H857.997M925.415 -6.42241H959.124M925.415 -6.42241L908.561 22.7713M925.415 -6.42241L942.27 22.7713M959.124 -6.42241H992.833M959.124 -6.42241L942.27 22.7713M959.124 -6.42241L975.979 22.7713M992.833 -6.42241L1009.69 -35.6161M992.833 -6.42241H1026.54M992.833 -6.42241L975.979 22.7713M992.833 -6.42241L1009.69 22.7713M992.833 -6.42241H1026.55M1009.69 -35.6161L1026.54 -6.42241M1009.69 -35.6161H1043.4M1026.54 -6.42241L1043.4 -35.6161M1026.54 -6.42241H1060.25M1043.4 -35.6161L1060.25 -6.42241M1043.4 -35.6161H1077.11M1060.25 -6.42241L1077.11 -35.6161M1060.25 -6.42241H1093.96M1077.11 -35.6161L1093.96 -6.42241M1093.96 -6.42241H1127.68M1127.68 -6.42241H1161.38M1127.68 -6.42241L1110.82 22.7713M1127.68 -6.42241L1144.53 22.7713M1127.68 -6.42241H1093.97M1161.38 -6.42241H1195.09M1161.38 -6.42241L1144.53 22.7713M1161.38 -6.42241L1178.24 22.7713M1195.09 -6.42241H1228.8M1195.09 -6.42241L1178.24 22.7713M1195.09 -6.42241L1211.95 22.7713M1195.09 -6.42241H1228.81M1228.8 -6.42241L1245.66 -35.6161M1228.8 -6.42241H1262.51M1245.66 -35.6161L1262.51 -6.42241M1245.66 -35.6161H1279.37M1262.51 -6.42241L1279.37 -35.6161M1262.51 -6.42241H1296.22M1279.37 -35.6161L1296.22 -6.42241M1279.37 -35.6161H1313.07M1296.22 -6.42241L1313.07 -35.6161M1296.22 -6.42241H1329.94M1313.07 -35.6161L1329.94 -6.42241M1329.94 -6.42241H1363.64M1329.94 -6.42241L1313.08 22.7713M1329.94 -6.42241L1346.79 22.7713M1329.94 -6.42241H1296.23M1363.64 -6.42241H1397.35M1363.64 -6.42241L1346.79 22.7713M1363.64 -6.42241L1380.5 22.7713M1397.35 -6.42241H1431.06M1397.35 -6.42241L1380.5 22.7713M1397.35 -6.42241L1414.21 22.7713M1431.06 -6.42241H1464.77M1431.06 -6.42241L1414.21 22.7713M1431.06 -6.42241L1447.92 22.7713M1431.06 -6.42241H1464.78M1464.77 -6.42241L1481.63 -35.6161M1464.77 -6.42241H1498.48M1481.63 -35.6161L1498.48 -6.42241M1481.63 -35.6161H1515.34M1498.48 -6.42241L1515.34 -35.6161M1498.48 -6.42241H1532.19M1515.34 -35.6161L1532.19 -6.42241M1532.19 -6.42241H1565.91M1565.91 -6.42241H1599.61M1565.91 -6.42241L1549.05 22.7713M1565.91 -6.42241L1582.76 22.7713M1565.91 -6.42241H1532.2M1599.61 -6.42241H1633.32M1599.61 -6.42241L1582.76 22.7713M1599.61 -6.42241L1616.47 22.7713M1633.32 -6.42241H1667.03M1633.32 -6.42241L1616.47 22.7713M1633.32 -6.42241L1650.18 22.7713M1667.03 -6.42241L1683.89 -35.6161M1667.03 -6.42241H1700.74M1667.03 -6.42241L1650.18 22.7713M1667.03 -6.42241L1683.89 22.7713M1667.03 -6.42241H1700.75M1683.89 -35.6161L1700.74 -6.42241M1683.89 -35.6161H1717.6M1700.74 -6.42241L1717.6 -35.6161M1700.74 -6.42241H1734.45M1717.6 -35.6161L1734.45 -6.42241M1717.6 -35.6161H1751.3M1734.45 -6.42241L1751.3 -35.6161M1734.45 -6.42241H1768.17M1751.3 -35.6161L1768.17 -6.42241M1768.17 -6.42241H1801.87M1768.17 -6.42241L1751.31 22.7713M1768.17 -6.42241L1785.02 22.7713M1768.17 -6.42241H1734.46M1801.87 -6.42241H1835.58M1801.87 -6.42241L1785.02 22.7713M1801.87 -6.42241L1818.73 22.7713M1835.58 -6.42241H1869.29M1835.58 -6.42241L1818.73 22.7713M1835.58 -6.42241L1852.44 22.7713M1869.29 -6.42241H1903M1869.29 -6.42241L1852.44 22.7713M1869.29 -6.42241L1886.15 22.7713M1869.29 -6.42241H1903.01M1903 -6.42241L1919.86 -35.6161M1903 -6.42241H1936.71M1919.86 -35.6161L1936.71 -6.42241M1919.86 -35.6161H1953.56M1936.71 -6.42241L1953.56 -35.6161M1936.71 -6.42241H1970.42M1953.56 -35.6161L1970.42 -6.42241M1970.42 -6.42241H2004.13M2004.13 -6.42241H2037.84M2004.13 -6.42241L1987.28 22.7713M2004.13 -6.42241L2020.99 22.7713M2004.13 -6.42241H1970.43M2037.84 -6.42241H2071.55M2037.84 -6.42241L2020.99 22.7713M2037.84 -6.42241L2054.7 22.7713M2071.55 -6.42241H2105.26M2071.55 -6.42241L2054.7 22.7713M2071.55 -6.42241L2088.41 22.7713M2105.26 -6.42241L2088.41 22.7713M857.997 -6.42241L841.143 22.7713M857.997 -6.42241L874.852 22.7713M857.997 -6.42241H824.288L841.143 22.7713M841.143 22.7713H874.852M874.852 22.7713H908.561M874.852 22.7713L857.991 51.965M874.852 22.7713L891.706 51.965M874.852 22.7713H841.136M908.561 22.7713H942.27M908.561 22.7713L891.706 51.965M908.561 22.7713L925.415 51.965M942.27 22.7713H975.979M942.27 22.7713L925.415 51.965M942.27 22.7713L959.124 51.965M975.979 22.7713H1009.69M975.979 22.7713L959.124 51.965M975.979 22.7713L992.833 51.965M975.979 22.7713H1009.69M1009.69 22.7713L1026.55 -6.42241M1009.69 22.7713H1043.4M1026.55 -6.42241L1043.4 22.7713M1026.55 -6.42241H1060.26M1043.4 22.7713L1060.26 -6.42241M1043.4 22.7713H1077.11M1060.26 -6.42241L1077.11 22.7713M1060.26 -6.42241H1093.97M1077.11 22.7713L1093.97 -6.42241M1077.11 22.7713H1110.82M1093.97 -6.42241L1110.82 22.7713M1110.82 22.7713H1144.53M1110.82 22.7713L1093.96 51.965M1110.82 22.7713L1127.68 51.965M1110.82 22.7713H1077.11M1144.53 22.7713H1178.24M1144.53 22.7713L1127.68 51.965M1144.53 22.7713L1161.38 51.965M1178.24 22.7713H1211.95M1178.24 22.7713L1161.38 51.965M1178.24 22.7713L1195.09 51.965M1211.95 22.7713L1228.81 -6.42241M1211.95 22.7713H1245.66M1211.95 22.7713L1195.09 51.965M1211.95 22.7713L1228.8 51.965M1211.95 22.7713H1245.66M1228.81 -6.42241L1245.66 22.7713M1228.81 -6.42241H1262.52M1245.66 22.7713L1262.52 -6.42241M1245.66 22.7713H1279.37M1262.52 -6.42241L1279.37 22.7713M1262.52 -6.42241H1296.23M1279.37 22.7713L1296.23 -6.42241M1279.37 22.7713H1313.08M1296.23 -6.42241L1313.08 22.7713M1313.08 22.7713H1346.79M1346.79 22.7713H1380.5M1346.79 22.7713L1329.94 51.965M1346.79 22.7713L1363.64 51.965M1346.79 22.7713H1313.07M1380.5 22.7713H1414.21M1380.5 22.7713L1363.64 51.965M1380.5 22.7713L1397.35 51.965M1414.21 22.7713H1447.92M1414.21 22.7713L1397.35 51.965M1414.21 22.7713L1431.06 51.965M1447.92 22.7713L1464.78 -6.42241M1447.92 22.7713H1481.63M1447.92 22.7713L1431.06 51.965M1447.92 22.7713L1464.77 51.965M1447.92 22.7713H1481.63M1464.78 -6.42241L1481.63 22.7713M1464.78 -6.42241H1498.49M1481.63 22.7713L1498.49 -6.42241M1481.63 22.7713H1515.34M1498.49 -6.42241L1515.34 22.7713M1498.49 -6.42241H1532.2M1515.34 22.7713L1532.2 -6.42241M1515.34 22.7713H1549.05M1532.2 -6.42241L1549.05 22.7713M1549.05 22.7713H1582.76M1549.05 22.7713L1532.19 51.965M1549.05 22.7713L1565.91 51.965M1549.05 22.7713H1515.34M1582.76 22.7713H1616.47M1582.76 22.7713L1565.91 51.965M1582.76 22.7713L1599.61 51.965M1616.47 22.7713H1650.18M1616.47 22.7713L1599.61 51.965M1616.47 22.7713L1633.32 51.965M1650.18 22.7713H1683.89M1650.18 22.7713L1633.32 51.965M1650.18 22.7713L1667.03 51.965M1650.18 22.7713H1683.89M1683.89 22.7713L1700.75 -6.42241M1683.89 22.7713H1717.6M1700.75 -6.42241L1717.6 22.7713M1700.75 -6.42241H1734.46M1717.6 22.7713L1734.46 -6.42241M1717.6 22.7713H1751.31M1734.46 -6.42241L1751.31 22.7713M1751.31 22.7713H1785.02M1785.02 22.7713H1818.73M1785.02 22.7713L1768.17 51.965M1785.02 22.7713L1801.87 51.965M1785.02 22.7713H1751.3M1818.73 22.7713H1852.44M1818.73 22.7713L1801.87 51.965M1818.73 22.7713L1835.58 51.965M1852.44 22.7713H1886.15M1852.44 22.7713L1835.58 51.965M1852.44 22.7713L1869.29 51.965M1886.15 22.7713L1903.01 -6.42241M1886.15 22.7713H1919.86M1886.15 22.7713L1869.29 51.965M1886.15 22.7713L1903 51.965M1886.15 22.7713H1919.86M1903.01 -6.42241L1919.86 22.7713M1903.01 -6.42241H1936.72M1919.86 22.7713L1936.72 -6.42241M1919.86 22.7713H1953.57M1936.72 -6.42241L1953.57 22.7713M1936.72 -6.42241H1970.43M1953.57 22.7713L1970.43 -6.42241M1953.57 22.7713H1987.28M1970.43 -6.42241L1987.28 22.7713M1987.28 22.7713H2020.99M1987.28 22.7713L1970.42 51.965M1987.28 22.7713L2004.13 51.965M1987.28 22.7713H1953.56M2020.99 22.7713H2054.7M2020.99 22.7713L2004.13 51.965M2020.99 22.7713L2037.84 51.965M2054.7 22.7713H2088.41M2054.7 22.7713L2037.84 51.965M2054.7 22.7713L2071.55 51.965M2088.41 22.7713L2071.55 51.965M2088.41 22.7713L2105.26 51.965M841.136 22.7713L824.282 51.965H857.991M841.136 22.7713L857.991 51.965M857.991 51.965H891.706M891.706 51.965H925.415M891.706 51.965L874.852 81.1587M891.706 51.965L908.561 81.1587M891.706 51.965H857.997M925.415 51.965H959.124M925.415 51.965L908.561 81.1587M925.415 51.965L942.27 81.1587M959.124 51.965H992.833M959.124 51.965L942.27 81.1587M959.124 51.965L975.979 81.1587M992.833 51.965L1009.69 22.7713M992.833 51.965H1026.54M992.833 51.965L975.979 81.1587M992.833 51.965L1009.69 81.1587M992.833 51.965H1026.55M1009.69 22.7713L1026.54 51.965M1009.69 22.7713H1043.4M1026.54 51.965L1043.4 22.7713M1026.54 51.965H1060.25M1043.4 22.7713L1060.25 51.965M1043.4 22.7713H1077.11M1060.25 51.965L1077.11 22.7713M1060.25 51.965H1093.96M1077.11 22.7713L1093.96 51.965M1093.96 51.965H1127.68M1127.68 51.965H1161.38M1127.68 51.965L1110.82 81.1587M1127.68 51.965L1144.53 81.1587M1127.68 51.965H1093.97M1161.38 51.965H1195.09M1161.38 51.965L1144.53 81.1587M1161.38 51.965L1178.24 81.1587M1195.09 51.965H1228.8M1195.09 51.965L1178.24 81.1587M1195.09 51.965L1211.95 81.1587M1195.09 51.965H1228.81M1228.8 51.965L1245.66 22.7713M1228.8 51.965H1262.51M1245.66 22.7713L1262.51 51.965M1245.66 22.7713H1279.37M1262.51 51.965L1279.37 22.7713M1262.51 51.965H1296.22M1279.37 22.7713L1296.22 51.965M1279.37 22.7713H1313.07M1296.22 51.965L1313.07 22.7713M1296.22 51.965H1329.94M1313.07 22.7713L1329.94 51.965M1329.94 51.965H1363.64M1329.94 51.965L1313.08 81.1587M1329.94 51.965L1346.79 81.1587M1329.94 51.965H1296.23M1363.64 51.965H1397.35M1363.64 51.965L1346.79 81.1587M1363.64 51.965L1380.5 81.1587M1397.35 51.965H1431.06M1397.35 51.965L1380.5 81.1587M1397.35 51.965L1414.21 81.1587M1431.06 51.965H1464.77M1431.06 51.965L1414.21 81.1587M1431.06 51.965L1447.92 81.1587M1431.06 51.965H1464.78M1464.77 51.965L1481.63 22.7713M1464.77 51.965H1498.48M1481.63 22.7713L1498.48 51.965M1481.63 22.7713H1515.34M1498.48 51.965L1515.34 22.7713M1498.48 51.965H1532.19M1515.34 22.7713L1532.19 51.965M1532.19 51.965H1565.91M1565.91 51.965H1599.61M1565.91 51.965L1549.05 81.1587M1565.91 51.965L1582.76 81.1587M1565.91 51.965H1532.2M1599.61 51.965H1633.32M1599.61 51.965L1582.76 81.1587M1599.61 51.965L1616.47 81.1587M1633.32 51.965H1667.03M1633.32 51.965L1616.47 81.1587M1633.32 51.965L1650.18 81.1587M1667.03 51.965L1683.89 22.7713M1667.03 51.965H1700.74M1667.03 51.965L1650.18 81.1587M1667.03 51.965L1683.89 81.1587M1667.03 51.965H1700.75M1683.89 22.7713L1700.74 51.965M1683.89 22.7713H1717.6M1700.74 51.965L1717.6 22.7713M1700.74 51.965H1734.45M1717.6 22.7713L1734.45 51.965M1717.6 22.7713H1751.3M1734.45 51.965L1751.3 22.7713M1734.45 51.965H1768.17M1751.3 22.7713L1768.17 51.965M1768.17 51.965H1801.87M1768.17 51.965L1751.31 81.1587M1768.17 51.965L1785.02 81.1587M1768.17 51.965H1734.46M1801.87 51.965H1835.58M1801.87 51.965L1785.02 81.1587M1801.87 51.965L1818.73 81.1587M1835.58 51.965H1869.29M1835.58 51.965L1818.73 81.1587M1835.58 51.965L1852.44 81.1587M1869.29 51.965H1903M1869.29 51.965L1852.44 81.1587M1869.29 51.965L1886.15 81.1587M1869.29 51.965H1903.01M1903 51.965L1919.86 22.7713M1903 51.965H1936.71M1919.86 22.7713L1936.71 51.965M1919.86 22.7713H1953.56M1936.71 51.965L1953.56 22.7713M1936.71 51.965H1970.42M1953.56 22.7713L1970.42 51.965M1970.42 51.965H2004.13M2004.13 51.965H2037.84M2004.13 51.965L1987.28 81.1587M2004.13 51.965L2020.99 81.1587M2004.13 51.965H1970.43M2037.84 51.965H2071.55M2037.84 51.965L2020.99 81.1587M2037.84 51.965L2054.7 81.1587M2071.55 51.965H2105.26M2071.55 51.965L2054.7 81.1587M2071.55 51.965L2088.41 81.1587M2105.26 51.965L2088.41 81.1587M857.997 51.965L841.143 81.1587M857.997 51.965L874.852 81.1587M857.997 51.965H824.288L841.143 81.1587M841.143 81.1587H874.852M874.852 81.1587H908.561M874.852 81.1587L857.991 110.352M874.852 81.1587L891.706 110.352M874.852 81.1587H841.136M908.561 81.1587H942.27M908.561 81.1587L891.706 110.352M908.561 81.1587L925.415 110.352M942.27 81.1587H975.979M942.27 81.1587L925.415 110.352M942.27 81.1587L959.124 110.352M975.979 81.1587H1009.69M975.979 81.1587L959.124 110.352M975.979 81.1587L992.833 110.352M975.979 81.1587H1009.69M1009.69 81.1587L1026.55 51.965M1009.69 81.1587H1043.4M1026.55 51.965L1043.4 81.1587M1026.55 51.965H1060.26M1043.4 81.1587L1060.26 51.965M1043.4 81.1587H1077.11M1060.26 51.965L1077.11 81.1587M1060.26 51.965H1093.97M1077.11 81.1587L1093.97 51.965M1077.11 81.1587H1110.82M1093.97 51.965L1110.82 81.1587M1110.82 81.1587H1144.53M1110.82 81.1587L1093.96 110.352M1110.82 81.1587L1127.68 110.352M1110.82 81.1587H1077.11M1144.53 81.1587H1178.24M1144.53 81.1587L1127.68 110.352M1144.53 81.1587L1161.38 110.352M1178.24 81.1587H1211.95M1178.24 81.1587L1161.38 110.352M1178.24 81.1587L1195.09 110.352M1211.95 81.1587L1228.81 51.965M1211.95 81.1587H1245.66M1211.95 81.1587L1195.09 110.352M1211.95 81.1587L1228.8 110.352M1211.95 81.1587H1245.66M1228.81 51.965L1245.66 81.1587M1228.81 51.965H1262.52M1245.66 81.1587L1262.52 51.965M1245.66 81.1587H1279.37M1262.52 51.965L1279.37 81.1587M1262.52 51.965H1296.23M1279.37 81.1587L1296.23 51.965M1279.37 81.1587H1313.08M1296.23 51.965L1313.08 81.1587M1313.08 81.1587H1346.79M1346.79 81.1587H1380.5M1346.79 81.1587L1329.94 110.352M1346.79 81.1587L1363.64 110.352M1346.79 81.1587H1313.07M1380.5 81.1587H1414.21M1380.5 81.1587L1363.64 110.352M1380.5 81.1587L1397.35 110.352M1414.21 81.1587H1447.92M1414.21 81.1587L1397.35 110.352M1414.21 81.1587L1431.06 110.352M1447.92 81.1587L1464.78 51.965M1447.92 81.1587H1481.63M1447.92 81.1587L1431.06 110.352M1447.92 81.1587L1464.77 110.352M1447.92 81.1587H1481.63M1464.78 51.965L1481.63 81.1587M1464.78 51.965H1498.49M1481.63 81.1587L1498.49 51.965M1481.63 81.1587H1515.34M1498.49 51.965L1515.34 81.1587M1498.49 51.965H1532.2M1515.34 81.1587L1532.2 51.965M1515.34 81.1587H1549.05M1532.2 51.965L1549.05 81.1587M1549.05 81.1587H1582.76M1549.05 81.1587L1532.19 110.352M1549.05 81.1587L1565.91 110.352M1549.05 81.1587H1515.34M1582.76 81.1587H1616.47M1582.76 81.1587L1565.91 110.352M1582.76 81.1587L1599.61 110.352M1616.47 81.1587H1650.18M1616.47 81.1587L1599.61 110.352M1616.47 81.1587L1633.32 110.352M1650.18 81.1587H1683.89M1650.18 81.1587L1633.32 110.352M1650.18 81.1587L1667.03 110.352M1650.18 81.1587H1683.89M1683.89 81.1587L1700.75 51.965M1683.89 81.1587H1717.6M1700.75 51.965L1717.6 81.1587M1700.75 51.965H1734.46M1717.6 81.1587L1734.46 51.965M1717.6 81.1587H1751.31M1734.46 51.965L1751.31 81.1587M1751.31 81.1587H1785.02M1785.02 81.1587H1818.73M1785.02 81.1587L1768.17 110.352M1785.02 81.1587L1801.87 110.352M1785.02 81.1587H1751.3M1818.73 81.1587H1852.44M1818.73 81.1587L1801.87 110.352M1818.73 81.1587L1835.58 110.352M1852.44 81.1587H1886.15M1852.44 81.1587L1835.58 110.352M1852.44 81.1587L1869.29 110.352M1886.15 81.1587L1903.01 51.965M1886.15 81.1587H1919.86M1886.15 81.1587L1869.29 110.352M1886.15 81.1587L1903 110.352M1886.15 81.1587H1919.86M1903.01 51.965L1919.86 81.1587M1903.01 51.965H1936.72M1919.86 81.1587L1936.72 51.965M1919.86 81.1587H1953.57M1936.72 51.965L1953.57 81.1587M1936.72 51.965H1970.43M1953.57 81.1587L1970.43 51.965M1953.57 81.1587H1987.28M1970.43 51.965L1987.28 81.1587M1987.28 81.1587H2020.99M1987.28 81.1587L1970.42 110.352M1987.28 81.1587L2004.13 110.352M1987.28 81.1587H1953.56M2020.99 81.1587H2054.7M2020.99 81.1587L2004.13 110.352M2020.99 81.1587L2037.84 110.352M2054.7 81.1587H2088.41M2054.7 81.1587L2037.84 110.352M2054.7 81.1587L2071.55 110.352M2088.41 81.1587L2071.55 110.352M2088.41 81.1587L2105.26 110.352M841.136 81.1587L824.282 110.352H857.991M841.136 81.1587L857.991 110.352M857.991 110.352H891.706M891.706 110.352H925.415M891.706 110.352L874.852 139.546M891.706 110.352L908.561 139.546M891.706 110.352H857.997M925.415 110.352H959.124M925.415 110.352L908.561 139.546M925.415 110.352L942.27 139.546M959.124 110.352H992.833M959.124 110.352L942.27 139.546M959.124 110.352L975.979 139.546M992.833 110.352L1009.69 81.1587M992.833 110.352H1026.54M992.833 110.352L975.979 139.546M992.833 110.352L1009.69 139.546M992.833 110.352H1026.55M1009.69 81.1587L1026.54 110.352M1009.69 81.1587H1043.4M1026.54 110.352L1043.4 81.1587M1026.54 110.352H1060.25M1043.4 81.1587L1060.25 110.352M1043.4 81.1587H1077.11M1060.25 110.352L1077.11 81.1587M1060.25 110.352H1093.96M1077.11 81.1587L1093.96 110.352M1093.96 110.352H1127.68M1127.68 110.352H1161.38M1127.68 110.352L1110.82 139.546M1127.68 110.352L1144.53 139.546M1127.68 110.352H1093.97M1161.38 110.352H1195.09M1161.38 110.352L1144.53 139.546M1161.38 110.352L1178.24 139.546M1195.09 110.352H1228.8M1195.09 110.352L1178.24 139.546M1195.09 110.352L1211.95 139.546M1195.09 110.352H1228.81M1228.8 110.352L1245.66 81.1587M1228.8 110.352H1262.51M1245.66 81.1587L1262.51 110.352M1245.66 81.1587H1279.37M1262.51 110.352L1279.37 81.1587M1262.51 110.352H1296.22M1279.37 81.1587L1296.22 110.352M1279.37 81.1587H1313.07M1296.22 110.352L1313.07 81.1587M1296.22 110.352H1329.94M1313.07 81.1587L1329.94 110.352M1329.94 110.352H1363.64M1329.94 110.352L1313.08 139.546M1329.94 110.352L1346.79 139.546M1329.94 110.352H1296.23M1363.64 110.352H1397.35M1363.64 110.352L1346.79 139.546M1363.64 110.352L1380.5 139.546M1397.35 110.352H1431.06M1397.35 110.352L1380.5 139.546M1397.35 110.352L1414.21 139.546M1431.06 110.352H1464.77M1431.06 110.352L1414.21 139.546M1431.06 110.352L1447.92 139.546M1431.06 110.352H1464.78M1464.77 110.352L1481.63 81.1587M1464.77 110.352H1498.48M1481.63 81.1587L1498.48 110.352M1481.63 81.1587H1515.34M1498.48 110.352L1515.34 81.1587M1498.48 110.352H1532.19M1515.34 81.1587L1532.19 110.352M1532.19 110.352H1565.91M1565.91 110.352H1599.61M1565.91 110.352L1549.05 139.546M1565.91 110.352L1582.76 139.546M1565.91 110.352H1532.2M1599.61 110.352H1633.32M1599.61 110.352L1582.76 139.546M1599.61 110.352L1616.47 139.546M1633.32 110.352H1667.03M1633.32 110.352L1616.47 139.546M1633.32 110.352L1650.18 139.546M1667.03 110.352L1683.89 81.1587M1667.03 110.352H1700.74M1667.03 110.352L1650.18 139.546M1667.03 110.352L1683.89 139.546M1667.03 110.352H1700.75M1683.89 81.1587L1700.74 110.352M1683.89 81.1587H1717.6M1700.74 110.352L1717.6 81.1587M1700.74 110.352H1734.45M1717.6 81.1587L1734.45 110.352M1717.6 81.1587H1751.3M1734.45 110.352L1751.3 81.1587M1734.45 110.352H1768.17M1751.3 81.1587L1768.17 110.352M1768.17 110.352H1801.87M1768.17 110.352L1751.31 139.546M1768.17 110.352L1785.02 139.546M1768.17 110.352H1734.46M1801.87 110.352H1835.58M1801.87 110.352L1785.02 139.546M1801.87 110.352L1818.73 139.546M1835.58 110.352H1869.29M1835.58 110.352L1818.73 139.546M1835.58 110.352L1852.44 139.546M1869.29 110.352H1903M1869.29 110.352L1852.44 139.546M1869.29 110.352L1886.15 139.546M1869.29 110.352H1903.01M1903 110.352L1919.86 81.1587M1903 110.352H1936.71M1919.86 81.1587L1936.71 110.352M1919.86 81.1587H1953.56M1936.71 110.352L1953.56 81.1587M1936.71 110.352H1970.42M1953.56 81.1587L1970.42 110.352M1970.42 110.352H2004.13M2004.13 110.352H2037.84M2004.13 110.352L1987.28 139.546M2004.13 110.352L2020.99 139.546M2004.13 110.352H1970.43M2037.84 110.352H2071.55M2037.84 110.352L2020.99 139.546M2037.84 110.352L2054.7 139.546M2071.55 110.352H2105.26M2071.55 110.352L2054.7 139.546M2071.55 110.352L2088.41 139.546M2105.26 110.352L2088.41 139.546M857.997 110.352L841.143 139.546M857.997 110.352L874.852 139.546M857.997 110.352H824.288L841.143 139.546M841.143 139.546H874.852M874.852 139.546H908.561M874.852 139.546L857.991 168.74M874.852 139.546L891.706 168.74M874.852 139.546H841.136M908.561 139.546H942.27M908.561 139.546L891.706 168.74M908.561 139.546L925.415 168.74M942.27 139.546H975.979M942.27 139.546L925.415 168.74M942.27 139.546L959.124 168.74M975.979 139.546H1009.69M975.979 139.546L959.124 168.74M975.979 139.546L992.833 168.74M975.979 139.546H1009.69M1009.69 139.546L1026.55 110.352M1009.69 139.546H1043.4M1026.55 110.352L1043.4 139.546M1026.55 110.352H1060.26M1043.4 139.546L1060.26 110.352M1043.4 139.546H1077.11M1060.26 110.352L1077.11 139.546M1060.26 110.352H1093.97M1077.11 139.546L1093.97 110.352M1077.11 139.546H1110.82M1093.97 110.352L1110.82 139.546M1110.82 139.546H1144.53M1110.82 139.546L1093.96 168.74M1110.82 139.546L1127.68 168.74M1110.82 139.546H1077.11M1144.53 139.546H1178.24M1144.53 139.546L1127.68 168.74M1144.53 139.546L1161.38 168.74M1178.24 139.546H1211.95M1178.24 139.546L1161.38 168.74M1178.24 139.546L1195.09 168.74M1211.95 139.546L1228.81 110.352M1211.95 139.546H1245.66M1211.95 139.546L1195.09 168.74M1211.95 139.546L1228.8 168.74M1211.95 139.546H1245.66M1228.81 110.352L1245.66 139.546M1228.81 110.352H1262.52M1245.66 139.546L1262.52 110.352M1245.66 139.546H1279.37M1262.52 110.352L1279.37 139.546M1262.52 110.352H1296.23M1279.37 139.546L1296.23 110.352M1279.37 139.546H1313.08M1296.23 110.352L1313.08 139.546M1313.08 139.546H1346.79M1346.79 139.546H1380.5M1346.79 139.546L1329.94 168.74M1346.79 139.546L1363.64 168.74M1346.79 139.546H1313.07M1380.5 139.546H1414.21M1380.5 139.546L1363.64 168.74M1380.5 139.546L1397.35 168.74M1414.21 139.546H1447.92M1414.21 139.546L1397.35 168.74M1414.21 139.546L1431.06 168.74M1447.92 139.546L1464.78 110.352M1447.92 139.546H1481.63M1447.92 139.546L1431.06 168.74M1447.92 139.546L1464.77 168.74M1447.92 139.546H1481.63M1464.78 110.352L1481.63 139.546M1464.78 110.352H1498.49M1481.63 139.546L1498.49 110.352M1481.63 139.546H1515.34M1498.49 110.352L1515.34 139.546M1498.49 110.352H1532.2M1515.34 139.546L1532.2 110.352M1515.34 139.546H1549.05M1532.2 110.352L1549.05 139.546M1549.05 139.546H1582.76M1549.05 139.546L1532.19 168.74M1549.05 139.546L1565.91 168.74M1549.05 139.546H1515.34M1582.76 139.546H1616.47M1582.76 139.546L1565.91 168.74M1582.76 139.546L1599.61 168.74M1616.47 139.546H1650.18M1616.47 139.546L1599.61 168.74M1616.47 139.546L1633.32 168.74M1650.18 139.546H1683.89M1650.18 139.546L1633.32 168.74M1650.18 139.546L1667.03 168.74M1650.18 139.546H1683.89M1683.89 139.546L1700.75 110.352M1683.89 139.546H1717.6M1700.75 110.352L1717.6 139.546M1700.75 110.352H1734.46M1717.6 139.546L1734.46 110.352M1717.6 139.546H1751.31M1734.46 110.352L1751.31 139.546M1751.31 139.546H1785.02M1785.02 139.546H1818.73M1785.02 139.546L1768.17 168.74M1785.02 139.546L1801.87 168.74M1785.02 139.546H1751.3M1818.73 139.546H1852.44M1818.73 139.546L1801.87 168.74M1818.73 139.546L1835.58 168.74M1852.44 139.546H1886.15M1852.44 139.546L1835.58 168.74M1852.44 139.546L1869.29 168.74M1886.15 139.546L1903.01 110.352M1886.15 139.546H1919.86M1886.15 139.546L1869.29 168.74M1886.15 139.546L1903 168.74M1886.15 139.546H1919.86M1903.01 110.352L1919.86 139.546M1903.01 110.352H1936.72M1919.86 139.546L1936.72 110.352M1919.86 139.546H1953.57M1936.72 110.352L1953.57 139.546M1936.72 110.352H1970.43M1953.57 139.546L1970.43 110.352M1953.57 139.546H1987.28M1970.43 110.352L1987.28 139.546M1987.28 139.546H2020.99M1987.28 139.546L1970.42 168.74M1987.28 139.546L2004.13 168.74M1987.28 139.546H1953.56M2020.99 139.546H2054.7M2020.99 139.546L2004.13 168.74M2020.99 139.546L2037.84 168.74M2054.7 139.546H2088.41M2054.7 139.546L2037.84 168.74M2054.7 139.546L2071.55 168.74M2088.41 139.546L2071.55 168.74M2088.41 139.546L2105.26 168.74M841.136 139.546L824.282 168.74H857.991M841.136 139.546L857.991 168.74M857.991 168.74H891.706M891.706 168.74H925.415M891.706 168.74L874.852 197.933M891.706 168.74L908.561 197.933M891.706 168.74H857.997M925.415 168.74H959.124M925.415 168.74L908.561 197.933M925.415 168.74L942.27 197.933M959.124 168.74H992.833M959.124 168.74L942.27 197.933M959.124 168.74L975.979 197.933M992.833 168.74L1009.69 139.546M992.833 168.74H1026.54M992.833 168.74L975.979 197.933M992.833 168.74L1009.69 197.933M992.833 168.74H1026.55M1009.69 139.546L1026.54 168.74M1009.69 139.546H1043.4M1026.54 168.74L1043.4 139.546M1026.54 168.74H1060.25M1043.4 139.546L1060.25 168.74M1043.4 139.546H1077.11M1060.25 168.74L1077.11 139.546M1060.25 168.74H1093.96M1077.11 139.546L1093.96 168.74M1093.96 168.74H1127.68M1127.68 168.74H1161.38M1127.68 168.74L1110.82 197.933M1127.68 168.74L1144.53 197.933M1127.68 168.74H1093.97M1161.38 168.74H1195.09M1161.38 168.74L1144.53 197.933M1161.38 168.74L1178.24 197.933M1195.09 168.74H1228.8M1195.09 168.74L1178.24 197.933M1195.09 168.74L1211.95 197.933M1195.09 168.74H1228.81M1228.8 168.74L1245.66 139.546M1228.8 168.74H1262.51M1245.66 139.546L1262.51 168.74M1245.66 139.546H1279.37M1262.51 168.74L1279.37 139.546M1262.51 168.74H1296.22M1279.37 139.546L1296.22 168.74M1279.37 139.546H1313.07M1296.22 168.74L1313.07 139.546M1296.22 168.74H1329.94M1313.07 139.546L1329.94 168.74M1329.94 168.74H1363.64M1329.94 168.74L1313.08 197.933M1329.94 168.74L1346.79 197.933M1329.94 168.74H1296.23M1363.64 168.74H1397.35M1363.64 168.74L1346.79 197.933M1363.64 168.74L1380.5 197.933M1397.35 168.74H1431.06M1397.35 168.74L1380.5 197.933M1397.35 168.74L1414.21 197.933M1431.06 168.74H1464.77M1431.06 168.74L1414.21 197.933M1431.06 168.74L1447.92 197.933M1431.06 168.74H1464.78M1464.77 168.74L1481.63 139.546M1464.77 168.74H1498.48M1481.63 139.546L1498.48 168.74M1481.63 139.546H1515.34M1498.48 168.74L1515.34 139.546M1498.48 168.74H1532.19M1515.34 139.546L1532.19 168.74M1532.19 168.74H1565.91M1565.91 168.74H1599.61M1565.91 168.74L1549.05 197.933M1565.91 168.74L1582.76 197.933M1565.91 168.74H1532.2M1599.61 168.74H1633.32M1599.61 168.74L1582.76 197.933M1599.61 168.74L1616.47 197.933M1633.32 168.74H1667.03M1633.32 168.74L1616.47 197.933M1633.32 168.74L1650.18 197.933M1667.03 168.74L1683.89 139.546M1667.03 168.74H1700.74M1667.03 168.74L1650.18 197.933M1667.03 168.74L1683.89 197.933M1667.03 168.74H1700.75M1683.89 139.546L1700.74 168.74M1683.89 139.546H1717.6M1700.74 168.74L1717.6 139.546M1700.74 168.74H1734.45M1717.6 139.546L1734.45 168.74M1717.6 139.546H1751.3M1734.45 168.74L1751.3 139.546M1734.45 168.74H1768.17M1751.3 139.546L1768.17 168.74M1768.17 168.74H1801.87M1768.17 168.74L1751.31 197.933M1768.17 168.74L1785.02 197.933M1768.17 168.74H1734.46M1801.87 168.74H1835.58M1801.87 168.74L1785.02 197.933M1801.87 168.74L1818.73 197.933M1835.58 168.74H1869.29M1835.58 168.74L1818.73 197.933M1835.58 168.74L1852.44 197.933M1869.29 168.74H1903M1869.29 168.74L1852.44 197.933M1869.29 168.74L1886.15 197.933M1869.29 168.74H1903.01M1903 168.74L1919.86 139.546M1903 168.74H1936.71M1919.86 139.546L1936.71 168.74M1919.86 139.546H1953.56M1936.71 168.74L1953.56 139.546M1936.71 168.74H1970.42M1953.56 139.546L1970.42 168.74M1970.42 168.74H2004.13M2004.13 168.74H2037.84M2004.13 168.74L1987.28 197.933M2004.13 168.74L2020.99 197.933M2004.13 168.74H1970.43M2037.84 168.74H2071.55M2037.84 168.74L2020.99 197.933M2037.84 168.74L2054.7 197.933M2071.55 168.74H2105.26M2071.55 168.74L2054.7 197.933M2071.55 168.74L2088.41 197.933M2105.26 168.74L2088.41 197.933M857.997 168.74L841.143 197.933M857.997 168.74L874.852 197.933M857.997 168.74H824.288L841.143 197.933M841.143 197.933H874.852M874.852 197.933H908.561M874.852 197.933L857.991 227.127M874.852 197.933L891.706 227.127M874.852 197.933H841.136M908.561 197.933H942.27M908.561 197.933L891.706 227.127M908.561 197.933L925.415 227.127M942.27 197.933H975.979M942.27 197.933L925.415 227.127M942.27 197.933L959.124 227.127M975.979 197.933H1009.69M975.979 197.933L959.124 227.127M975.979 197.933L992.833 227.127M975.979 197.933H1009.69M1009.69 197.933L1026.55 168.74M1009.69 197.933H1043.4M1026.55 168.74L1043.4 197.933M1026.55 168.74H1060.26M1043.4 197.933L1060.26 168.74M1043.4 197.933H1077.11M1060.26 168.74L1077.11 197.933M1060.26 168.74H1093.97M1077.11 197.933L1093.97 168.74M1077.11 197.933H1110.82M1093.97 168.74L1110.82 197.933M1110.82 197.933H1144.53M1110.82 197.933L1093.96 227.127M1110.82 197.933L1127.68 227.127M1110.82 197.933H1077.11M1144.53 197.933H1178.24M1144.53 197.933L1127.68 227.127M1144.53 197.933L1161.38 227.127M1178.24 197.933H1211.95M1178.24 197.933L1161.38 227.127M1178.24 197.933L1195.09 227.127M1211.95 197.933L1228.81 168.74M1211.95 197.933H1245.66M1211.95 197.933L1195.09 227.127M1211.95 197.933L1228.8 227.127M1211.95 197.933H1245.66M1228.81 168.74L1245.66 197.933M1228.81 168.74H1262.52M1245.66 197.933L1262.52 168.74M1245.66 197.933H1279.37M1262.52 168.74L1279.37 197.933M1262.52 168.74H1296.23M1279.37 197.933L1296.23 168.74M1279.37 197.933H1313.08M1296.23 168.74L1313.08 197.933M1313.08 197.933H1346.79M1346.79 197.933H1380.5M1346.79 197.933L1329.94 227.127M1346.79 197.933L1363.64 227.127M1346.79 197.933H1313.07M1380.5 197.933H1414.21M1380.5 197.933L1363.64 227.127M1380.5 197.933L1397.35 227.127M1414.21 197.933H1447.92M1414.21 197.933L1397.35 227.127M1414.21 197.933L1431.06 227.127M1447.92 197.933L1464.78 168.74M1447.92 197.933H1481.63M1447.92 197.933L1431.06 227.127M1447.92 197.933L1464.77 227.127M1447.92 197.933H1481.63M1464.78 168.74L1481.63 197.933M1464.78 168.74H1498.49M1481.63 197.933L1498.49 168.74M1481.63 197.933H1515.34M1498.49 168.74L1515.34 197.933M1498.49 168.74H1532.2M1515.34 197.933L1532.2 168.74M1515.34 197.933H1549.05M1532.2 168.74L1549.05 197.933M1549.05 197.933H1582.76M1549.05 197.933L1532.19 227.127M1549.05 197.933L1565.91 227.127M1549.05 197.933H1515.34M1582.76 197.933H1616.47M1582.76 197.933L1565.91 227.127M1582.76 197.933L1599.61 227.127M1616.47 197.933H1650.18M1616.47 197.933L1599.61 227.127M1616.47 197.933L1633.32 227.127M1650.18 197.933H1683.89M1650.18 197.933L1633.32 227.127M1650.18 197.933L1667.03 227.127M1650.18 197.933H1683.89M1683.89 197.933L1700.75 168.74M1683.89 197.933H1717.6M1700.75 168.74L1717.6 197.933M1700.75 168.74H1734.46M1717.6 197.933L1734.46 168.74M1717.6 197.933H1751.31M1734.46 168.74L1751.31 197.933M1751.31 197.933H1785.02M1785.02 197.933H1818.73M1785.02 197.933L1768.17 227.127M1785.02 197.933L1801.87 227.127M1785.02 197.933H1751.3M1818.73 197.933H1852.44M1818.73 197.933L1801.87 227.127M1818.73 197.933L1835.58 227.127M1852.44 197.933H1886.15M1852.44 197.933L1835.58 227.127M1852.44 197.933L1869.29 227.127M1886.15 197.933L1903.01 168.74M1886.15 197.933H1919.86M1886.15 197.933L1869.29 227.127M1886.15 197.933L1903 227.127M1886.15 197.933H1919.86M1903.01 168.74L1919.86 197.933M1903.01 168.74H1936.72M1919.86 197.933L1936.72 168.74M1919.86 197.933H1953.57M1936.72 168.74L1953.57 197.933M1936.72 168.74H1970.43M1953.57 197.933L1970.43 168.74M1953.57 197.933H1987.28M1970.43 168.74L1987.28 197.933M1987.28 197.933H2020.99M1987.28 197.933L1970.42 227.127M1987.28 197.933L2004.13 227.127M1987.28 197.933H1953.56M2020.99 197.933H2054.7M2020.99 197.933L2004.13 227.127M2020.99 197.933L2037.84 227.127M2054.7 197.933H2088.41M2054.7 197.933L2037.84 227.127M2054.7 197.933L2071.55 227.127M2088.41 197.933L2071.55 227.127M2088.41 197.933L2105.26 227.127M841.136 197.933L824.282 227.127H857.991M841.136 197.933L857.991 227.127M857.991 227.127H891.706M891.706 227.127H925.415M891.706 227.127L874.852 256.321M891.706 227.127L908.561 256.321M891.706 227.127H857.997M925.415 227.127H959.124M925.415 227.127L908.561 256.321M925.415 227.127L942.27 256.321M959.124 227.127H992.833M959.124 227.127L942.27 256.321M959.124 227.127L975.979 256.321M992.833 227.127L1009.69 197.933M992.833 227.127H1026.54M992.833 227.127L975.979 256.321M992.833 227.127L1009.69 256.321M992.833 227.127H1026.55M1009.69 197.933L1026.54 227.127M1009.69 197.933H1043.4M1026.54 227.127L1043.4 197.933M1026.54 227.127H1060.25M1043.4 197.933L1060.25 227.127M1043.4 197.933H1077.11M1060.25 227.127L1077.11 197.933M1060.25 227.127H1093.96M1077.11 197.933L1093.96 227.127M1093.96 227.127H1127.68M1127.68 227.127H1161.38M1127.68 227.127L1110.82 256.321M1127.68 227.127L1144.53 256.321M1127.68 227.127H1093.97M1161.38 227.127H1195.09M1161.38 227.127L1144.53 256.321M1161.38 227.127L1178.24 256.321M1195.09 227.127H1228.8M1195.09 227.127L1178.24 256.321M1195.09 227.127L1211.95 256.321M1195.09 227.127H1228.81M1228.8 227.127L1245.66 197.933M1228.8 227.127H1262.51M1245.66 197.933L1262.51 227.127M1245.66 197.933H1279.37M1262.51 227.127L1279.37 197.933M1262.51 227.127H1296.22M1279.37 197.933L1296.22 227.127M1279.37 197.933H1313.07M1296.22 227.127L1313.07 197.933M1296.22 227.127H1329.94M1313.07 197.933L1329.94 227.127M1329.94 227.127H1363.64M1329.94 227.127L1313.08 256.321M1329.94 227.127L1346.79 256.321M1329.94 227.127H1296.23M1363.64 227.127H1397.35M1363.64 227.127L1346.79 256.321M1363.64 227.127L1380.5 256.321M1397.35 227.127H1431.06M1397.35 227.127L1380.5 256.321M1397.35 227.127L1414.21 256.321M1431.06 227.127H1464.77M1431.06 227.127L1414.21 256.321M1431.06 227.127L1447.92 256.321M1431.06 227.127H1464.78M1464.77 227.127L1481.63 197.933M1464.77 227.127H1498.48M1481.63 197.933L1498.48 227.127M1481.63 197.933H1515.34M1498.48 227.127L1515.34 197.933M1498.48 227.127H1532.19M1515.34 197.933L1532.19 227.127M1532.19 227.127H1565.91M1565.91 227.127H1599.61M1565.91 227.127L1549.05 256.321M1565.91 227.127L1582.76 256.321M1565.91 227.127H1532.2M1599.61 227.127H1633.32M1599.61 227.127L1582.76 256.321M1599.61 227.127L1616.47 256.321M1633.32 227.127H1667.03M1633.32 227.127L1616.47 256.321M1633.32 227.127L1650.18 256.321M1667.03 227.127L1683.89 197.933M1667.03 227.127H1700.74M1667.03 227.127L1650.18 256.321M1667.03 227.127L1683.89 256.321M1667.03 227.127H1700.75M1683.89 197.933L1700.74 227.127M1683.89 197.933H1717.6M1700.74 227.127L1717.6 197.933M1700.74 227.127H1734.45M1717.6 197.933L1734.45 227.127M1717.6 197.933H1751.3M1734.45 227.127L1751.3 197.933M1734.45 227.127H1768.17M1751.3 197.933L1768.17 227.127M1768.17 227.127H1801.87M1768.17 227.127L1751.31 256.321M1768.17 227.127L1785.02 256.321M1768.17 227.127H1734.46M1801.87 227.127H1835.58M1801.87 227.127L1785.02 256.321M1801.87 227.127L1818.73 256.321M1835.58 227.127H1869.29M1835.58 227.127L1818.73 256.321M1835.58 227.127L1852.44 256.321M1869.29 227.127H1903M1869.29 227.127L1852.44 256.321M1869.29 227.127L1886.15 256.321M1869.29 227.127H1903.01M1903 227.127L1919.86 197.933M1903 227.127H1936.71M1919.86 197.933L1936.71 227.127M1919.86 197.933H1953.56M1936.71 227.127L1953.56 197.933M1936.71 227.127H1970.42M1953.56 197.933L1970.42 227.127M1970.42 227.127H2004.13M2004.13 227.127H2037.84M2004.13 227.127L1987.28 256.321M2004.13 227.127L2020.99 256.321M2004.13 227.127H1970.43M2037.84 227.127H2071.55M2037.84 227.127L2020.99 256.321M2037.84 227.127L2054.7 256.321M2071.55 227.127H2105.26M2071.55 227.127L2054.7 256.321M2071.55 227.127L2088.41 256.321M2105.26 227.127L2088.41 256.321M857.997 227.127L841.143 256.321M857.997 227.127L874.852 256.321M857.997 227.127H824.288L841.143 256.321M841.143 256.321H874.852M874.852 256.321H908.561M874.852 256.321L857.991 285.515M874.852 256.321L891.706 285.515M874.852 256.321H841.136M908.561 256.321H942.27M908.561 256.321L891.706 285.515M908.561 256.321L925.415 285.515M942.27 256.321H975.979M942.27 256.321L925.415 285.515M942.27 256.321L959.124 285.515M975.979 256.321H1009.69M975.979 256.321L959.124 285.515M975.979 256.321L992.833 285.515M975.979 256.321H1009.69M1009.69 256.321L1026.55 227.127M1009.69 256.321H1043.4M1026.55 227.127L1043.4 256.321M1026.55 227.127H1060.26M1043.4 256.321L1060.26 227.127M1043.4 256.321H1077.11M1060.26 227.127L1077.11 256.321M1060.26 227.127H1093.97M1077.11 256.321L1093.97 227.127M1077.11 256.321H1110.82M1093.97 227.127L1110.82 256.321M1110.82 256.321H1144.53M1110.82 256.321L1093.96 285.515M1110.82 256.321L1127.68 285.515M1110.82 256.321H1077.11M1144.53 256.321H1178.24M1144.53 256.321L1127.68 285.515M1144.53 256.321L1161.38 285.515M1178.24 256.321H1211.95M1178.24 256.321L1161.38 285.515M1178.24 256.321L1195.09 285.515M1211.95 256.321L1228.81 227.127M1211.95 256.321H1245.66M1211.95 256.321L1195.09 285.515M1211.95 256.321L1228.8 285.515M1211.95 256.321H1245.66M1228.81 227.127L1245.66 256.321M1228.81 227.127H1262.52M1245.66 256.321L1262.52 227.127M1245.66 256.321H1279.37M1262.52 227.127L1279.37 256.321M1262.52 227.127H1296.23M1279.37 256.321L1296.23 227.127M1279.37 256.321H1313.08M1296.23 227.127L1313.08 256.321M1313.08 256.321H1346.79M1346.79 256.321H1380.5M1346.79 256.321L1329.94 285.515M1346.79 256.321L1363.64 285.515M1346.79 256.321H1313.07M1380.5 256.321H1414.21M1380.5 256.321L1363.64 285.515M1380.5 256.321L1397.35 285.515M1414.21 256.321H1447.92M1414.21 256.321L1397.35 285.515M1414.21 256.321L1431.06 285.515M1447.92 256.321L1464.78 227.127M1447.92 256.321H1481.63M1447.92 256.321L1431.06 285.515M1447.92 256.321L1464.77 285.515M1447.92 256.321H1481.63M1464.78 227.127L1481.63 256.321M1464.78 227.127H1498.49M1481.63 256.321L1498.49 227.127M1481.63 256.321H1515.34M1498.49 227.127L1515.34 256.321M1498.49 227.127H1532.2M1515.34 256.321L1532.2 227.127M1515.34 256.321H1549.05M1532.2 227.127L1549.05 256.321M1549.05 256.321H1582.76M1549.05 256.321L1532.19 285.515M1549.05 256.321L1565.91 285.515M1549.05 256.321H1515.34M1582.76 256.321H1616.47M1582.76 256.321L1565.91 285.515M1582.76 256.321L1599.61 285.515M1616.47 256.321H1650.18M1616.47 256.321L1599.61 285.515M1616.47 256.321L1633.32 285.515M1650.18 256.321H1683.89M1650.18 256.321L1633.32 285.515M1650.18 256.321L1667.03 285.515M1650.18 256.321H1683.89M1683.89 256.321L1700.75 227.127M1683.89 256.321H1717.6M1700.75 227.127L1717.6 256.321M1700.75 227.127H1734.46M1717.6 256.321L1734.46 227.127M1717.6 256.321H1751.31M1734.46 227.127L1751.31 256.321M1751.31 256.321H1785.02M1785.02 256.321H1818.73M1785.02 256.321L1768.17 285.515M1785.02 256.321L1801.87 285.515M1785.02 256.321H1751.3M1818.73 256.321H1852.44M1818.73 256.321L1801.87 285.515M1818.73 256.321L1835.58 285.515M1852.44 256.321H1886.15M1852.44 256.321L1835.58 285.515M1852.44 256.321L1869.29 285.515M1886.15 256.321L1903.01 227.127M1886.15 256.321H1919.86M1886.15 256.321L1869.29 285.515M1886.15 256.321L1903 285.515M1886.15 256.321H1919.86M1903.01 227.127L1919.86 256.321M1903.01 227.127H1936.72M1919.86 256.321L1936.72 227.127M1919.86 256.321H1953.57M1936.72 227.127L1953.57 256.321M1936.72 227.127H1970.43M1953.57 256.321L1970.43 227.127M1953.57 256.321H1987.28M1970.43 227.127L1987.28 256.321M1987.28 256.321H2020.99M1987.28 256.321L1970.42 285.515M1987.28 256.321L2004.13 285.515M1987.28 256.321H1953.56M2020.99 256.321H2054.7M2020.99 256.321L2004.13 285.515M2020.99 256.321L2037.84 285.515M2054.7 256.321H2088.41M2054.7 256.321L2037.84 285.515M2054.7 256.321L2071.55 285.515M2088.41 256.321L2071.55 285.515M2088.41 256.321L2105.26 285.515M841.136 256.321L824.282 285.515H857.991M841.136 256.321L857.991 285.515M857.991 285.515H891.706M891.706 285.515H925.415M891.706 285.515L874.852 314.708M891.706 285.515L908.561 314.708M891.706 285.515H857.997M925.415 285.515H959.124M925.415 285.515L908.561 314.708M925.415 285.515L942.27 314.708M959.124 285.515H992.833M959.124 285.515L942.27 314.708M959.124 285.515L975.979 314.708M992.833 285.515L1009.69 256.321M992.833 285.515H1026.54M992.833 285.515L975.979 314.708M992.833 285.515L1009.69 314.708M992.833 285.515H1026.55M1009.69 256.321L1026.54 285.515M1009.69 256.321H1043.4M1026.54 285.515L1043.4 256.321M1026.54 285.515H1060.25M1043.4 256.321L1060.25 285.515M1043.4 256.321H1077.11M1060.25 285.515L1077.11 256.321M1060.25 285.515H1093.96M1077.11 256.321L1093.96 285.515M1093.96 285.515H1127.68M1127.68 285.515H1161.38M1127.68 285.515L1110.82 314.708M1127.68 285.515L1144.53 314.708M1127.68 285.515H1093.97M1161.38 285.515H1195.09M1161.38 285.515L1144.53 314.708M1161.38 285.515L1178.24 314.708M1195.09 285.515H1228.8M1195.09 285.515L1178.24 314.708M1195.09 285.515L1211.95 314.708M1195.09 285.515H1228.81M1228.8 285.515L1245.66 256.321M1228.8 285.515H1262.51M1245.66 256.321L1262.51 285.515M1245.66 256.321H1279.37M1262.51 285.515L1279.37 256.321M1262.51 285.515H1296.22M1279.37 256.321L1296.22 285.515M1279.37 256.321H1313.07M1296.22 285.515L1313.07 256.321M1296.22 285.515H1329.94M1313.07 256.321L1329.94 285.515M1329.94 285.515H1363.64M1329.94 285.515L1313.08 314.708M1329.94 285.515L1346.79 314.708M1329.94 285.515H1296.23M1363.64 285.515H1397.35M1363.64 285.515L1346.79 314.708M1363.64 285.515L1380.5 314.708M1397.35 285.515H1431.06M1397.35 285.515L1380.5 314.708M1397.35 285.515L1414.21 314.708M1431.06 285.515H1464.77M1431.06 285.515L1414.21 314.708M1431.06 285.515L1447.92 314.708M1431.06 285.515H1464.78M1464.77 285.515L1481.63 256.321M1464.77 285.515H1498.48M1481.63 256.321L1498.48 285.515M1481.63 256.321H1515.34M1498.48 285.515L1515.34 256.321M1498.48 285.515H1532.19M1515.34 256.321L1532.19 285.515M1532.19 285.515H1565.91M1565.91 285.515H1599.61M1565.91 285.515L1549.05 314.708M1565.91 285.515L1582.76 314.708M1565.91 285.515H1532.2M1599.61 285.515H1633.32M1599.61 285.515L1582.76 314.708M1599.61 285.515L1616.47 314.708M1633.32 285.515H1667.03M1633.32 285.515L1616.47 314.708M1633.32 285.515L1650.18 314.708M1667.03 285.515L1683.89 256.321M1667.03 285.515H1700.74M1667.03 285.515L1650.18 314.708M1667.03 285.515L1683.89 314.708M1667.03 285.515H1700.75M1683.89 256.321L1700.74 285.515M1683.89 256.321H1717.6M1700.74 285.515L1717.6 256.321M1700.74 285.515H1734.45M1717.6 256.321L1734.45 285.515M1717.6 256.321H1751.3M1734.45 285.515L1751.3 256.321M1734.45 285.515H1768.17M1751.3 256.321L1768.17 285.515M1768.17 285.515H1801.87M1768.17 285.515L1751.31 314.708M1768.17 285.515L1785.02 314.708M1768.17 285.515H1734.46M1801.87 285.515H1835.58M1801.87 285.515L1785.02 314.708M1801.87 285.515L1818.73 314.708M1835.58 285.515H1869.29M1835.58 285.515L1818.73 314.708M1835.58 285.515L1852.44 314.708M1869.29 285.515H1903M1869.29 285.515L1852.44 314.708M1869.29 285.515L1886.15 314.708M1869.29 285.515H1903.01M1903 285.515L1919.86 256.321M1903 285.515H1936.71M1919.86 256.321L1936.71 285.515M1919.86 256.321H1953.56M1936.71 285.515L1953.56 256.321M1936.71 285.515H1970.42M1953.56 256.321L1970.42 285.515M1970.42 285.515H2004.13M2004.13 285.515H2037.84M2004.13 285.515L1987.28 314.708M2004.13 285.515L2020.99 314.708M2004.13 285.515H1970.43M2037.84 285.515H2071.55M2037.84 285.515L2020.99 314.708M2037.84 285.515L2054.7 314.708M2071.55 285.515H2105.26M2071.55 285.515L2054.7 314.708M2071.55 285.515L2088.41 314.708M2105.26 285.515L2088.41 314.708M857.997 285.515L841.143 314.708M857.997 285.515L874.852 314.708M857.997 285.515H824.288L841.143 314.708M841.143 314.708H874.852M874.852 314.708H908.561M874.852 314.708L857.991 343.902M874.852 314.708L891.706 343.902M874.852 314.708H841.136M908.561 314.708H942.27M908.561 314.708L891.706 343.902M908.561 314.708L925.415 343.902M942.27 314.708H975.979M942.27 314.708L925.415 343.902M942.27 314.708L959.124 343.902M975.979 314.708H1009.69M975.979 314.708L959.124 343.902M975.979 314.708L992.833 343.902M975.979 314.708H1009.69M1009.69 314.708L1026.55 285.515M1009.69 314.708H1043.4M1026.55 285.515L1043.4 314.708M1026.55 285.515H1060.26M1043.4 314.708L1060.26 285.515M1043.4 314.708H1077.11M1060.26 285.515L1077.11 314.708M1060.26 285.515H1093.97M1077.11 314.708L1093.97 285.515M1077.11 314.708H1110.82M1093.97 285.515L1110.82 314.708M1110.82 314.708H1144.53M1110.82 314.708L1093.96 343.902M1110.82 314.708L1127.68 343.902M1110.82 314.708H1077.11M1144.53 314.708H1178.24M1144.53 314.708L1127.68 343.902M1144.53 314.708L1161.38 343.902M1178.24 314.708H1211.95M1178.24 314.708L1161.38 343.902M1178.24 314.708L1195.09 343.902M1211.95 314.708L1228.81 285.515M1211.95 314.708H1245.66M1211.95 314.708L1195.09 343.902M1211.95 314.708L1228.8 343.902M1211.95 314.708H1245.66M1228.81 285.515L1245.66 314.708M1228.81 285.515H1262.52M1245.66 314.708L1262.52 285.515M1245.66 314.708H1279.37M1262.52 285.515L1279.37 314.708M1262.52 285.515H1296.23M1279.37 314.708L1296.23 285.515M1279.37 314.708H1313.08M1296.23 285.515L1313.08 314.708M1313.08 314.708H1346.79M1346.79 314.708H1380.5M1346.79 314.708L1329.94 343.902M1346.79 314.708L1363.64 343.902M1346.79 314.708H1313.07M1380.5 314.708H1414.21M1380.5 314.708L1363.64 343.902M1380.5 314.708L1397.35 343.902M1414.21 314.708H1447.92M1414.21 314.708L1397.35 343.902M1414.21 314.708L1431.06 343.902M1447.92 314.708L1464.78 285.515M1447.92 314.708H1481.63M1447.92 314.708L1431.06 343.902M1447.92 314.708L1464.77 343.902M1447.92 314.708H1481.63M1464.78 285.515L1481.63 314.708M1464.78 285.515H1498.49M1481.63 314.708L1498.49 285.515M1481.63 314.708H1515.34M1498.49 285.515L1515.34 314.708M1498.49 285.515H1532.2M1515.34 314.708L1532.2 285.515M1515.34 314.708H1549.05M1532.2 285.515L1549.05 314.708M1549.05 314.708H1582.76M1549.05 314.708L1532.19 343.902M1549.05 314.708L1565.91 343.902M1549.05 314.708H1515.34M1582.76 314.708H1616.47M1582.76 314.708L1565.91 343.902M1582.76 314.708L1599.61 343.902M1616.47 314.708H1650.18M1616.47 314.708L1599.61 343.902M1616.47 314.708L1633.32 343.902M1650.18 314.708H1683.89M1650.18 314.708L1633.32 343.902M1650.18 314.708L1667.03 343.902M1650.18 314.708H1683.89M1683.89 314.708L1700.75 285.515M1683.89 314.708H1717.6M1700.75 285.515L1717.6 314.708M1700.75 285.515H1734.46M1717.6 314.708L1734.46 285.515M1717.6 314.708H1751.31M1734.46 285.515L1751.31 314.708M1751.31 314.708H1785.02M1785.02 314.708H1818.73M1785.02 314.708L1768.17 343.902M1785.02 314.708L1801.87 343.902M1785.02 314.708H1751.3M1818.73 314.708H1852.44M1818.73 314.708L1801.87 343.902M1818.73 314.708L1835.58 343.902M1852.44 314.708H1886.15M1852.44 314.708L1835.58 343.902M1852.44 314.708L1869.29 343.902M1886.15 314.708L1903.01 285.515M1886.15 314.708H1919.86M1886.15 314.708L1869.29 343.902M1886.15 314.708L1903 343.902M1886.15 314.708H1919.86M1903.01 285.515L1919.86 314.708M1903.01 285.515H1936.72M1919.86 314.708L1936.72 285.515M1919.86 314.708H1953.57M1936.72 285.515L1953.57 314.708M1936.72 285.515H1970.43M1953.57 314.708L1970.43 285.515M1953.57 314.708H1987.28M1970.43 285.515L1987.28 314.708M1987.28 314.708H2020.99M1987.28 314.708L1970.42 343.902M1987.28 314.708L2004.13 343.902M1987.28 314.708H1953.56M2020.99 314.708H2054.7M2020.99 314.708L2004.13 343.902M2020.99 314.708L2037.84 343.902M2054.7 314.708H2088.41M2054.7 314.708L2037.84 343.902M2054.7 314.708L2071.55 343.902M2088.41 314.708L2071.55 343.902M2088.41 314.708L2105.26 343.902M841.136 314.708L824.282 343.902H857.991M841.136 314.708L857.991 343.902M857.991 343.902H891.706M891.706 343.902H925.415M891.706 343.902L874.852 373.096M891.706 343.902L908.561 373.096M891.706 343.902H857.997M925.415 343.902H959.124M925.415 343.902L908.561 373.096M925.415 343.902L942.27 373.096M959.124 343.902H992.833M959.124 343.902L942.27 373.096M959.124 343.902L975.979 373.096M992.833 343.902L1009.69 314.708M992.833 343.902H1026.54M992.833 343.902L975.979 373.096M992.833 343.902L1009.69 373.096M992.833 343.902H1026.55M1009.69 314.708L1026.54 343.902M1009.69 314.708H1043.4M1026.54 343.902L1043.4 314.708M1026.54 343.902H1060.25M1043.4 314.708L1060.25 343.902M1043.4 314.708H1077.11M1060.25 343.902L1077.11 314.708M1060.25 343.902H1093.96M1077.11 314.708L1093.96 343.902M1093.96 343.902H1127.68M1127.68 343.902H1161.38M1127.68 343.902L1110.82 373.096M1127.68 343.902L1144.53 373.096M1127.68 343.902H1093.97M1161.38 343.902H1195.09M1161.38 343.902L1144.53 373.096M1161.38 343.902L1178.24 373.096M1195.09 343.902H1228.8M1195.09 343.902L1178.24 373.096M1195.09 343.902L1211.95 373.096M1195.09 343.902H1228.81M1228.8 343.902L1245.66 314.708M1228.8 343.902H1262.51M1245.66 314.708L1262.51 343.902M1245.66 314.708H1279.37M1262.51 343.902L1279.37 314.708M1262.51 343.902H1296.22M1279.37 314.708L1296.22 343.902M1279.37 314.708H1313.07M1296.22 343.902L1313.07 314.708M1296.22 343.902H1329.94M1313.07 314.708L1329.94 343.902M1329.94 343.902H1363.64M1329.94 343.902L1313.08 373.096M1329.94 343.902L1346.79 373.096M1329.94 343.902H1296.23M1363.64 343.902H1397.35M1363.64 343.902L1346.79 373.096M1363.64 343.902L1380.5 373.096M1397.35 343.902H1431.06M1397.35 343.902L1380.5 373.096M1397.35 343.902L1414.21 373.096M1431.06 343.902H1464.77M1431.06 343.902L1414.21 373.096M1431.06 343.902L1447.92 373.096M1431.06 343.902H1464.78M1464.77 343.902L1481.63 314.708M1464.77 343.902H1498.48M1481.63 314.708L1498.48 343.902M1481.63 314.708H1515.34M1498.48 343.902L1515.34 314.708M1498.48 343.902H1532.19M1515.34 314.708L1532.19 343.902M1532.19 343.902H1565.91M1565.91 343.902H1599.61M1565.91 343.902L1549.05 373.096M1565.91 343.902L1582.76 373.096M1565.91 343.902H1532.2M1599.61 343.902H1633.32M1599.61 343.902L1582.76 373.096M1599.61 343.902L1616.47 373.096M1633.32 343.902H1667.03M1633.32 343.902L1616.47 373.096M1633.32 343.902L1650.18 373.096M1667.03 343.902L1683.89 314.708M1667.03 343.902H1700.74M1667.03 343.902L1650.18 373.096M1667.03 343.902L1683.89 373.096M1667.03 343.902H1700.75M1683.89 314.708L1700.74 343.902M1683.89 314.708H1717.6M1700.74 343.902L1717.6 314.708M1700.74 343.902H1734.45M1717.6 314.708L1734.45 343.902M1717.6 314.708H1751.3M1734.45 343.902L1751.3 314.708M1734.45 343.902H1768.17M1751.3 314.708L1768.17 343.902M1768.17 343.902H1801.87M1768.17 343.902L1751.31 373.096M1768.17 343.902L1785.02 373.096M1768.17 343.902H1734.46M1801.87 343.902H1835.58M1801.87 343.902L1785.02 373.096M1801.87 343.902L1818.73 373.096M1835.58 343.902H1869.29M1835.58 343.902L1818.73 373.096M1835.58 343.902L1852.44 373.096M1869.29 343.902H1903M1869.29 343.902L1852.44 373.096M1869.29 343.902L1886.15 373.096M1869.29 343.902H1903.01M1903 343.902L1919.86 314.708M1903 343.902H1936.71M1919.86 314.708L1936.71 343.902M1919.86 314.708H1953.56M1936.71 343.902L1953.56 314.708M1936.71 343.902H1970.42M1953.56 314.708L1970.42 343.902M1970.42 343.902H2004.13M2004.13 343.902H2037.84M2004.13 343.902L1987.28 373.096M2004.13 343.902L2020.99 373.096M2004.13 343.902H1970.43M2037.84 343.902H2071.55M2037.84 343.902L2020.99 373.096M2037.84 343.902L2054.7 373.096M2071.55 343.902H2105.26M2071.55 343.902L2054.7 373.096M2071.55 343.902L2088.41 373.096M2105.26 343.902L2088.41 373.096M857.997 343.902L841.143 373.096M857.997 343.902L874.852 373.096M857.997 343.902H824.288L841.143 373.096M841.143 373.096H874.852M874.852 373.096H908.561M874.852 373.096L857.991 402.289M874.852 373.096L891.706 402.289M874.852 373.096H841.136M908.561 373.096H942.27M908.561 373.096L891.706 402.289M908.561 373.096L925.415 402.289M942.27 373.096H975.979M942.27 373.096L925.415 402.289M942.27 373.096L959.124 402.289M975.979 373.096H1009.69M975.979 373.096L959.124 402.289M975.979 373.096L992.833 402.289M975.979 373.096H1009.69M1009.69 373.096L1026.55 343.902M1009.69 373.096H1043.4M1026.55 343.902L1043.4 373.096M1026.55 343.902H1060.26M1043.4 373.096L1060.26 343.902M1043.4 373.096H1077.11M1060.26 343.902L1077.11 373.096M1060.26 343.902H1093.97M1077.11 373.096L1093.97 343.902M1077.11 373.096H1110.82M1093.97 343.902L1110.82 373.096M1110.82 373.096H1144.53M1110.82 373.096L1093.96 402.289M1110.82 373.096L1127.68 402.289M1110.82 373.096H1077.11M1144.53 373.096H1178.24M1144.53 373.096L1127.68 402.289M1144.53 373.096L1161.38 402.289M1178.24 373.096H1211.95M1178.24 373.096L1161.38 402.289M1178.24 373.096L1195.09 402.289M1211.95 373.096L1228.81 343.902M1211.95 373.096H1245.66M1211.95 373.096L1195.09 402.289M1211.95 373.096L1228.8 402.289M1211.95 373.096H1245.66M1228.81 343.902L1245.66 373.096M1228.81 343.902H1262.52M1245.66 373.096L1262.52 343.902M1245.66 373.096H1279.37M1262.52 343.902L1279.37 373.096M1262.52 343.902H1296.23M1279.37 373.096L1296.23 343.902M1279.37 373.096H1313.08M1296.23 343.902L1313.08 373.096M1313.08 373.096H1346.79M1346.79 373.096H1380.5M1346.79 373.096L1329.94 402.289M1346.79 373.096L1363.64 402.289M1346.79 373.096H1313.07M1380.5 373.096H1414.21M1380.5 373.096L1363.64 402.289M1380.5 373.096L1397.35 402.289M1414.21 373.096H1447.92M1414.21 373.096L1397.35 402.289M1414.21 373.096L1431.06 402.289M1447.92 373.096L1464.78 343.902M1447.92 373.096H1481.63M1447.92 373.096L1431.06 402.289M1447.92 373.096L1464.77 402.289M1447.92 373.096H1481.63M1464.78 343.902L1481.63 373.096M1464.78 343.902H1498.49M1481.63 373.096L1498.49 343.902M1481.63 373.096H1515.34M1498.49 343.902L1515.34 373.096M1498.49 343.902H1532.2M1515.34 373.096L1532.2 343.902M1515.34 373.096H1549.05M1532.2 343.902L1549.05 373.096M1549.05 373.096H1582.76M1549.05 373.096L1532.19 402.289M1549.05 373.096L1565.91 402.289M1549.05 373.096H1515.34M1582.76 373.096H1616.47M1582.76 373.096L1565.91 402.289M1582.76 373.096L1599.61 402.289M1616.47 373.096H1650.18M1616.47 373.096L1599.61 402.289M1616.47 373.096L1633.32 402.289M1650.18 373.096H1683.89M1650.18 373.096L1633.32 402.289M1650.18 373.096L1667.03 402.289M1650.18 373.096H1683.89M1683.89 373.096L1700.75 343.902M1683.89 373.096H1717.6M1700.75 343.902L1717.6 373.096M1700.75 343.902H1734.46M1717.6 373.096L1734.46 343.902M1717.6 373.096H1751.31M1734.46 343.902L1751.31 373.096M1751.31 373.096H1785.02M1785.02 373.096H1818.73M1785.02 373.096L1768.17 402.289M1785.02 373.096L1801.87 402.289M1785.02 373.096H1751.3M1818.73 373.096H1852.44M1818.73 373.096L1801.87 402.289M1818.73 373.096L1835.58 402.289M1852.44 373.096H1886.15M1852.44 373.096L1835.58 402.289M1852.44 373.096L1869.29 402.289M1886.15 373.096L1903.01 343.902M1886.15 373.096H1919.86M1886.15 373.096L1869.29 402.289M1886.15 373.096L1903 402.289M1886.15 373.096H1919.86M1903.01 343.902L1919.86 373.096M1903.01 343.902H1936.72M1919.86 373.096L1936.72 343.902M1919.86 373.096H1953.57M1936.72 343.902L1953.57 373.096M1936.72 343.902H1970.43M1953.57 373.096L1970.43 343.902M1953.57 373.096H1987.28M1970.43 343.902L1987.28 373.096M1987.28 373.096H2020.99M1987.28 373.096L1970.42 402.289M1987.28 373.096L2004.13 402.289M1987.28 373.096H1953.56M2020.99 373.096H2054.7M2020.99 373.096L2004.13 402.289M2020.99 373.096L2037.84 402.289M2054.7 373.096H2088.41M2054.7 373.096L2037.84 402.289M2054.7 373.096L2071.55 402.289M2088.41 373.096L2071.55 402.289M2088.41 373.096L2105.26 402.289M841.136 373.096L824.282 402.289H857.991M841.136 373.096L857.991 402.289M857.991 402.289H891.706M891.706 402.289H925.415M891.706 402.289L874.852 431.483M891.706 402.289L908.561 431.483M891.706 402.289H857.997M925.415 402.289H959.124M925.415 402.289L908.561 431.483M925.415 402.289L942.27 431.483M959.124 402.289H992.833M959.124 402.289L942.27 431.483M959.124 402.289L975.979 431.483M992.833 402.289L1009.69 373.096M992.833 402.289H1026.54M992.833 402.289L975.979 431.483M992.833 402.289L1009.69 431.483M992.833 402.289H1026.55M1009.69 373.096L1026.54 402.289M1009.69 373.096H1043.4M1026.54 402.289L1043.4 373.096M1026.54 402.289H1060.25M1043.4 373.096L1060.25 402.289M1043.4 373.096H1077.11M1060.25 402.289L1077.11 373.096M1060.25 402.289H1093.96M1077.11 373.096L1093.96 402.289M1093.96 402.289H1127.68M1127.68 402.289H1161.38M1127.68 402.289L1110.82 431.483M1127.68 402.289L1144.53 431.483M1127.68 402.289H1093.97M1161.38 402.289H1195.09M1161.38 402.289L1144.53 431.483M1161.38 402.289L1178.24 431.483M1195.09 402.289H1228.8M1195.09 402.289L1178.24 431.483M1195.09 402.289L1211.95 431.483M1195.09 402.289H1228.81M1228.8 402.289L1245.66 373.096M1228.8 402.289H1262.51M1245.66 373.096L1262.51 402.289M1245.66 373.096H1279.37M1262.51 402.289L1279.37 373.096M1262.51 402.289H1296.22M1279.37 373.096L1296.22 402.289M1279.37 373.096H1313.07M1296.22 402.289L1313.07 373.096M1296.22 402.289H1329.94M1313.07 373.096L1329.94 402.289M1329.94 402.289H1363.64M1329.94 402.289L1313.08 431.483M1329.94 402.289L1346.79 431.483M1329.94 402.289H1296.23M1363.64 402.289H1397.35M1363.64 402.289L1346.79 431.483M1363.64 402.289L1380.5 431.483M1397.35 402.289H1431.06M1397.35 402.289L1380.5 431.483M1397.35 402.289L1414.21 431.483M1431.06 402.289H1464.77M1431.06 402.289L1414.21 431.483M1431.06 402.289L1447.92 431.483M1431.06 402.289H1464.78M1464.77 402.289L1481.63 373.096M1464.77 402.289H1498.48M1481.63 373.096L1498.48 402.289M1481.63 373.096H1515.34M1498.48 402.289L1515.34 373.096M1498.48 402.289H1532.19M1515.34 373.096L1532.19 402.289M1532.19 402.289H1565.91M1565.91 402.289H1599.61M1565.91 402.289L1549.05 431.483M1565.91 402.289L1582.76 431.483M1565.91 402.289H1532.2M1599.61 402.289H1633.32M1599.61 402.289L1582.76 431.483M1599.61 402.289L1616.47 431.483M1633.32 402.289H1667.03M1633.32 402.289L1616.47 431.483M1633.32 402.289L1650.18 431.483M1667.03 402.289L1683.89 373.096M1667.03 402.289H1700.74M1667.03 402.289L1650.18 431.483M1667.03 402.289L1683.89 431.483M1667.03 402.289H1700.75M1683.89 373.096L1700.74 402.289M1683.89 373.096H1717.6M1700.74 402.289L1717.6 373.096M1700.74 402.289H1734.45M1717.6 373.096L1734.45 402.289M1717.6 373.096H1751.3M1734.45 402.289L1751.3 373.096M1734.45 402.289H1768.17M1751.3 373.096L1768.17 402.289M1768.17 402.289H1801.87M1768.17 402.289L1751.31 431.483M1768.17 402.289L1785.02 431.483M1768.17 402.289H1734.46M1801.87 402.289H1835.58M1801.87 402.289L1785.02 431.483M1801.87 402.289L1818.73 431.483M1835.58 402.289H1869.29M1835.58 402.289L1818.73 431.483M1835.58 402.289L1852.44 431.483M1869.29 402.289H1903M1869.29 402.289L1852.44 431.483M1869.29 402.289L1886.15 431.483M1869.29 402.289H1903.01M1903 402.289L1919.86 373.096M1903 402.289H1936.71M1919.86 373.096L1936.71 402.289M1919.86 373.096H1953.56M1936.71 402.289L1953.56 373.096M1936.71 402.289H1970.42M1953.56 373.096L1970.42 402.289M1970.42 402.289H2004.13M2004.13 402.289H2037.84M2004.13 402.289L1987.28 431.483M2004.13 402.289L2020.99 431.483M2004.13 402.289H1970.43M2037.84 402.289H2071.55M2037.84 402.289L2020.99 431.483M2037.84 402.289L2054.7 431.483M2071.55 402.289H2105.26M2071.55 402.289L2054.7 431.483M2071.55 402.289L2088.41 431.483M2105.26 402.289L2088.41 431.483M857.997 402.289L841.143 431.483M857.997 402.289L874.852 431.483M857.997 402.289H824.288L841.143 431.483M841.143 431.483H874.852M874.852 431.483H908.561M874.852 431.483L857.991 460.677M874.852 431.483L891.706 460.677M874.852 431.483H841.136M908.561 431.483H942.27M908.561 431.483L891.706 460.677M908.561 431.483L925.415 460.677M942.27 431.483H975.979M942.27 431.483L925.415 460.677M942.27 431.483L959.124 460.677M975.979 431.483H1009.69M975.979 431.483L959.124 460.677M975.979 431.483L992.833 460.677M975.979 431.483H1009.69M1009.69 431.483L1026.55 402.289M1009.69 431.483H1043.4M1026.55 402.289L1043.4 431.483M1026.55 402.289H1060.26M1043.4 431.483L1060.26 402.289M1043.4 431.483H1077.11M1060.26 402.289L1077.11 431.483M1060.26 402.289H1093.97M1077.11 431.483L1093.97 402.289M1077.11 431.483H1110.82M1093.97 402.289L1110.82 431.483M1110.82 431.483H1144.53M1110.82 431.483L1093.96 460.677M1110.82 431.483L1127.68 460.677M1110.82 431.483H1077.11M1144.53 431.483H1178.24M1144.53 431.483L1127.68 460.677M1144.53 431.483L1161.38 460.677M1178.24 431.483H1211.95M1178.24 431.483L1161.38 460.677M1178.24 431.483L1195.09 460.677M1211.95 431.483L1228.81 402.289M1211.95 431.483H1245.66M1211.95 431.483L1195.09 460.677M1211.95 431.483L1228.8 460.677M1211.95 431.483H1245.66M1228.81 402.289L1245.66 431.483M1228.81 402.289H1262.52M1245.66 431.483L1262.52 402.289M1245.66 431.483H1279.37M1262.52 402.289L1279.37 431.483M1262.52 402.289H1296.23M1279.37 431.483L1296.23 402.289M1279.37 431.483H1313.08M1296.23 402.289L1313.08 431.483M1313.08 431.483H1346.79M1346.79 431.483H1380.5M1346.79 431.483L1329.94 460.677M1346.79 431.483L1363.64 460.677M1346.79 431.483H1313.07M1380.5 431.483H1414.21M1380.5 431.483L1363.64 460.677M1380.5 431.483L1397.35 460.677M1414.21 431.483H1447.92M1414.21 431.483L1397.35 460.677M1414.21 431.483L1431.06 460.677M1447.92 431.483L1464.78 402.289M1447.92 431.483H1481.63M1447.92 431.483L1431.06 460.677M1447.92 431.483L1464.77 460.677M1447.92 431.483H1481.63M1464.78 402.289L1481.63 431.483M1464.78 402.289H1498.49M1481.63 431.483L1498.49 402.289M1481.63 431.483H1515.34M1498.49 402.289L1515.34 431.483M1498.49 402.289H1532.2M1515.34 431.483L1532.2 402.289M1515.34 431.483H1549.05M1532.2 402.289L1549.05 431.483M1549.05 431.483H1582.76M1549.05 431.483L1532.19 460.677M1549.05 431.483L1565.91 460.677M1549.05 431.483H1515.34M1582.76 431.483H1616.47M1582.76 431.483L1565.91 460.677M1582.76 431.483L1599.61 460.677M1616.47 431.483H1650.18M1616.47 431.483L1599.61 460.677M1616.47 431.483L1633.32 460.677M1650.18 431.483H1683.89M1650.18 431.483L1633.32 460.677M1650.18 431.483L1667.03 460.677M1650.18 431.483H1683.89M1683.89 431.483L1700.75 402.289M1683.89 431.483H1717.6M1700.75 402.289L1717.6 431.483M1700.75 402.289H1734.46M1717.6 431.483L1734.46 402.289M1717.6 431.483H1751.31M1734.46 402.289L1751.31 431.483M1751.31 431.483H1785.02M1785.02 431.483H1818.73M1785.02 431.483L1768.17 460.677M1785.02 431.483L1801.87 460.677M1785.02 431.483H1751.3M1818.73 431.483H1852.44M1818.73 431.483L1801.87 460.677M1818.73 431.483L1835.58 460.677M1852.44 431.483H1886.15M1852.44 431.483L1835.58 460.677M1852.44 431.483L1869.29 460.677M1886.15 431.483L1903.01 402.289M1886.15 431.483H1919.86M1886.15 431.483L1869.29 460.677M1886.15 431.483L1903 460.677M1886.15 431.483H1919.86M1903.01 402.289L1919.86 431.483M1903.01 402.289H1936.72M1919.86 431.483L1936.72 402.289M1919.86 431.483H1953.57M1936.72 402.289L1953.57 431.483M1936.72 402.289H1970.43M1953.57 431.483L1970.43 402.289M1953.57 431.483H1987.28M1970.43 402.289L1987.28 431.483M1987.28 431.483H2020.99M1987.28 431.483L1970.42 460.677M1987.28 431.483L2004.13 460.677M1987.28 431.483H1953.56M2020.99 431.483H2054.7M2020.99 431.483L2004.13 460.677M2020.99 431.483L2037.84 460.677M2054.7 431.483H2088.41M2054.7 431.483L2037.84 460.677M2054.7 431.483L2071.55 460.677M2088.41 431.483L2071.55 460.677M2088.41 431.483L2105.26 460.677M841.136 431.483L824.282 460.677H857.991M841.136 431.483L857.991 460.677M857.991 460.677H891.706M891.706 460.677H925.415M891.706 460.677L874.852 489.87M891.706 460.677L908.561 489.87M891.706 460.677H857.997M925.415 460.677H959.124M925.415 460.677L908.561 489.87M925.415 460.677L942.27 489.87M959.124 460.677H992.833M959.124 460.677L942.27 489.87M959.124 460.677L975.979 489.87M992.833 460.677L1009.69 431.483M992.833 460.677H1026.54M992.833 460.677L975.979 489.87M992.833 460.677L1009.69 489.87M992.833 460.677H1026.55M1009.69 431.483L1026.54 460.677M1009.69 431.483H1043.4M1026.54 460.677L1043.4 431.483M1026.54 460.677H1060.25M1043.4 431.483L1060.25 460.677M1043.4 431.483H1077.11M1060.25 460.677L1077.11 431.483M1060.25 460.677H1093.96M1077.11 431.483L1093.96 460.677M1093.96 460.677H1127.68M1127.68 460.677H1161.38M1127.68 460.677L1110.82 489.87M1127.68 460.677L1144.53 489.87M1127.68 460.677H1093.97M1161.38 460.677H1195.09M1161.38 460.677L1144.53 489.87M1161.38 460.677L1178.24 489.87M1195.09 460.677H1228.8M1195.09 460.677L1178.24 489.87M1195.09 460.677L1211.95 489.87M1195.09 460.677H1228.81M1228.8 460.677L1245.66 431.483M1228.8 460.677H1262.51M1245.66 431.483L1262.51 460.677M1245.66 431.483H1279.37M1262.51 460.677L1279.37 431.483M1262.51 460.677H1296.22M1279.37 431.483L1296.22 460.677M1279.37 431.483H1313.07M1296.22 460.677L1313.07 431.483M1296.22 460.677H1329.94M1313.07 431.483L1329.94 460.677M1329.94 460.677H1363.64M1329.94 460.677L1313.08 489.87M1329.94 460.677L1346.79 489.87M1329.94 460.677H1296.23M1363.64 460.677H1397.35M1363.64 460.677L1346.79 489.87M1363.64 460.677L1380.5 489.87M1397.35 460.677H1431.06M1397.35 460.677L1380.5 489.87M1397.35 460.677L1414.21 489.87M1431.06 460.677H1464.77M1431.06 460.677L1414.21 489.87M1431.06 460.677L1447.92 489.87M1431.06 460.677H1464.78M1464.77 460.677L1481.63 431.483M1464.77 460.677H1498.48M1481.63 431.483L1498.48 460.677M1481.63 431.483H1515.34M1498.48 460.677L1515.34 431.483M1498.48 460.677H1532.19M1515.34 431.483L1532.19 460.677M1532.19 460.677H1565.91M1565.91 460.677H1599.61M1565.91 460.677L1549.05 489.87M1565.91 460.677L1582.76 489.87M1565.91 460.677H1532.2M1599.61 460.677H1633.32M1599.61 460.677L1582.76 489.87M1599.61 460.677L1616.47 489.87M1633.32 460.677H1667.03M1633.32 460.677L1616.47 489.87M1633.32 460.677L1650.18 489.87M1667.03 460.677L1683.89 431.483M1667.03 460.677H1700.74M1667.03 460.677L1650.18 489.87M1667.03 460.677L1683.89 489.87M1667.03 460.677H1700.75M1683.89 431.483L1700.74 460.677M1683.89 431.483H1717.6M1700.74 460.677L1717.6 431.483M1700.74 460.677H1734.45M1717.6 431.483L1734.45 460.677M1717.6 431.483H1751.3M1734.45 460.677L1751.3 431.483M1734.45 460.677H1768.17M1751.3 431.483L1768.17 460.677M1768.17 460.677H1801.87M1768.17 460.677L1751.31 489.87M1768.17 460.677L1785.02 489.87M1768.17 460.677H1734.46M1801.87 460.677H1835.58M1801.87 460.677L1785.02 489.87M1801.87 460.677L1818.73 489.87M1835.58 460.677H1869.29M1835.58 460.677L1818.73 489.87M1835.58 460.677L1852.44 489.87M1869.29 460.677H1903M1869.29 460.677L1852.44 489.87M1869.29 460.677L1886.15 489.87M1869.29 460.677H1903.01M1903 460.677L1919.86 431.483M1903 460.677H1936.71M1919.86 431.483L1936.71 460.677M1919.86 431.483H1953.56M1936.71 460.677L1953.56 431.483M1936.71 460.677H1970.42M1953.56 431.483L1970.42 460.677M1970.42 460.677H2004.13M2004.13 460.677H2037.84M2004.13 460.677L1987.28 489.87M2004.13 460.677L2020.99 489.87M2004.13 460.677H1970.43M2037.84 460.677H2071.55M2037.84 460.677L2020.99 489.87M2037.84 460.677L2054.7 489.87M2071.55 460.677H2105.26M2071.55 460.677L2054.7 489.87M2071.55 460.677L2088.41 489.87M2105.26 460.677L2088.41 489.87M857.997 460.677L841.143 489.87M857.997 460.677L874.852 489.87M857.997 460.677H824.288L841.143 489.87M841.143 489.87H874.852M874.852 489.87H908.561M874.852 489.87L857.991 519.064M874.852 489.87L891.706 519.064M874.852 489.87H841.136M908.561 489.87H942.27M908.561 489.87L891.706 519.064M908.561 489.87L925.415 519.064M942.27 489.87H975.979M942.27 489.87L925.415 519.064M942.27 489.87L959.124 519.064M975.979 489.87H1009.69M975.979 489.87L959.124 519.064M975.979 489.87L992.833 519.064M975.979 489.87H1009.69M1009.69 489.87L1026.55 460.677M1009.69 489.87H1043.4M1026.55 460.677L1043.4 489.87M1026.55 460.677H1060.26M1043.4 489.87L1060.26 460.677M1043.4 489.87H1077.11M1060.26 460.677L1077.11 489.87M1060.26 460.677H1093.97M1077.11 489.87L1093.97 460.677M1077.11 489.87H1110.82M1093.97 460.677L1110.82 489.87M1110.82 489.87H1144.53M1110.82 489.87L1093.96 519.064M1110.82 489.87L1127.68 519.064M1110.82 489.87H1077.11M1144.53 489.87H1178.24M1144.53 489.87L1127.68 519.064M1144.53 489.87L1161.38 519.064M1178.24 489.87H1211.95M1178.24 489.87L1161.38 519.064M1178.24 489.87L1195.09 519.064M1211.95 489.87L1228.81 460.677M1211.95 489.87H1245.66M1211.95 489.87L1195.09 519.064M1211.95 489.87L1228.8 519.064M1211.95 489.87H1245.66M1228.81 460.677L1245.66 489.87M1228.81 460.677H1262.52M1245.66 489.87L1262.52 460.677M1245.66 489.87H1279.37M1262.52 460.677L1279.37 489.87M1262.52 460.677H1296.23M1279.37 489.87L1296.23 460.677M1279.37 489.87H1313.08M1296.23 460.677L1313.08 489.87M1313.08 489.87H1346.79M1346.79 489.87H1380.5M1346.79 489.87L1329.94 519.064M1346.79 489.87L1363.64 519.064M1346.79 489.87H1313.07M1380.5 489.87H1414.21M1380.5 489.87L1363.64 519.064M1380.5 489.87L1397.35 519.064M1414.21 489.87H1447.92M1414.21 489.87L1397.35 519.064M1414.21 489.87L1431.06 519.064M1447.92 489.87L1464.78 460.677M1447.92 489.87H1481.63M1447.92 489.87L1431.06 519.064M1447.92 489.87L1464.77 519.064M1447.92 489.87H1481.63M1464.78 460.677L1481.63 489.87M1464.78 460.677H1498.49M1481.63 489.87L1498.49 460.677M1481.63 489.87H1515.34M1498.49 460.677L1515.34 489.87M1498.49 460.677H1532.2M1515.34 489.87L1532.2 460.677M1515.34 489.87H1549.05M1532.2 460.677L1549.05 489.87M1549.05 489.87H1582.76M1549.05 489.87L1532.19 519.064M1549.05 489.87L1565.91 519.064M1549.05 489.87H1515.34M1582.76 489.87H1616.47M1582.76 489.87L1565.91 519.064M1582.76 489.87L1599.61 519.064M1616.47 489.87H1650.18M1616.47 489.87L1599.61 519.064M1616.47 489.87L1633.32 519.064M1650.18 489.87H1683.89M1650.18 489.87L1633.32 519.064M1650.18 489.87L1667.03 519.064M1650.18 489.87H1683.89M1683.89 489.87L1700.75 460.677M1683.89 489.87H1717.6M1700.75 460.677L1717.6 489.87M1700.75 460.677H1734.46M1717.6 489.87L1734.46 460.677M1717.6 489.87H1751.31M1734.46 460.677L1751.31 489.87M1751.31 489.87H1785.02M1785.02 489.87H1818.73M1785.02 489.87L1768.17 519.064M1785.02 489.87L1801.87 519.064M1785.02 489.87H1751.3M1818.73 489.87H1852.44M1818.73 489.87L1801.87 519.064M1818.73 489.87L1835.58 519.064M1852.44 489.87H1886.15M1852.44 489.87L1835.58 519.064M1852.44 489.87L1869.29 519.064M1886.15 489.87L1903.01 460.677M1886.15 489.87H1919.86M1886.15 489.87L1869.29 519.064M1886.15 489.87L1903 519.064M1886.15 489.87H1919.86M1903.01 460.677L1919.86 489.87M1903.01 460.677H1936.72M1919.86 489.87L1936.72 460.677M1919.86 489.87H1953.57M1936.72 460.677L1953.57 489.87M1936.72 460.677H1970.43M1953.57 489.87L1970.43 460.677M1953.57 489.87H1987.28M1970.43 460.677L1987.28 489.87M1987.28 489.87H2020.99M1987.28 489.87L1970.42 519.064M1987.28 489.87L2004.13 519.064M1987.28 489.87H1953.56M2020.99 489.87H2054.7M2020.99 489.87L2004.13 519.064M2020.99 489.87L2037.84 519.064M2054.7 489.87H2088.41M2054.7 489.87L2037.84 519.064M2054.7 489.87L2071.55 519.064M2088.41 489.87L2071.55 519.064M2088.41 489.87L2105.26 519.064M841.136 489.87L824.282 519.064H857.991M841.136 489.87L857.991 519.064M857.991 519.064H891.706M891.706 519.064H925.415M891.706 519.064L874.852 548.258M891.706 519.064L908.561 548.258M891.706 519.064H857.997M925.415 519.064H959.124M925.415 519.064L908.561 548.258M925.415 519.064L942.27 548.258M959.124 519.064H992.833M959.124 519.064L942.27 548.258M959.124 519.064L975.979 548.258M992.833 519.064L1009.69 489.87M992.833 519.064H1026.54M992.833 519.064L975.979 548.258M992.833 519.064L1009.69 548.258M992.833 519.064H1026.55M1009.69 489.87L1026.54 519.064M1009.69 489.87H1043.4M1026.54 519.064L1043.4 489.87M1026.54 519.064H1060.25M1043.4 489.87L1060.25 519.064M1043.4 489.87H1077.11M1060.25 519.064L1077.11 489.87M1060.25 519.064H1093.96M1077.11 489.87L1093.96 519.064M1093.96 519.064H1127.68M1127.68 519.064H1161.38M1127.68 519.064L1110.82 548.258M1127.68 519.064L1144.53 548.258M1127.68 519.064H1093.97M1161.38 519.064H1195.09M1161.38 519.064L1144.53 548.258M1161.38 519.064L1178.24 548.258M1195.09 519.064H1228.8M1195.09 519.064L1178.24 548.258M1195.09 519.064L1211.95 548.258M1195.09 519.064H1228.81M1228.8 519.064L1245.66 489.87M1228.8 519.064H1262.51M1245.66 489.87L1262.51 519.064M1245.66 489.87H1279.37M1262.51 519.064L1279.37 489.87M1262.51 519.064H1296.22M1279.37 489.87L1296.22 519.064M1279.37 489.87H1313.07M1296.22 519.064L1313.07 489.87M1296.22 519.064H1329.94M1313.07 489.87L1329.94 519.064M1329.94 519.064H1363.64M1329.94 519.064L1313.08 548.258M1329.94 519.064L1346.79 548.258M1329.94 519.064H1296.23M1363.64 519.064H1397.35M1363.64 519.064L1346.79 548.258M1363.64 519.064L1380.5 548.258M1397.35 519.064H1431.06M1397.35 519.064L1380.5 548.258M1397.35 519.064L1414.21 548.258M1431.06 519.064H1464.77M1431.06 519.064L1414.21 548.258M1431.06 519.064L1447.92 548.258M1431.06 519.064H1464.78M1464.77 519.064L1481.63 489.87M1464.77 519.064H1498.48M1481.63 489.87L1498.48 519.064M1481.63 489.87H1515.34M1498.48 519.064L1515.34 489.87M1498.48 519.064H1532.19M1515.34 489.87L1532.19 519.064M1532.19 519.064H1565.91M1565.91 519.064H1599.61M1565.91 519.064L1549.05 548.258M1565.91 519.064L1582.76 548.258M1565.91 519.064H1532.2M1599.61 519.064H1633.32M1599.61 519.064L1582.76 548.258M1599.61 519.064L1616.47 548.258M1633.32 519.064H1667.03M1633.32 519.064L1616.47 548.258M1633.32 519.064L1650.18 548.258M1667.03 519.064L1683.89 489.87M1667.03 519.064H1700.74M1667.03 519.064L1650.18 548.258M1667.03 519.064L1683.89 548.258M1667.03 519.064H1700.75M1683.89 489.87L1700.74 519.064M1683.89 489.87H1717.6M1700.74 519.064L1717.6 489.87M1700.74 519.064H1734.45M1717.6 489.87L1734.45 519.064M1717.6 489.87H1751.3M1734.45 519.064L1751.3 489.87M1734.45 519.064H1768.17M1751.3 489.87L1768.17 519.064M1768.17 519.064H1801.87M1768.17 519.064L1751.31 548.258M1768.17 519.064L1785.02 548.258M1768.17 519.064H1734.46M1801.87 519.064H1835.58M1801.87 519.064L1785.02 548.258M1801.87 519.064L1818.73 548.258M1835.58 519.064H1869.29M1835.58 519.064L1818.73 548.258M1835.58 519.064L1852.44 548.258M1869.29 519.064H1903M1869.29 519.064L1852.44 548.258M1869.29 519.064L1886.15 548.258M1869.29 519.064H1903.01M1903 519.064L1919.86 489.87M1903 519.064H1936.71M1919.86 489.87L1936.71 519.064M1919.86 489.87H1953.56M1936.71 519.064L1953.56 489.87M1936.71 519.064H1970.42M1953.56 489.87L1970.42 519.064M1970.42 519.064H2004.13M2004.13 519.064H2037.84M2004.13 519.064L1987.28 548.258M2004.13 519.064L2020.99 548.258M2004.13 519.064H1970.43M2037.84 519.064H2071.55M2037.84 519.064L2020.99 548.258M2037.84 519.064L2054.7 548.258M2071.55 519.064H2105.26M2071.55 519.064L2054.7 548.258M2071.55 519.064L2088.41 548.258M2105.26 519.064L2088.41 548.258M857.997 519.064L841.143 548.258M857.997 519.064L874.852 548.258M857.997 519.064H824.288L841.143 548.258M841.143 548.258H874.852M874.852 548.258H908.561M874.852 548.258L857.991 577.451M874.852 548.258L891.706 577.451M874.852 548.258H841.136M908.561 548.258H942.27M908.561 548.258L891.706 577.451M908.561 548.258L925.415 577.451M942.27 548.258H975.979M942.27 548.258L925.415 577.451M942.27 548.258L959.124 577.451M975.979 548.258H1009.69M975.979 548.258L959.124 577.451M975.979 548.258L992.833 577.451M975.979 548.258H1009.69M1009.69 548.258L1026.55 519.064M1009.69 548.258H1043.4M1026.55 519.064L1043.4 548.258M1026.55 519.064H1060.26M1043.4 548.258L1060.26 519.064M1043.4 548.258H1077.11M1060.26 519.064L1077.11 548.258M1060.26 519.064H1093.97M1077.11 548.258L1093.97 519.064M1077.11 548.258H1110.82M1093.97 519.064L1110.82 548.258M1110.82 548.258H1144.53M1110.82 548.258L1093.96 577.451M1110.82 548.258L1127.68 577.451M1110.82 548.258H1077.11M1144.53 548.258H1178.24M1144.53 548.258L1127.68 577.451M1144.53 548.258L1161.38 577.451M1178.24 548.258H1211.95M1178.24 548.258L1161.38 577.451M1178.24 548.258L1195.09 577.451M1211.95 548.258L1228.81 519.064M1211.95 548.258H1245.66M1211.95 548.258L1195.09 577.451M1211.95 548.258L1228.8 577.451M1211.95 548.258H1245.66M1228.81 519.064L1245.66 548.258M1228.81 519.064H1262.52M1245.66 548.258L1262.52 519.064M1245.66 548.258H1279.37M1262.52 519.064L1279.37 548.258M1262.52 519.064H1296.23M1279.37 548.258L1296.23 519.064M1279.37 548.258H1313.08M1296.23 519.064L1313.08 548.258M1313.08 548.258H1346.79M1346.79 548.258H1380.5M1346.79 548.258L1329.94 577.451M1346.79 548.258L1363.64 577.451M1346.79 548.258H1313.07M1380.5 548.258H1414.21M1380.5 548.258L1363.64 577.451M1380.5 548.258L1397.35 577.451M1414.21 548.258H1447.92M1414.21 548.258L1397.35 577.451M1414.21 548.258L1431.06 577.451M1447.92 548.258L1464.78 519.064M1447.92 548.258H1481.63M1447.92 548.258L1431.06 577.451M1447.92 548.258L1464.77 577.451M1447.92 548.258H1481.63M1464.78 519.064L1481.63 548.258M1464.78 519.064H1498.49M1481.63 548.258L1498.49 519.064M1481.63 548.258H1515.34M1498.49 519.064L1515.34 548.258M1498.49 519.064H1532.2M1515.34 548.258L1532.2 519.064M1515.34 548.258H1549.05M1532.2 519.064L1549.05 548.258M1549.05 548.258H1582.76M1549.05 548.258L1532.19 577.451M1549.05 548.258L1565.91 577.451M1549.05 548.258H1515.34M1582.76 548.258H1616.47M1582.76 548.258L1565.91 577.451M1582.76 548.258L1599.61 577.451M1616.47 548.258H1650.18M1616.47 548.258L1599.61 577.451M1616.47 548.258L1633.32 577.451M1650.18 548.258H1683.89M1650.18 548.258L1633.32 577.451M1650.18 548.258L1667.03 577.451M1650.18 548.258H1683.89M1683.89 548.258L1700.75 519.064M1683.89 548.258H1717.6M1700.75 519.064L1717.6 548.258M1700.75 519.064H1734.46M1717.6 548.258L1734.46 519.064M1717.6 548.258H1751.31M1734.46 519.064L1751.31 548.258M1751.31 548.258H1785.02M1785.02 548.258H1818.73M1785.02 548.258L1768.17 577.451M1785.02 548.258L1801.87 577.451M1785.02 548.258H1751.3M1818.73 548.258H1852.44M1818.73 548.258L1801.87 577.451M1818.73 548.258L1835.58 577.451M1852.44 548.258H1886.15M1852.44 548.258L1835.58 577.451M1852.44 548.258L1869.29 577.451M1886.15 548.258L1903.01 519.064M1886.15 548.258H1919.86M1886.15 548.258L1869.29 577.451M1886.15 548.258L1903 577.451M1886.15 548.258H1919.86M1903.01 519.064L1919.86 548.258M1903.01 519.064H1936.72M1919.86 548.258L1936.72 519.064M1919.86 548.258H1953.57M1936.72 519.064L1953.57 548.258M1936.72 519.064H1970.43M1953.57 548.258L1970.43 519.064M1953.57 548.258H1987.28M1970.43 519.064L1987.28 548.258M1987.28 548.258H2020.99M1987.28 548.258L1970.42 577.451M1987.28 548.258L2004.13 577.451M1987.28 548.258H1953.56M2020.99 548.258H2054.7M2020.99 548.258L2004.13 577.451M2020.99 548.258L2037.84 577.451M2054.7 548.258H2088.41M2054.7 548.258L2037.84 577.451M2054.7 548.258L2071.55 577.451M2088.41 548.258L2071.55 577.451M2088.41 548.258L2105.26 577.451H2071.55M841.136 548.258L824.282 577.451H857.991M841.136 548.258L857.991 577.451M857.991 577.451H891.706M891.706 577.451H925.415M925.415 577.451H959.124M959.124 577.451H992.833M992.833 577.451L1009.69 548.258M992.833 577.451H1026.54M1009.69 548.258L1026.54 577.451M1009.69 548.258H1043.4M1026.54 577.451L1043.4 548.258M1026.54 577.451H1060.25M1043.4 548.258L1060.25 577.451M1043.4 548.258H1077.11M1060.25 577.451L1077.11 548.258M1060.25 577.451H1093.96M1077.11 548.258L1093.96 577.451M1093.96 577.451H1127.68M1127.68 577.451H1161.38M1161.38 577.451H1195.09M1195.09 577.451H1228.8M1228.8 577.451L1245.66 548.258M1228.8 577.451H1262.51M1245.66 548.258L1262.51 577.451M1245.66 548.258H1279.37M1262.51 577.451L1279.37 548.258M1262.51 577.451H1296.22M1279.37 548.258L1296.22 577.451M1279.37 548.258H1313.07M1296.22 577.451L1313.07 548.258M1296.22 577.451H1329.94M1313.07 548.258L1329.94 577.451M1329.94 577.451H1363.64M1363.64 577.451H1397.35M1397.35 577.451H1431.06M1431.06 577.451H1464.77M1464.77 577.451L1481.63 548.258M1464.77 577.451H1498.48M1481.63 548.258L1498.48 577.451M1481.63 548.258H1515.34M1498.48 577.451L1515.34 548.258M1498.48 577.451H1532.19M1515.34 548.258L1532.19 577.451M1532.19 577.451H1565.91M1565.91 577.451H1599.61M1599.61 577.451H1633.32M1633.32 577.451H1667.03M1667.03 577.451L1683.89 548.258M1667.03 577.451H1700.74M1683.89 548.258L1700.74 577.451M1683.89 548.258H1717.6M1700.74 577.451L1717.6 548.258M1700.74 577.451H1734.45M1717.6 548.258L1734.45 577.451M1717.6 548.258H1751.3M1734.45 577.451L1751.3 548.258M1734.45 577.451H1768.17M1751.3 548.258L1768.17 577.451M1768.17 577.451H1801.87M1801.87 577.451H1835.58M1835.58 577.451H1869.29M1869.29 577.451H1903M1903 577.451L1919.86 548.258M1903 577.451H1936.71M1919.86 548.258L1936.71 577.451M1919.86 548.258H1953.56M1936.71 577.451L1953.56 548.258M1936.71 577.451H1970.42M1953.56 548.258L1970.42 577.451M1970.42 577.451H2004.13M2004.13 577.451H2037.84M2037.84 577.451H2071.55" stroke="url(#paint1_linear_239_1307)" stroke-width="0.315625" stroke-miterlimit="10"/>
</g>
<defs>
<linearGradient id="paint0_linear_239_1307" x1="1000" y1="-87.5" x2="1000" y2="538.5" gradientUnits="userSpaceOnUse">
<stop/>
<stop offset="0.651621" stop-color="#271734"/>
<stop offset="1" stop-color="#362742"/>
</linearGradient>
<linearGradient id="paint1_linear_239_1307" x1="1640" y1="146" x2="1062" y2="395" gradientUnits="userSpaceOnUse">
<stop stop-color="white"/>
<stop offset="1" stop-color="white" stop-opacity="0"/>
</linearGradient>
<clipPath id="clip0_239_1307">
<rect width="2000" height="400" fill="white"/>
</clipPath>
</defs>
</svg>
