<svg width="2000" height="400" viewBox="0 0 2000 400" fill="none" xmlns="http://www.w3.org/2000/svg">
<g clip-path="url(#clip0_254_1318)">
<rect width="2000" height="400" fill="white"/>
<rect width="2000" height="400" fill="url(#paint0_linear_254_1318)"/>
<path d="M1851.62 307.106L1851.62 307.097L1814.59 285.718M1851.62 307.106L1925.71 349.881M1851.62 307.106V392.656M1851.62 392.656L1814.59 414.045M1851.62 392.656L1925.71 349.881M1925.71 349.881L1925.71 178.781M1925.71 349.881L1925.71 478.206M1814.59 -56.4807L1851.62 -35.1018V-35.0932L1888.66 -13.7058M1814.59 -56.4807L1777.54 -35.0936M1814.59 -56.4807L1777.54 -77.8685M1814.59 -56.4807L1814.59 -99.2557M1814.59 -56.4807L1851.63 -77.8682L1814.59 -99.2557M1814.59 -56.4807L1888.66 -99.2557M1814.59 -56.4807L1814.59 29.07M1814.59 -56.4807L1888.66 -13.7058M1888.66 -13.7058L1925.71 -35.0932V-35.1018L1962.74 -56.4807M1888.66 -13.7058L1851.63 7.67392V7.68247L1814.59 29.07M1888.66 -13.7058V-99.2557M1888.66 -13.7058L1962.74 -56.4807M1888.66 -13.7058L1814.59 29.07M1888.66 -99.2557L1962.74 -56.4807M1888.66 200.168L1925.71 178.781M1888.66 200.168L1851.63 221.548V221.557L1814.59 242.943M1888.66 200.168L1814.59 242.943M1814.59 242.943L1777.54 264.331M1814.59 242.943L1777.54 221.557V221.549L1703.46 178.782V178.774L1629.39 136.007V135.999L1555.31 93.2321M1814.59 242.943L1814.59 29.07M1777.54 264.331L1814.59 285.718M1777.54 264.331V349.882M1814.59 285.718L1851.63 307.107M1925.71 178.781L1925.71 178.773L1962.74 157.394M1888.66 499.594L1851.62 478.206L1888.66 456.819M1888.66 499.594V456.819M1888.66 499.594L1925.71 478.206M1888.66 456.819L1925.71 478.206M1888.66 456.819L1851.62 435.432V435.424L1814.59 414.045M1888.66 456.819L1851.63 478.198V478.207L1814.59 499.594M1888.66 456.819L1814.59 414.045M1814.59 414.045L1777.55 435.423V435.431L1740.51 456.819M1814.59 414.045L1851.63 392.656M1814.59 414.045L1740.51 456.819M1814.59 414.045L1814.59 499.594M1962.74 -56.4807L1925.7 -77.8682L1962.74 -99.2557M1962.74 -56.4807L1962.74 -99.2557M1962.74 -56.4807L1999.78 -77.8682M1962.74 -56.4807L1999.78 -35.0936M1962.74 -56.4807L1962.74 -13.705M1962.74 -99.2557L1999.78 -77.8682M1999.78 -77.8682V-35.0936M1999.78 -35.0936L1962.74 -13.705M1999.78 -35.0936V7.68143M1962.74 -13.705L1999.78 7.68143M1962.74 -13.705V29.07M1999.78 7.68143L1962.74 29.07M1999.78 7.68143V50.4564M1962.74 29.07L1999.78 50.4564M1962.74 29.07V71.8443M1999.78 50.4564L1962.74 71.8443M1999.78 50.4564V93.2321M1962.74 71.8443L1999.78 93.2321M1962.74 71.8443V114.619M1999.78 93.2321L1962.74 114.619M1999.78 93.2321V136.006M1962.74 114.619L1999.78 136.006M1962.74 114.619L1925.7 93.2324V93.2238L1888.66 71.8449M1962.74 114.619L1888.66 71.8449M1999.78 136.006L1962.74 157.394M1999.78 136.006V178.783L1962.74 157.394M1777.55 -35.0925L1740.51 -56.48M1777.55 -35.0925L1740.51 -13.705V-56.48M1777.55 -35.0925V-77.8682M1740.51 -56.48L1703.47 -35.1018V-35.0935M1740.51 -56.48V-99.2557L1777.55 -77.8682M1740.51 -56.48L1777.55 -77.8682M1740.51 -56.48L1666.43 -99.2557M1259.02 136.008L1221.97 114.62M1259.02 136.008L1221.97 157.395M1259.02 136.008V178.783L1221.97 157.395M1221.97 114.62V157.395M1221.97 114.62L1184.94 135.999V136.007L1147.9 157.395M1221.97 114.62L1147.9 71.8447M1184.94 435.432L1147.89 414.044M1184.94 435.432L1147.89 456.819M1184.94 435.432V478.206M1147.89 414.044V456.819M1147.89 414.044L1184.94 392.657V392.648L1221.97 371.269M1147.89 414.044L1184.93 435.424L1184.93 435.432M1147.89 414.044V328.494L1221.97 371.269M1147.89 414.044L1221.97 371.269M1147.89 456.819L1184.94 478.206M1147.89 456.819V499.594L1184.94 478.206M1221.97 371.269L1221.97 328.494M1221.97 371.269L1259.02 349.881M1592.35 -56.4811L1555.31 -77.8685M1592.35 -56.4811L1629.4 -35.0936M1592.35 -56.4811V-99.2557M1592.35 -56.4811L1629.4 -77.8682M1555.31 -77.8685L1592.35 -99.2557M1555.31 -77.8685V7.68139M1555.31 7.68139L1592.35 -13.7061M1555.31 7.68139L1518.27 29.0689M1592.35 -13.7061L1629.4 -35.0936M1592.35 -13.7061L1629.4 7.68251M1592.35 -13.7061L1592.35 29.07M1592.35 -13.7061L1629.39 -35.0936M1592.35 -13.7061L1629.39 7.67392L1629.39 7.68147M1629.4 -35.0936L1629.4 -77.8682M1555.31 50.4572V93.2321M1555.31 50.4572L1592.35 71.8447M1555.31 50.4572L1555.31 50.4489L1518.27 29.0689M1555.31 93.2321L1592.35 71.8447M1592.35 71.8447L1592.35 29.07M1592.35 71.8447L1629.4 50.4564M1592.35 71.8447L1629.39 50.4564M1703.46 307.107L1777.55 264.332V349.882M1703.46 307.107L1777.55 349.882M1703.46 307.107V478.206M1777.55 349.882L1814.59 371.269M1555.31 392.657L1629.4 349.882V435.432M1555.31 392.657L1629.4 435.432M1555.31 392.657V478.206M1629.4 435.432L1592.35 456.819M1629.4 435.432L1629.4 478.206M1592.35 -99.2557L1629.4 -77.8682M1629.4 7.68251L1592.35 29.07M1629.4 7.68251V50.4564M1592.35 29.07L1629.4 50.4564M1296.05 456.82L1333.09 478.207M1296.05 456.82L1333.09 435.432M1296.05 456.82L1296.05 499.594M1296.05 456.82L1259 478.206M1333.09 478.207V435.432M1333.09 478.207L1296.05 499.594M1333.09 435.432L1333.09 435.423L1370.12 414.044M1444.2 -99.2557L1407.16 -77.8682M1444.2 -99.2557V-56.4807M1444.2 -99.2557L1481.24 -77.8682L1444.2 -56.4807M1407.16 -77.8682L1444.2 -56.4807M1407.16 -77.8682V7.68139M1444.2 -56.4807L1481.24 -35.0935M1444.2 -56.4807L1481.23 -35.1018V-35.0932M1444.2 -56.4807L1518.27 -99.2557M1444.2 -13.7061L1481.24 7.68143M1444.2 -13.7061L1481.24 -35.0935M1444.2 -13.7061V29.07M1444.2 -13.7061L1407.16 7.68139M1481.24 7.68143V-35.0935M1481.24 7.68143L1444.2 29.07M1481.24 7.68143V50.4564M1444.2 29.07L1481.24 50.4564M1444.2 29.07L1444.2 157.394M1481.24 50.4564L1518.27 71.8443M1407.16 349.882V392.657M1407.16 349.882L1444.2 371.27M1407.16 349.882V264.332L1481.24 307.107M1407.16 349.882L1481.24 307.107M1481.24 307.107V392.656M1407.16 392.657L1444.2 371.27M1407.16 392.657L1370.12 414.044M1444.2 371.27L1481.24 392.656M1444.2 371.27L1444.2 456.819M1481.24 392.656L1518.28 414.044M851.583 -99.2557L814.54 -77.8682M851.583 -99.2557V-56.4807M851.583 -99.2557L888.626 -77.8682M814.54 -77.8682L851.583 -56.4807M814.54 -77.8682V50.4572M851.583 -56.4807L888.626 -77.8682M851.583 -56.4807L888.626 -35.0936M888.626 -77.8682V-35.0936M888.626 -35.0936L925.661 -13.7061M814.54 50.4572V93.2321M814.54 50.4572L851.583 71.8447M814.54 50.4572L851.583 29.0689M814.54 93.2321L851.583 71.8447M814.54 93.2321V136.006M814.54 93.2321L851.583 114.619M851.583 71.8447V114.619M851.583 71.8447L888.618 93.2231V93.2317L925.66 114.619M851.583 71.8447L925.66 114.619M814.54 136.006L851.583 114.619M814.54 136.006L851.583 157.395M814.54 136.006V264.333M851.583 114.619V157.395M851.583 157.395L888.626 136.006V135.997L925.66 114.619M851.583 157.395L888.617 178.774V178.782L925.661 200.17M851.583 157.395L925.661 200.17M851.583 157.395L925.66 114.619M814.54 478.206L851.583 499.594M814.54 478.206L851.583 456.819M814.54 478.206V264.333M851.583 499.594V456.819M851.583 499.594L888.626 478.206M851.583 456.819L888.626 478.206M851.583 456.819L888.626 435.432M888.626 478.206V435.432M888.626 435.432L888.627 435.423L925.661 414.045M888.618 -77.8685V-35.0936M888.618 -77.8685L925.661 -56.4811M888.618 -77.8685L925.661 -99.2557V-56.4811M888.618 -35.0936L925.661 -56.4811M888.618 -35.0936L925.661 -13.7061M925.661 -56.4811L925.661 -13.7061M962.707 -77.8682L925.663 -99.2557V-56.4807M962.707 -77.8682L925.663 -56.4807M962.707 -77.8682V-35.0936M925.663 -56.4807L962.707 -35.0936M925.663 -56.4807V-13.705L962.707 -35.0936M925.661 -13.7061L888.627 7.67284V7.6814L851.583 29.0689M925.661 -13.7061L962.698 -35.0936M925.661 -13.7061L851.583 29.0689M925.66 114.619L962.696 135.998V136.007L999.739 157.393M925.66 114.619L925.661 200.17M962.707 136.008L925.663 114.62V157.395M962.707 136.008L925.663 157.395M962.707 136.008V178.783L925.663 157.395M925.661 200.17L888.627 221.549V221.558L814.54 264.333M814.54 264.333L851.583 285.72M888.618 435.432V478.207M888.618 435.432L925.661 456.82M888.618 435.432L925.661 414.045M888.618 478.207L925.661 456.82M888.618 478.207L925.661 499.594V456.82M925.661 456.82L962.696 478.197V478.206L999.739 499.593L999.739 371.27M962.698 -77.8685V-35.0936M962.698 -77.8685L999.741 -56.4811M962.698 -77.8685L999.741 -99.2557M962.698 -35.0936L999.741 -56.4811M999.741 -56.4811V-99.2557M999.741 -56.4811L1036.78 -77.8682L999.741 -99.2557M999.741 -56.4811L1073.82 -99.2557M925.661 328.495L888.618 307.105V307.097L851.583 285.72M925.661 328.495L962.696 349.872V349.88L999.739 371.27M925.661 328.495L999.739 371.27M925.661 328.495L851.583 285.72M851.583 285.72L814.54 264.33L999.739 157.393M925.661 414.045L962.704 392.657V392.648L999.739 371.27M925.661 414.045L999.739 371.27M999.739 371.27V157.393M999.739 157.393L1036.77 178.773V178.782L1073.82 200.169V157.394M1073.82 200.168L1036.78 221.547V221.555L999.741 242.943M1073.82 200.168L1073.82 157.394M1073.82 200.168L1110.86 178.78L1073.82 157.394M1073.82 200.168L999.741 157.393V242.943M999.741 242.943L1147.9 328.493M999.741 242.943V414.044M1073.82 157.394V114.619M1073.82 157.394L1110.86 136.006M1073.82 114.619V71.8442M1073.82 114.619L1110.86 93.2321M1073.82 114.619L1110.86 136.006M1073.82 71.8442V29.0692M1073.82 71.8442L1110.86 50.4568M1073.82 71.8442L1110.86 93.2321M1073.82 29.0692L1110.86 50.4568M1073.82 29.0692L1110.86 7.68247V7.67392L1147.9 -13.705M1073.82 29.0692L1110.85 50.4481L1110.85 50.4572M1073.82 29.0692V-56.4807M1073.82 29.0692L1147.9 -13.705M1073.82 -56.4807V-99.2557M1073.82 -56.4807L1110.86 -77.8682M1073.82 -56.4807L1110.86 -35.0936M1073.82 -99.2557L1110.86 -77.8682M1073.82 456.819L1036.78 478.198V478.207L999.741 499.594V414.044M1073.82 456.819L1036.78 435.432V435.423L999.741 414.044M1073.82 456.819L1110.85 478.198V478.207L1147.9 499.594V328.493M1073.82 456.819L999.741 414.044M999.741 414.044L1036.78 392.655V392.647L1073.82 371.268M999.741 414.044L1073.82 371.268M1147.9 328.493L1110.86 349.872V349.88L1073.82 371.268M1147.9 328.493L1073.82 371.268M1110.86 -77.8682V-35.0936M1110.86 -35.0936L1147.9 -13.705M1110.86 50.4568V93.2321M1110.86 93.2321V136.006M1110.86 136.006V178.783L1073.82 157.395L1110.86 136.006ZM1073.82 499.594L1036.77 478.206L1073.82 456.819M1073.82 499.594V456.819M1073.82 499.594L1110.86 478.206L1073.82 456.819M1110.85 -77.8685V-35.0936M1110.85 -77.8685L1147.9 -56.4811M1110.85 -77.8685L1147.9 -99.2557V-56.4811M1110.85 -35.0936L1147.9 -56.4811M1110.85 -35.0936L1147.9 -13.705M1147.9 -56.4811L1147.9 -13.705M1184.94 -77.8682L1147.89 -99.2557V-56.4807M1184.94 -77.8682L1147.89 -56.4807M1184.94 -77.8682V-35.0936M1147.89 -56.4807L1184.94 -35.0936M1147.89 -56.4807L1147.9 -13.705M1184.94 -35.0936L1147.9 -13.705M1147.9 -13.705L1184.93 -35.0936M1184.93 -77.8685V-35.0936M1184.93 -77.8685L1221.97 -56.4811M1184.93 -77.8685L1221.97 -99.2557M1184.93 -35.0936L1221.97 -56.4811M1221.97 -56.4811V-99.2557M1221.97 -56.4811L1259.02 -77.8682L1221.97 -99.2557M1221.97 -56.4811L1296.05 -99.2557M1147.9 71.8447L1110.85 50.4572M1147.9 71.8447L1184.93 93.2231V93.2317L1221.97 114.62M1110.85 50.4572V178.782M1110.85 178.782L1147.9 157.395M1110.85 178.782L999.741 242.945L1036.78 264.324V264.332L1110.85 307.099V307.107L1184.93 349.874V349.882L1221.97 371.27V114.62M1147.9 157.395L1221.97 114.62M1221.97 114.62L1259 135.998V136.007M1259 136.007L1296.05 157.394M1259 136.007L1259 178.783L1296.05 157.394M1296.05 157.394V71.8442M1296.05 157.394L1221.97 200.168M1296.05 157.394L1296.05 242.944M1296.05 71.8442L1333.09 50.4574V50.4489L1370.12 29.07M1296.05 71.8442L1333.08 93.2239V93.2324L1370.12 114.619M1296.05 71.8442V-56.4807M1296.05 71.8442L1370.12 114.619M1296.05 71.8442L1370.12 29.07M1296.05 -56.4807V-99.2557M1296.05 -56.4807L1333.09 -77.8682M1296.05 -56.4807L1333.09 -35.0936M1296.05 -99.2557L1333.09 -77.8682M1221.97 200.168V157.393L1259.02 178.78L1221.97 200.168ZM1221.97 200.168L1259 221.547L1259 221.556M1259.02 221.557L1221.97 200.17V242.945M1259.02 221.557L1221.97 242.945M1259.02 221.557V264.331M1221.97 242.945L1259.02 264.331M1259.02 264.331L1221.97 242.943V285.718M1259.02 264.331L1221.97 285.718M1221.97 285.718L1259.02 307.106M1221.97 285.718V328.494M1221.97 285.718L1259 264.331M1221.97 285.718L1259 307.098V307.106M1259.02 307.106L1221.97 328.494M1259.02 307.106V349.881M1221.97 328.494L1259.02 349.881M1259.02 349.881V478.206M1184.93 435.432V478.207M1184.93 435.432L1221.97 456.82M1184.93 478.207L1221.97 456.82M1184.93 478.207L1221.97 499.594M1221.97 456.82V499.594M1221.97 456.82L1259.02 478.206M1221.97 499.594L1259.02 478.206M1333.09 -77.8682V-35.0936M1333.09 -35.0936L1370.12 -13.705M1259 221.556V264.331M1259 221.556L1296.05 242.944M1259 264.331L1296.05 242.944M1296.05 242.944L1333.09 221.556M1333.09 221.556L1333.09 221.547L1370.12 200.168M1333.09 221.556V349.881M1259 307.106L1333.09 349.881M1259 307.106L1259 478.206M1333.09 349.881L1370.12 371.269M1259 478.206L1296.05 499.594M1333.08 -77.8685V-35.0936M1333.08 -77.8685L1370.12 -56.4811M1333.08 -77.8685L1370.12 -99.2557V-56.4811M1333.08 -35.0936L1370.12 -56.4811M1333.08 -35.0936L1370.12 -13.705M1370.12 -56.4811V-13.705M1407.17 -77.8682L1370.12 -99.2557V-56.4807M1407.17 -77.8682L1370.12 -56.4807M1407.17 -77.8682V-35.0936M1370.12 -56.4807L1407.17 -35.0936M1370.12 -56.4807V-13.705M1407.17 -35.0936L1370.12 -13.705M1407.17 -35.0936V7.68143M1370.12 -13.705L1407.17 7.68143M1370.12 -13.705L1407.17 7.68143M1407.17 7.68143L1370.12 29.07M1370.12 29.07L1407.16 7.68139M1370.12 242.944L1333.08 221.556M1370.12 242.944L1407.17 264.331M1370.12 242.944L1407.15 264.322V264.33L1444.2 285.718M1333.08 221.556L1370.12 200.168M1333.08 221.556V307.106M1333.08 307.106V349.881M1333.08 307.106L1370.12 328.494M1333.08 307.106L1407.17 264.331M1407.17 264.331V349.882L1370.12 328.494M1333.08 349.881L1370.12 328.494M1333.08 349.881L1370.12 371.269M1370.12 328.494V371.269M1370.12 371.269L1407.17 392.657M1407.17 349.882L1370.12 328.494V371.269M1407.17 349.882L1370.12 371.269M1407.17 349.882V392.657M1370.12 371.269L1407.17 392.657M1407.17 392.657L1370.12 414.044M1370.12 414.044L1333.08 435.432M1333.08 435.432V478.207M1333.08 435.432L1370.12 456.82M1333.08 478.207L1370.12 456.82M1333.08 478.207L1370.12 499.594V456.82M1370.12 456.82L1407.15 478.197V478.206L1444.2 499.593M1370.12 114.619L1407.16 135.999V136.007L1444.2 157.394M1370.12 114.619L1444.2 157.394M1370.12 200.168L1407.17 178.781V178.772L1444.2 157.394M1370.12 200.168L1444.2 157.394M1444.2 157.394L1481.24 136.007V135.998L1518.28 114.619M1444.2 157.394L1481.23 178.773V178.781L1518.28 200.169M1444.2 157.394L1444.2 285.718M1444.2 157.394L1518.28 114.619M1444.2 157.394L1518.28 200.169M1444.2 285.718L1481.24 264.33V264.322L1518.28 242.943M1444.2 285.718L1481.23 307.098V307.106M1444.2 285.718L1518.28 242.943M1444.2 499.593V456.819M1444.2 499.593L1481.24 478.206M1444.2 456.819L1481.24 478.206M1444.2 456.819L1481.24 435.432M1481.24 478.206V435.432M1481.24 435.432V435.422L1518.28 414.044M1555.32 -77.8682L1518.27 -99.2557M1555.32 -77.8682L1518.27 -56.4807M1555.32 -77.8682V-35.0936M1518.27 -99.2557V-56.4807M1518.27 -56.4807L1555.32 -35.0936M1518.27 -56.4807L1518.28 -13.7058M1555.32 -35.0936L1518.28 -13.7058M1555.32 -35.0936V7.68143M1481.23 -35.0932L1518.28 -13.7058M1481.23 -35.0932L1481.23 50.4564M1518.28 -13.7058L1555.32 7.68143M1555.32 7.68143L1518.27 29.0689M1481.23 50.4564L1518.27 29.0689M1481.23 50.4564L1518.27 71.8443M1518.27 29.0689V71.8443M1518.27 29.0689L1555.32 50.4568M1518.27 71.8443L1555.32 50.4568M1518.27 71.8443L1555.32 93.2321M1555.32 50.4568V93.2321M1555.32 93.2321L1518.28 114.619M1555.32 93.2321L1555.32 221.556M1518.28 200.169L1555.32 221.556M1555.32 221.556L1518.28 242.943M1555.32 221.556V349.881M1481.23 307.106L1555.32 349.881M1481.23 307.106L1481.23 392.656M1555.32 349.881L1481.23 392.656M1555.32 349.881L1555.32 435.432M1481.23 392.656L1518.28 414.044M1518.28 414.044L1555.32 435.432M1518.28 414.044L1481.23 435.432M1518.28 414.044L1518.27 456.82M1555.32 435.432L1518.27 456.82M1555.32 435.432L1555.32 478.206M1481.23 435.432V478.207M1481.23 435.432L1518.27 456.82M1481.23 478.207L1518.27 456.82M1481.23 478.207L1518.27 499.594M1518.27 456.82V499.594M1518.27 456.82L1555.32 478.206M1518.27 499.594L1555.32 478.206M1555.31 478.206L1592.35 456.819M1555.31 478.206L1592.35 499.594M1592.35 456.819V499.594M1592.35 456.819L1629.4 478.206M1592.35 499.594L1629.4 478.206M1629.39 -77.8685V-35.0936M1629.39 -77.8685L1666.43 -56.4811M1629.39 -77.8685L1666.43 -99.2557M1629.39 -35.0936L1666.43 -56.4811M1666.43 -56.4811V-99.2557M1666.43 -56.4811L1666.43 -13.7061M1666.43 -13.7061L1703.47 7.68143M1666.43 -13.7061L1703.47 -35.0935M1666.43 -13.7061L1666.43 29.069M1703.47 7.68143V-35.0935M1703.47 7.68143L1666.43 29.069M1629.39 7.68147V50.4564M1629.39 7.68147L1666.43 29.069M1629.39 50.4564L1666.43 29.069M1666.43 29.069L1703.46 7.68143M1629.39 349.881L1703.47 307.106V392.656M1629.39 349.881L1703.47 392.656M1629.39 349.881V435.432M1703.47 392.656L1629.39 435.432M1703.47 392.656L1703.47 478.206M1629.39 435.432V478.207M1629.39 435.432L1666.43 456.82M1629.39 478.207L1666.43 456.82M1629.39 478.207L1666.43 499.594M1666.43 456.82V499.594M1666.43 456.82L1703.47 478.206M1666.43 499.594L1703.47 478.206M1740.51 -56.4807L1703.46 -77.8682L1740.51 -99.2557V-56.4807ZM1740.51 -56.4807L1703.46 -35.0935M1740.51 -56.4807V-13.7061M1703.46 -35.0935V7.68143M1703.46 -35.0935L1740.51 -13.7061M1703.46 7.68143L1740.51 -13.7061M1740.51 -13.7061L1777.54 -35.0936M1703.46 478.206L1740.51 499.594V456.819M1703.46 478.206L1740.51 456.819M1740.51 456.819L1777.55 478.206L1740.51 499.594V456.819ZM1740.51 456.819L1777.54 478.198V478.207L1814.59 499.594M1777.54 -77.8685V-35.0936M1777.54 -77.8685L1814.59 -99.2557M1814.59 29.07L1851.62 50.4489V50.4574L1888.66 71.8449M1814.59 29.07L1888.66 71.8449M1777.54 349.882L1814.59 371.269M1777.54 349.882L1851.63 307.107M1851.63 307.107V392.656M1814.59 371.269L1851.63 392.656M1962.74 157.394L1925.7 178.781M1962.74 157.394L1962.74 200.168M1962.74 157.394L1999.78 178.78M1925.7 178.781V221.556M1925.7 178.781L1962.74 200.168M1925.7 221.556L1962.74 200.168M1925.7 221.556V264.331M1925.7 221.556L1962.74 242.944M1962.74 200.168L1999.78 178.78M1999.78 178.78L1999.78 264.331M1925.7 264.331L1962.74 242.944M1925.7 264.331L1962.74 285.718M1925.7 264.331V349.882M1962.74 242.944L1999.78 264.331M1962.74 242.944V285.718M1999.78 264.331L1962.74 285.718M1999.78 264.331L1999.78 307.107M1999.78 264.331L1962.74 285.72L1999.78 307.107M1962.74 285.718L1999.78 307.107M1999.78 307.107L1925.7 349.882M1999.78 307.107L1999.78 392.656M1925.7 349.882V392.657M1925.7 349.882L1962.74 371.27M1925.7 392.657L1962.74 371.27M1925.7 392.657L1962.74 414.044M1925.7 392.657V478.206M1962.74 371.27L1999.78 392.656M1962.74 371.27V414.044M1999.78 392.656L1962.74 414.044M1999.78 392.656L1999.78 435.431M1962.74 414.044L1999.78 435.431M1999.78 435.431L1962.74 456.819M1999.78 435.431V478.206M1925.7 478.206L1962.74 456.819M1925.7 478.206L1962.74 499.594M1962.74 456.819V499.594M1962.74 456.819L1999.78 478.206M1962.74 499.594L1999.78 478.206M962.707 178.78L925.663 157.393V200.168L962.707 178.78ZM925.663 499.594L962.707 478.206L925.663 456.819V499.594ZM962.698 136.008V178.783L999.741 157.395L962.698 136.008ZM1370.12 499.594L1407.17 478.206L1370.12 456.819V499.594ZM1555.46 136.016L1555.46 136.024L1555.31 307.098H1555.32L1555.24 392.64L1629.35 349.942H1629.36L1703.47 307.244H1703.48L1814.67 243.193L1555.5 93.2406L1555.46 136.016Z" stroke="url(#paint1_linear_254_1318)" stroke-width="0.444485" stroke-miterlimit="10"/>
</g>
<defs>
<linearGradient id="paint0_linear_254_1318" x1="1000" y1="-87.5" x2="1000" y2="538.5" gradientUnits="userSpaceOnUse">
<stop/>
<stop offset="0.651621" stop-color="#271734"/>
<stop offset="1" stop-color="#362742"/>
</linearGradient>
<linearGradient id="paint1_linear_254_1318" x1="1537.5" y1="109.5" x2="932.5" y2="334" gradientUnits="userSpaceOnUse">
<stop stop-color="white"/>
<stop offset="1" stop-color="white" stop-opacity="0"/>
</linearGradient>
<clipPath id="clip0_254_1318">
<rect width="2000" height="400" fill="white"/>
</clipPath>
</defs>
</svg>
