<svg width="32" height="32" viewBox="0 0 32 32" fill="none" xmlns="http://www.w3.org/2000/svg">
<path d="M0.000976562 3.23069e-05V31.6509C10.6676 31.6509 21.3343 31.6509 32.001 31.6509V0C21.3343 0.000442157 10.6676 0.000151395 0.000976562 3.23069e-05ZM9.48246 26.9619H4.74172V11.8398H9.48246V26.9619ZM7.11209 9.78836C5.57135 9.78836 4.38616 8.55749 4.38616 7.09218C4.38616 5.56825 5.63061 4.39599 7.11209 4.39599C8.65283 4.39599 9.83801 5.62686 9.83801 7.09218C9.89727 8.55749 8.65283 9.78836 7.11209 9.78836ZM27.2602 26.9619H22.5195V19.6353C22.5195 17.8769 22.4602 15.6496 20.0306 15.6496C17.5417 15.6496 17.1862 17.5838 17.1862 19.5181V26.9619H12.4454V11.8398H17.0084V13.8912H17.0676C17.7195 12.719 19.2602 11.4295 21.5713 11.4295C26.3713 11.4295 27.2602 14.536 27.2602 18.6389V26.9619Z" fill="white"/>
</svg>
