<svg width="565" height="53" viewBox="0 0 565 53" fill="none" xmlns="http://www.w3.org/2000/svg">
<rect x="0.908203" y="0.00012207" width="250.816" height="52.2534" fill="white"/>
<g clip-path="url(#clip0_203_55)">
<g clip-path="url(#clip1_203_55)">
<g clip-path="url(#clip2_203_55)">
<path d="M147.06 19.687V16.2812H130.873L126.477 19.687V24.3638L130.873 27.7696H144.98V32.5702H127.351V35.9725H143.975L148.371 32.5702V27.7696L143.975 24.3638H129.868V19.687H147.06Z" fill="black"/>
<path d="M62.3323 16.2812H59.2444L47.9185 35.9725H51.8348L60.7954 20.3986L69.7454 35.9725H73.6582L62.3323 16.2812Z" fill="black"/>
<path d="M95.9999 16.2812H74.106V19.687H83.3592V35.9725H86.7467V19.687H95.9999V16.2812Z" fill="black"/>
<path d="M175.704 16.2812H153.813V19.687H163.063V35.9725H166.454V19.687H175.704V16.2812Z" fill="black"/>
<path d="M39.2326 16.2812H21.7344V35.9725H39.2326L43.6283 32.5667V19.687L39.2326 16.2812ZM25.1255 19.687H40.2372V32.5702H25.1255V19.687Z" fill="black"/>
<path d="M215.748 26.1269L213.789 22.7211V22.7246L210.084 16.2812H206.167L211.832 26.1269L206.167 35.9725H210.084L213.789 29.5326L215.748 26.1269Z" fill="black"/>
<path d="M221.318 26.1269L223.278 22.7211V22.7246L226.986 16.2812H230.899L225.238 26.1269L230.899 35.9725H226.986L223.278 29.5326L221.318 26.1269Z" fill="black"/>
<path d="M107.773 16.2812H110.861L122.187 35.9725H118.271L109.31 20.3986L100.36 35.9725H96.4473L107.773 16.2812Z" fill="black"/>
<path d="M187.478 16.2812H190.566L201.892 35.9725H197.979L189.015 20.3986L180.068 35.9725H176.152L187.478 16.2812Z" fill="black"/>
</g>
</g>
</g>
<rect x="252.725" y="1.00012" width="310.414" height="50.2534" fill="black" stroke="white" stroke-width="2"/>
<path d="M273.183 36.068V34.388H277.959C279.143 34.388 280.175 34.196 281.055 33.812C281.951 33.428 282.703 32.908 283.311 32.252C283.919 31.58 284.375 30.812 284.679 29.948C284.983 29.084 285.135 28.164 285.135 27.188C285.135 26.18 284.975 25.244 284.655 24.38C284.351 23.516 283.895 22.756 283.287 22.1C282.679 21.444 281.927 20.94 281.031 20.588C280.151 20.236 279.127 20.06 277.959 20.06H273.183V18.38H277.767C279.335 18.38 280.695 18.62 281.847 19.1C282.999 19.58 283.959 20.236 284.727 21.068C285.495 21.884 286.063 22.804 286.431 23.828C286.799 24.852 286.983 25.892 286.983 26.948V27.404C286.983 28.444 286.799 29.476 286.431 30.5C286.063 31.524 285.503 32.46 284.751 33.308C283.999 34.14 283.039 34.812 281.871 35.324C280.719 35.82 279.351 36.068 277.767 36.068H273.183ZM271.839 36.068V18.38H273.663V36.068H271.839ZM302.918 36.38C301.398 36.38 300.078 36.108 298.958 35.564C297.838 35.02 296.91 34.3 296.174 33.404C295.438 32.508 294.886 31.532 294.518 30.476C294.15 29.42 293.966 28.388 293.966 27.38V26.948C293.966 25.876 294.15 24.812 294.518 23.756C294.902 22.684 295.47 21.716 296.222 20.852C296.974 19.988 297.91 19.3 299.03 18.788C300.15 18.26 301.446 17.996 302.918 17.996C304.406 17.996 305.702 18.26 306.806 18.788C307.926 19.3 308.862 19.988 309.614 20.852C310.366 21.716 310.926 22.684 311.294 23.756C311.678 24.812 311.87 25.876 311.87 26.948V27.404C311.87 28.412 311.686 29.444 311.318 30.5C310.966 31.54 310.414 32.508 309.662 33.404C308.926 34.3 307.998 35.02 306.878 35.564C305.758 36.108 304.438 36.38 302.918 36.38ZM302.918 34.7C304.038 34.7 305.038 34.5 305.918 34.1C306.798 33.684 307.542 33.124 308.15 32.42C308.758 31.7 309.222 30.892 309.542 29.996C309.862 29.1 310.022 28.164 310.022 27.188C310.022 26.164 309.862 25.204 309.542 24.308C309.222 23.412 308.75 22.62 308.126 21.932C307.518 21.228 306.774 20.676 305.894 20.276C305.014 19.876 304.022 19.676 302.918 19.676C301.83 19.676 300.846 19.876 299.966 20.276C299.086 20.676 298.334 21.228 297.71 21.932C297.102 22.62 296.63 23.412 296.294 24.308C295.974 25.204 295.814 26.164 295.814 27.188C295.814 28.164 295.974 29.1 296.294 29.996C296.614 30.892 297.078 31.7 297.686 32.42C298.294 33.124 299.038 33.684 299.918 34.1C300.814 34.5 301.814 34.7 302.918 34.7ZM327.834 36.38C326.266 36.38 324.922 36.108 323.802 35.564C322.698 35.004 321.794 34.276 321.09 33.38C320.402 32.484 319.898 31.516 319.578 30.476C319.258 29.42 319.098 28.396 319.098 27.404V26.948C319.098 25.876 319.258 24.812 319.578 23.756C319.914 22.684 320.426 21.716 321.114 20.852C321.818 19.988 322.714 19.3 323.802 18.788C324.89 18.26 326.178 17.996 327.666 17.996C329.17 17.996 330.466 18.26 331.554 18.788C332.658 19.316 333.538 20.06 334.194 21.02C334.85 21.964 335.25 23.084 335.394 24.38H333.546C333.418 23.34 333.082 22.476 332.538 21.788C331.994 21.084 331.298 20.556 330.45 20.204C329.618 19.852 328.69 19.676 327.666 19.676C326.562 19.676 325.586 19.876 324.738 20.276C323.906 20.66 323.21 21.204 322.65 21.908C322.09 22.596 321.666 23.396 321.378 24.308C321.09 25.204 320.946 26.164 320.946 27.188C320.946 28.164 321.082 29.1 321.354 29.996C321.642 30.892 322.074 31.7 322.65 32.42C323.226 33.124 323.946 33.684 324.81 34.1C325.674 34.5 326.682 34.7 327.834 34.7C329.434 34.7 330.778 34.3 331.866 33.5C332.954 32.684 333.626 31.516 333.882 29.996H335.73C335.554 31.196 335.138 32.284 334.482 33.26C333.826 34.22 332.938 34.98 331.818 35.54C330.714 36.1 329.386 36.38 327.834 36.38ZM350.561 36.38C348.961 36.38 347.633 36.076 346.577 35.468C345.521 34.86 344.729 34.012 344.201 32.924C343.673 31.82 343.409 30.556 343.409 29.132V18.452H345.233V29.348C345.233 30.42 345.425 31.356 345.809 32.156C346.209 32.956 346.801 33.58 347.585 34.028C348.385 34.476 349.377 34.7 350.561 34.7C351.729 34.7 352.705 34.484 353.489 34.052C354.273 33.604 354.865 32.98 355.265 32.18C355.665 31.364 355.865 30.42 355.865 29.348V18.452H357.689V29.132C357.689 30.556 357.425 31.82 356.897 32.924C356.369 34.012 355.577 34.86 354.521 35.468C353.481 36.076 352.161 36.38 350.561 36.38ZM367.143 35.972V18.452H369.519L375.039 30.572H375.471L380.967 18.452H383.391V35.972H381.567V20.492L381.711 20.516L376.383 32.276H373.983L368.631 20.516L368.823 20.492V35.972H367.143ZM393.189 35.972V18.452H395.013V35.972H393.189ZM394.581 35.972V34.316H403.341V35.972H394.581ZM394.581 27.884V26.252H402.525V27.884H394.581ZM394.581 20.108V18.452H403.077V20.108H394.581ZM411.97 35.972V18.452H415.018L424.618 34.316H425.386L424.906 34.7V18.452H426.658V35.972H423.586L413.986 20.108H413.218L413.698 19.724V35.972H411.97ZM439.855 35.972V19.652H441.679V35.972H439.855ZM434.383 20.108V18.452H447.151V20.108H434.383ZM451.666 35.972L458.122 18.452H461.386L468.058 35.972H466.186L459.97 19.604L460.954 20.108H458.434L459.466 19.604L453.49 35.972H451.666ZM455.122 30.404L455.722 28.748H463.858L464.482 30.404H455.122ZM478.049 35.972V19.652H479.873V35.972H478.049ZM472.577 20.108V18.452H485.345V20.108H472.577ZM493.119 35.972V18.452H494.943V35.972H493.119ZM512.454 36.38C510.934 36.38 509.614 36.108 508.494 35.564C507.374 35.02 506.446 34.3 505.71 33.404C504.974 32.508 504.422 31.532 504.054 30.476C503.686 29.42 503.502 28.388 503.502 27.38V26.948C503.502 25.876 503.686 24.812 504.054 23.756C504.438 22.684 505.006 21.716 505.758 20.852C506.51 19.988 507.446 19.3 508.566 18.788C509.686 18.26 510.982 17.996 512.454 17.996C513.942 17.996 515.238 18.26 516.342 18.788C517.462 19.3 518.398 19.988 519.15 20.852C519.902 21.716 520.462 22.684 520.83 23.756C521.214 24.812 521.406 25.876 521.406 26.948V27.404C521.406 28.412 521.222 29.444 520.854 30.5C520.502 31.54 519.95 32.508 519.198 33.404C518.462 34.3 517.534 35.02 516.414 35.564C515.294 36.108 513.974 36.38 512.454 36.38ZM512.454 34.7C513.574 34.7 514.574 34.5 515.454 34.1C516.334 33.684 517.078 33.124 517.686 32.42C518.294 31.7 518.758 30.892 519.078 29.996C519.398 29.1 519.558 28.164 519.558 27.188C519.558 26.164 519.398 25.204 519.078 24.308C518.758 23.412 518.286 22.62 517.662 21.932C517.054 21.228 516.31 20.676 515.43 20.276C514.55 19.876 513.558 19.676 512.454 19.676C511.366 19.676 510.382 19.876 509.502 20.276C508.622 20.676 507.87 21.228 507.246 21.932C506.638 22.62 506.166 23.412 505.83 24.308C505.51 25.204 505.35 26.164 505.35 27.188C505.35 28.164 505.51 29.1 505.83 29.996C506.15 30.892 506.614 31.7 507.222 32.42C507.83 33.124 508.574 33.684 509.454 34.1C510.35 34.5 511.35 34.7 512.454 34.7ZM529.906 35.972V18.452H532.954L542.554 34.316H543.322L542.842 34.7V18.452H544.594V35.972H541.522L531.922 20.108H531.154L531.634 19.724V35.972H529.906Z" fill="white"/>
<defs>
<clipPath id="clip0_203_55">
<rect width="209.165" height="19.6912" fill="white" transform="translate(21.7344 16.2812)"/>
</clipPath>
<clipPath id="clip1_203_55">
<rect width="209.215" height="19.6912" fill="white" transform="translate(21.7344 16.2812)"/>
</clipPath>
<clipPath id="clip2_203_55">
<rect width="209.165" height="19.6912" fill="white" transform="translate(21.7344 16.2812)"/>
</clipPath>
</defs>
</svg>
