<?xml version="1.0" encoding="UTF-8"?><svg id="Layer_2" xmlns="http://www.w3.org/2000/svg" viewBox="0 0 870.59 132.13"><defs><style>.cls-1{fill:#6b7682;}.cls-2{fill:#3980d3;}</style></defs><g id="Layer_1-2"><g><path class="cls-2" d="M0,130.78V51.1H35.74c6.83,0,12.75,.79,17.75,2.37,5,1.58,9.14,4.01,12.42,7.29s5.71,7.42,7.29,12.42c1.58,5,2.37,10.92,2.37,17.75s-.79,12.75-2.37,17.75c-1.58,5-4.01,9.14-7.29,12.42s-7.42,5.71-12.42,7.29c-5,1.58-10.92,2.37-17.75,2.37H0Zm31.7-16.58c4.37,0,8.05-.39,11.02-1.17,2.97-.78,5.36-2.08,7.18-3.9s3.11-4.21,3.9-7.18c.78-2.97,1.17-6.64,1.17-11.02s-.39-8.05-1.17-11.02c-.78-2.97-2.08-5.36-3.9-7.18s-4.21-3.11-7.18-3.9c-2.97-.78-6.64-1.17-11.02-1.17h-12.01v46.52h12.01Z"/><path class="cls-2" d="M151.23,101.49c0,5.47-.79,10.14-2.37,14s-3.84,7.03-6.77,9.49-6.48,4.27-10.66,5.42c-4.18,1.15-8.87,1.73-14.06,1.73s-9.94-.58-14.12-1.73c-4.18-1.15-7.73-2.96-10.66-5.42s-5.18-5.62-6.74-9.49c-1.56-3.87-2.34-8.53-2.34-14s.78-10.08,2.34-13.95c1.56-3.87,3.81-7.03,6.74-9.49s6.48-4.27,10.66-5.42c4.18-1.15,8.89-1.73,14.12-1.73s9.88,.58,14.06,1.73c4.18,1.15,7.73,2.96,10.66,5.42s5.19,5.62,6.77,9.49,2.37,8.52,2.37,13.95Zm-33.87,15.88c4.84,0,8.42-1.31,10.72-3.93,2.3-2.62,3.46-6.6,3.46-11.95s-1.15-9.28-3.46-11.89c-2.31-2.62-5.88-3.93-10.72-3.93s-8.42,1.31-10.72,3.93c-2.31,2.62-3.46,6.58-3.46,11.89s1.15,9.34,3.46,11.95c2.3,2.62,5.88,3.93,10.72,3.93Z"/><path class="cls-2" d="M187.68,130.78c-9.53,0-16.8-2.5-21.8-7.5-5-5-7.5-12.27-7.5-21.8,0-4.73,.63-8.91,1.9-12.54,1.27-3.63,3.14-6.69,5.62-9.17,2.48-2.48,5.55-4.36,9.2-5.62,3.65-1.27,7.84-1.9,12.57-1.9h22.79v14.59h-17.52c-5.16,0-8.89,1.15-11.19,3.46-2.31,2.31-3.46,6.04-3.46,11.19s1.15,8.89,3.46,11.19c2.3,2.31,6.04,3.46,11.19,3.46h18.28v14.65h-23.55Z"/><path class="cls-2" d="M245.04,130.78c-4.26,0-7.93-.48-11.02-1.44-3.09-.96-5.62-2.43-7.62-4.42s-3.47-4.53-4.42-7.62c-.96-3.09-1.44-6.76-1.44-11.02v-34.04h19.45v34.04c0,3.4,.75,5.85,2.26,7.35,1.5,1.5,3.96,2.26,7.35,2.26h11.78v-43.65h19.39v58.54h-35.74Z"/><path class="cls-2" d="M363.87,130.78v-34.8c0-3.12-.69-5.38-2.08-6.77-1.39-1.39-3.66-2.08-6.83-2.08h-6.74v43.65h-19.39v-43.65h-15.64v43.65h-19.39v-58.54h65.04c4.26,0,7.92,.48,10.99,1.44,3.07,.96,5.6,2.43,7.59,4.42s3.47,4.52,4.42,7.59c.96,3.07,1.44,6.73,1.44,10.99v34.1h-19.39Z"/><path class="cls-2" d="M502.39,130.78v-34.1c0-3.36-.75-5.79-2.26-7.29-1.5-1.5-3.96-2.26-7.35-2.26h-12.25v43.65h-19.39v-58.54h36.21c4.26,0,7.93,.48,11.02,1.44,3.08,.96,5.62,2.43,7.62,4.42s3.47,4.52,4.42,7.59c.96,3.07,1.44,6.73,1.44,10.99v34.1h-19.45Z"/><path class="cls-2" d="M556.12,130.78c-3.4,0-6.29-.33-8.67-.99-2.38-.66-4.32-1.74-5.8-3.22-1.49-1.48-2.56-3.41-3.22-5.79-.67-2.38-1-5.27-1-8.66v-25.45h-8.14v-14.41h8.14v-15.64h19.45v15.64h17.99v14.41h-17.99v24.44c0,1.95,.39,3.31,1.17,4.09,.78,.78,2.15,1.17,4.1,1.17h12.95v14.41h-18.98Z"/><path class="cls-2" d="M599.36,130.78c-6.06,0-10.69-1.61-13.92-4.83s-4.83-7.84-4.83-13.86,1.61-10.69,4.83-13.92,7.86-4.83,13.92-4.83h22.09v-.7c0-2.17-.46-3.71-1.38-4.62-.92-.91-2.47-1.37-4.66-1.37h-30.7v-14.41h31.7c4.26,0,7.93,.48,11.02,1.44,3.08,.96,5.62,2.43,7.62,4.42s3.47,4.52,4.42,7.59c.96,3.07,1.44,6.73,1.44,10.99v34.1h-41.54Zm22.32-23.26h-16.82c-1.45,0-2.57,.39-3.37,1.17-.8,.78-1.2,1.91-1.2,3.4s.4,2.56,1.2,3.34c.8,.78,1.92,1.17,3.37,1.17h16.82v-9.08Z"/><path class="cls-2" d="M675.18,130.78c-3.4,0-6.29-.33-8.67-.99-2.38-.66-4.32-1.74-5.8-3.22-1.49-1.48-2.56-3.41-3.22-5.79-.67-2.38-1-5.27-1-8.66v-25.45h-8.14v-14.41h8.14v-15.64h19.45v15.64h17.99v14.41h-17.99v24.44c0,1.95,.39,3.31,1.17,4.09,.78,.78,2.15,1.17,4.1,1.17h12.95v14.41h-18.98Z"/><path class="cls-2" d="M702.61,66.21v-15.12h19.39v15.12h-19.39Zm0,64.57v-58.54h19.39v58.54h-19.39Z"/><path class="cls-2" d="M799.81,101.49c0,5.47-.79,10.14-2.37,14s-3.84,7.03-6.77,9.49-6.48,4.27-10.66,5.42c-4.18,1.15-8.87,1.73-14.06,1.73s-9.94-.58-14.12-1.73c-4.18-1.15-7.73-2.96-10.66-5.42s-5.18-5.62-6.74-9.49c-1.56-3.87-2.34-8.53-2.34-14s.78-10.08,2.34-13.95c1.56-3.87,3.81-7.03,6.74-9.49s6.48-4.27,10.66-5.42c4.18-1.15,8.89-1.73,14.12-1.73s9.88,.58,14.06,1.73c4.18,1.15,7.73,2.96,10.66,5.42s5.19,5.62,6.77,9.49,2.37,8.52,2.37,13.95Zm-33.87,15.88c4.84,0,8.42-1.31,10.72-3.93,2.3-2.62,3.46-6.6,3.46-11.95s-1.15-9.28-3.46-11.89c-2.31-2.62-5.88-3.93-10.72-3.93s-8.42,1.31-10.72,3.93c-2.31,2.62-3.46,6.58-3.46,11.89s1.15,9.34,3.46,11.95c2.3,2.62,5.88,3.93,10.72,3.93Z"/><path class="cls-2" d="M851.14,130.78v-34.1c0-3.36-.75-5.79-2.26-7.29-1.5-1.5-3.96-2.26-7.35-2.26h-12.25v43.65h-19.39v-58.54h36.21c4.26,0,7.93,.48,11.02,1.44,3.08,.96,5.62,2.43,7.62,4.42s3.47,4.52,4.42,7.59c.96,3.07,1.44,6.73,1.44,10.99v34.1h-19.45Z"/><g><path class="cls-1" d="M26.18,3.84c-1.3-1.3-2.95-2.27-4.93-2.9-1.99-.63-4.34-.94-7.05-.94H0V31.65H14.19c2.71,0,5.06-.31,7.05-.94,1.99-.63,3.63-1.59,4.93-2.9,1.3-1.3,2.27-2.95,2.9-4.93,.63-1.99,.94-4.34,.94-7.05s-.31-5.06-.94-7.05-1.59-3.63-2.9-4.93Zm-4.82,16.36c-.31,1.18-.83,2.13-1.55,2.85s-1.67,1.24-2.85,1.55c-1.18,.31-2.64,.47-4.37,.47H7.82V6.58h4.77c1.74,0,3.2,.16,4.37,.47,1.18,.31,2.13,.83,2.85,1.55s1.24,1.67,1.55,2.85c.31,1.18,.47,2.64,.47,4.37s-.16,3.2-.47,4.37Z"/><path class="cls-1" d="M54.77,10.73c-.79-.79-1.8-1.38-3.02-1.76-1.23-.38-2.68-.57-4.37-.57h-12.59v5.72h12.19c.87,0,1.49,.18,1.85,.54,.36,.36,.55,.97,.55,1.83v.28h-8.77c-2.4,0-4.25,.64-5.53,1.92-1.28,1.28-1.92,3.12-1.92,5.53s.64,4.22,1.92,5.5c1.28,1.28,3.12,1.92,5.53,1.92h16.5v-13.54c0-1.69-.19-3.15-.57-4.36-.38-1.22-.97-2.22-1.76-3.01Zm-5.31,15.29h-6.68c-.57,0-1.02-.16-1.34-.47-.32-.31-.48-.75-.48-1.33s.16-1.04,.48-1.35c.32-.31,.76-.47,1.34-.47h6.68v3.61Z"/><path class="cls-1" d="M71.48,25.46c-.31-.31-.47-.85-.47-1.63V14.12h7.14v-5.72h-7.14V2.19h-7.73v6.21h-3.23v5.72h3.23v10.11c0,1.35,.13,2.49,.4,3.44,.26,.94,.69,1.71,1.28,2.3,.59,.59,1.36,1.01,2.3,1.28,.95,.26,2.09,.39,3.44,.39h7.54v-5.72h-5.14c-.78,0-1.32-.15-1.63-.46Z"/><path class="cls-1" d="M102.06,10.73c-.79-.79-1.8-1.38-3.02-1.76-1.23-.38-2.68-.57-4.37-.57h-12.59v5.72h12.19c.87,0,1.49,.18,1.85,.54,.36,.36,.55,.97,.55,1.83v.28h-8.77c-2.4,0-4.25,.64-5.53,1.92-1.28,1.28-1.92,3.12-1.92,5.53s.64,4.22,1.92,5.5c1.28,1.28,3.12,1.92,5.53,1.92h16.5v-13.54c0-1.69-.19-3.15-.57-4.36-.38-1.22-.97-2.22-1.76-3.01Zm-5.31,15.29h-6.68c-.57,0-1.02-.16-1.34-.47-.32-.31-.48-.75-.48-1.33s.16-1.04,.48-1.35c.32-.31,.76-.47,1.34-.47h6.68v3.61Z"/><path class="cls-1" d="M125.63,12.47h-5.91c-.96,0-1.7-.25-2.2-.75-.5-.5-.76-1.23-.76-2.19s.25-1.69,.76-2.19c.5-.5,1.24-.75,2.2-.75h14.19V0h-15.87c-3.2,0-5.57,.78-7.13,2.35s-2.34,3.95-2.34,7.14,.78,5.59,2.34,7.18c1.56,1.59,3.94,2.39,7.13,2.39h6.03c2,0,3,1,3,3s-1,3-3,3h-14.64v6.58h16.19c3.16,0,5.56-.81,7.19-2.42,1.63-1.61,2.44-4.01,2.44-7.18s-.81-5.56-2.44-7.16c-1.63-1.61-4.03-2.41-7.19-2.41Z"/><path class="cls-1" d="M149.27,25.46c-.31-.31-.47-.85-.47-1.63V14.12h7.14v-5.72h-7.14V2.19h-7.73v6.21h-3.23v5.72h3.23v10.11c0,1.35,.13,2.49,.4,3.44,.26,.94,.69,1.71,1.28,2.3,.59,.59,1.36,1.01,2.3,1.28,.95,.26,2.09,.39,3.44,.39h7.54v-5.72h-5.14c-.78,0-1.32-.15-1.63-.46Z"/><path class="cls-1" d="M179.84,10.73c-.79-.79-1.8-1.38-3.02-1.76-1.23-.38-2.68-.57-4.37-.57h-12.59v5.72h12.19c.87,0,1.49,.18,1.85,.54,.36,.36,.55,.97,.55,1.83v.28h-8.77c-2.4,0-4.25,.64-5.53,1.92-1.28,1.28-1.92,3.12-1.92,5.53s.64,4.22,1.92,5.5,3.12,1.92,5.53,1.92h16.5v-13.54c0-1.69-.19-3.15-.57-4.36-.38-1.22-.97-2.22-1.76-3.01Zm-5.31,15.29h-6.68c-.57,0-1.02-.16-1.34-.47-.32-.31-.48-.75-.48-1.33s.16-1.04,.48-1.35c.32-.31,.76-.47,1.34-.47h6.68v3.61Z"/><polygon class="cls-1" points="202.18 19.92 210.74 8.4 202.46 8.4 197.73 15.15 193.03 8.4 184.45 8.4 193.03 19.92 183.98 31.65 192.64 31.65 197.5 24.69 202.37 31.65 211.23 31.65 202.18 19.92"/></g><path class="cls-2" d="M446.89,83.91c-.93-1.52-2.02-2.9-3.25-4.13-2.48-2.48-5.55-4.35-9.2-5.63-3.64-1.27-7.82-1.9-12.54-1.9-4.72,0-8.89,.64-12.54,1.9-3.65,1.27-6.72,3.14-9.2,5.63-1.23,1.23-2.32,2.61-3.25,4.13-.94,1.54-1.74,3.21-2.37,5.04-1.27,3.63-1.9,7.81-1.9,12.54,0,9.53,2.5,16.8,7.5,21.8,5,5,12.27,7.5,21.8,7.5h25.43v-14.41h-22.56c-2.15,0-3.98-.2-5.48-.59-1.5-.39-2.73-.94-3.69-1.64-.96-.7-1.68-1.54-2.17-2.52-.48-.95-.77-1.98-.9-3.08h38.08c.35-2.2,.53-4.54,.53-7.05,0-4.73-.63-8.91-1.9-12.54-.64-1.83-1.43-3.51-2.37-5.04Zm-34.34,10.37c1.64-10.1,17.09-9.89,18.69,0h-18.69Z"/></g></g></svg>