<svg xmlns="http://www.w3.org/2000/svg" width="32" height="32" fill="none" xmlns:v="https://vecta.io/nano"><path fill-rule="evenodd" d="M32 0H0v31.65h32V0zM4 15.805C4 9.287 9.358 4 15.963 4S27.927 9.287 28 15.805c0 5.215-3.376 9.632-8.147 11.226-.587.073-.807-.29-.807-.579v-3.259c0-1.086-.367-1.811-.807-2.173 2.642-.29 5.431-1.231 5.431-5.794a4.65 4.65 0 0 0-1.248-3.187c.006-.023.014-.051.023-.085a4.44 4.44 0 0 0-.17-3.029s-1.028-.29-3.303 1.231c-.954-.217-1.982-.362-3.009-.362s-2.055.072-3.009.362c-2.275-1.521-3.303-1.231-3.303-1.231-.649 1.565-.236 2.78-.151 3.029a4.52 4.52 0 0 0-1.243 3.199c0 4.563 2.789 5.577 5.431 5.866-.294.29-.661.797-.734 1.593-.661.29-2.349.797-3.45-1.014 0 0-.661-1.159-1.835-1.231 0 0-1.174 0-.073.724 0 0 .807.362 1.321 1.738 0 0 .734 2.317 4.037 1.593v2.028c0 .29-.22.652-.807.579C7.45 25.437 4 21.02 4 15.805z" fill="#fff"/></svg>