<svg width="32" height="32" viewBox="0 0 32 32" fill="none" xmlns="http://www.w3.org/2000/svg">
<path fill-rule="evenodd" clip-rule="evenodd" d="M32 0H0V31.65H32V0ZM11.4868 23C15.0692 23 17.9734 20.0899 17.9734 16.5001C17.9734 12.9103 15.0694 10 11.4868 10C7.90423 10 5 12.911 5 16.5001C5 20.0893 7.90445 23 11.4868 23ZM21.846 22.6195C23.6373 22.6195 25.0894 19.8791 25.0894 16.5001H25.0892C25.0892 13.1202 23.637 10.3808 21.8458 10.3808C20.0545 10.3808 18.6026 13.1211 18.6026 16.5001C18.6026 19.8791 20.0547 22.6195 21.846 22.6195ZM26.8593 21.9821C27.4894 21.9821 28 19.5269 28 16.5001C28 13.4725 27.4891 11.0181 26.8593 11.0181C26.2294 11.0181 25.7188 13.4727 25.7188 16.5001C25.7188 19.5275 26.2292 21.9821 26.8593 21.9821Z" fill="white"/>
</svg>
