<svg class="icon-theme" width="41" height="40" viewBox="0 0 41 40" fill="none" xmlns="http://www.w3.org/2000/svg"><path d="M26.5777 22.4313C26.7269 22.0759 26.3005 21.7731 25.9428 21.9311C25.2279 22.2449 24.4555 22.4063 23.6748 22.405C20.614 22.405 18.1331 19.9739 18.1331 16.9745C18.132 15.9618 18.4197 14.9697 18.9625 14.1148C19.1702 13.7871 18.9208 13.3337 18.5405 13.4302C15.6084 14.1784 13.4435 16.7909 13.4435 19.8986C13.4435 23.5898 16.497 26.5819 20.2644 26.5819C23.1168 26.5819 25.5596 24.8668 26.5777 22.4313Z" fill="#303030"></path><path d="M22.667 13.4922C22.2794 13.2333 21.8171 13.6955 22.0753 14.0831L22.5361 14.7743C22.723 15.0545 22.8227 15.3838 22.8227 15.7207C22.8227 16.0576 22.723 16.3869 22.5361 16.6671L22.0753 17.3583C21.8171 17.7459 22.2801 18.2081 22.6677 17.9492L23.3582 17.4885C23.6384 17.3015 23.9677 17.2018 24.3046 17.2018C24.6414 17.2018 24.9707 17.3015 25.251 17.4885L25.9421 17.9492C26.3298 18.2081 26.792 17.7459 26.5331 17.3583L26.0723 16.6671C25.8854 16.3869 25.7857 16.0576 25.7857 15.7207C25.7857 15.3838 25.8854 15.0545 26.0723 14.7743L26.5331 14.0831C26.792 13.6955 26.3298 13.2333 25.9414 13.4922L25.251 13.9529C24.9707 14.1399 24.6414 14.2396 24.3046 14.2396C23.9677 14.2396 23.6384 14.1399 23.3582 13.9529L22.667 13.4922Z" fill="#303030"></path><circle cx="20.0263" cy="19.9999" r="19.6255" stroke="#303030" stroke-width="0.731384"></circle></svg>