<svg width="708" height="66" viewBox="0 0 708 66" fill="none" xmlns="http://www.w3.org/2000/svg">
<g clip-path="url(#clip0_1_1680)">
<g clip-path="url(#clip1_1_1680)">
<path d="M424.213 11.4153V0H369.422L354.543 11.4153V27.0906L369.422 38.5059H417.173V54.5965H357.502V66H413.773L428.652 54.5965V38.5059L413.773 27.0906H366.021V11.4153H424.213Z" fill="white"/>
<path d="M137.419 0H126.967L88.6299 66H101.886L132.217 13.8004L162.512 66H175.756L137.419 0Z" fill="white"/>
<path d="M251.38 0H177.271V11.4153H208.593V66H220.059V11.4153H251.38V0Z" fill="white"/>
<path d="M521.171 0H447.074V11.4153H478.383V66H489.862V11.4153H521.171V0Z" fill="white"/>
<path d="M59.2297 0H0V66H59.2297L74.1087 54.5847V11.4153L59.2297 0ZM11.4784 11.4153H62.6303V54.5965H11.4784V11.4153Z" fill="white"/>
<path d="M656.717 33L650.083 21.5847V21.5965L637.542 0H624.286L643.461 33L624.286 66H637.542L650.083 44.4153L656.717 33Z" fill="white"/>
<path d="M675.569 33L682.203 21.5847V21.5965L694.756 0H708L688.838 33L708 66H694.756L682.203 44.4153L675.569 33Z" fill="white"/>
<path d="M291.233 0H301.685L340.022 66H326.766L296.435 13.8004L266.14 66H252.896L291.233 0Z" fill="white"/>
<path d="M561.024 0H571.476L609.813 66H596.569L566.226 13.8004L535.943 66H522.687L561.024 0Z" fill="white"/>
</g>
</g>
<defs>
<clipPath id="clip0_1_1680">
<rect width="708" height="66" fill="white"/>
</clipPath>
<clipPath id="clip1_1_1680">
<rect width="708" height="66" fill="white"/>
</clipPath>
</defs>
</svg>
