<svg xmlns="http://www.w3.org/2000/svg" width="32" height="32" fill="none" xmlns:v="https://vecta.io/nano"><path d="M32.001 31.651h-32V0h32v31.651zm-19.712-7.786c7.544 0 11.672-6.188 11.672-11.545 0-.174 0-.348-.008-.522.8-.57 1.496-1.29 2.048-2.105-.736.324-1.528.538-2.36.641a4.09 4.09 0 0 0 1.808-2.247c-.792.467-1.672.799-2.608.981-.752-.791-1.816-1.282-2.992-1.282-2.264 0-4.104 1.82-4.104 4.059 0 .317.04.625.104.926A11.69 11.69 0 0 1 7.393 8.53c-.352.601-.552 1.298-.552 2.041 0 1.409.728 2.651 1.824 3.379-.672-.024-1.304-.206-1.856-.506v.055c0 1.962 1.416 3.608 3.288 3.98a4.04 4.04 0 0 1-1.08.142c-.264 0-.52-.024-.768-.071.52 1.614 2.04 2.785 3.832 2.817-1.408 1.092-3.176 1.741-5.096 1.741-.328 0-.656-.016-.976-.055 1.808 1.139 3.968 1.812 6.28 1.812z" fill="#fff"/></svg>