<svg width="41" height="40" viewBox="0 0 41 40" fill="none" xmlns="http://www.w3.org/2000/svg"><g clip-path="url(#clip0)"><path d="M20.0261 16.3423C19.0562 16.3423 18.126 16.7276 17.4402 17.4134C16.7544 18.0992 16.3691 19.0293 16.3691 19.9992C16.3691 20.9691 16.7544 21.8992 17.4402 22.585C18.126 23.2708 19.0562 23.6561 20.0261 23.6561C20.9959 23.6561 21.9261 23.2708 22.6119 22.585C23.2977 21.8992 23.683 20.9691 23.683 19.9992C23.683 19.0293 23.2977 18.0992 22.6119 17.4134C21.9261 16.7276 20.9959 16.3423 20.0261 16.3423Z" fill="white"></path><path fill-rule="evenodd" clip-rule="evenodd" d="M20.0262 11.9541C20.2202 11.9541 20.4062 12.0312 20.5433 12.1683C20.6805 12.3055 20.7576 12.4915 20.7576 12.6855V13.4169C20.7576 13.6108 20.6805 13.7969 20.5433 13.934C20.4062 14.0712 20.2202 14.1483 20.0262 14.1483C19.8322 14.1483 19.6462 14.0712 19.509 13.934C19.3718 13.7969 19.2948 13.6108 19.2948 13.4169V12.6855C19.2948 12.4915 19.3718 12.3055 19.509 12.1683C19.6462 12.0312 19.8322 11.9541 20.0262 11.9541ZM13.658 13.6312C13.7952 13.4941 13.9812 13.417 14.1751 13.417C14.369 13.417 14.555 13.4941 14.6922 13.6312L15.7893 14.7282C15.9225 14.8662 15.9962 15.0509 15.9946 15.2427C15.9929 15.4345 15.916 15.6179 15.7804 15.7535C15.6448 15.8891 15.4613 15.966 15.2696 15.9677C15.0778 15.9694 14.893 15.8956 14.7551 15.7624L13.658 14.6653C13.5209 14.5282 13.4439 14.3422 13.4439 14.1483C13.4439 13.9543 13.5209 13.7683 13.658 13.6312ZM26.3943 13.6312C26.5314 13.7683 26.6085 13.9543 26.6085 14.1483C26.6085 14.3422 26.5314 14.5282 26.3943 14.6653L25.2973 15.7624C25.2298 15.8323 25.1491 15.888 25.0599 15.9263C24.9706 15.9647 24.8747 15.9848 24.7775 15.9857C24.6804 15.9865 24.5841 15.968 24.4942 15.9312C24.4043 15.8945 24.3227 15.8402 24.254 15.7715C24.1853 15.7028 24.131 15.6211 24.0943 15.5313C24.0575 15.4414 24.039 15.3451 24.0398 15.248C24.0407 15.1508 24.0608 15.0549 24.0992 14.9656C24.1375 14.8764 24.1932 14.7957 24.2631 14.7282L25.3602 13.6312C25.4973 13.4941 25.6833 13.417 25.8772 13.417C26.0712 13.417 26.2572 13.4941 26.3943 13.6312ZM11.981 19.9993C11.981 19.8053 12.058 19.6193 12.1952 19.4822C12.3323 19.345 12.5184 19.2679 12.7123 19.2679H13.4437C13.6377 19.2679 13.8237 19.345 13.9609 19.4822C14.0981 19.6193 14.1751 19.8053 14.1751 19.9993C14.1751 20.1933 14.0981 20.3793 13.9609 20.5165C13.8237 20.6536 13.6377 20.7307 13.4437 20.7307H12.7123C12.5184 20.7307 12.3323 20.6536 12.1952 20.5165C12.058 20.3793 11.981 20.1933 11.981 19.9993ZM25.8772 19.9993C25.8772 19.8053 25.9543 19.6193 26.0915 19.4822C26.2286 19.345 26.4147 19.2679 26.6086 19.2679H27.34C27.534 19.2679 27.72 19.345 27.8572 19.4822C27.9943 19.6193 28.0714 19.8053 28.0714 19.9993C28.0714 20.1933 27.9943 20.3793 27.8572 20.5165C27.72 20.6536 27.534 20.7307 27.34 20.7307H26.6086C26.4147 20.7307 26.2286 20.6536 26.0915 20.5165C25.9543 20.3793 25.8772 20.1933 25.8772 19.9993ZM15.7893 24.2362C15.9264 24.3734 16.0034 24.5594 16.0034 24.7533C16.0034 24.9473 15.9264 25.1332 15.7893 25.2704L14.6922 26.3675C14.5543 26.5007 14.3695 26.5744 14.1777 26.5728C13.986 26.5711 13.8025 26.4942 13.6669 26.3586C13.5313 26.223 13.4544 26.0395 13.4527 25.8478C13.4511 25.656 13.5248 25.4712 13.658 25.3333L14.7551 24.2362C14.8922 24.0991 15.0782 24.0221 15.2722 24.0221C15.4661 24.0221 15.6521 24.0991 15.7893 24.2362ZM24.2631 24.2362C24.4002 24.0991 24.5862 24.0221 24.7802 24.0221C24.9741 24.0221 25.1601 24.0991 25.2973 24.2362L26.3943 25.3333C26.5276 25.4712 26.6013 25.656 26.5996 25.8478C26.5979 26.0395 26.521 26.223 26.3854 26.3586C26.2498 26.4942 26.0664 26.5711 25.8746 26.5728C25.6828 26.5744 25.4981 26.5007 25.3602 26.3675L24.2631 25.2704C24.126 25.1332 24.0489 24.9473 24.0489 24.7533C24.0489 24.5594 24.126 24.3734 24.2631 24.2362ZM20.0262 25.8504C20.2202 25.8504 20.4062 25.9274 20.5433 26.0646C20.6805 26.2018 20.7576 26.3878 20.7576 26.5818V27.3132C20.7576 27.5071 20.6805 27.6932 20.5433 27.8303C20.4062 27.9675 20.2202 28.0445 20.0262 28.0445C19.8322 28.0445 19.6462 27.9675 19.509 27.8303C19.3718 27.6932 19.2948 27.5071 19.2948 27.3132V26.5818C19.2948 26.3878 19.3718 26.2018 19.509 26.0646C19.6462 25.9274 19.8322 25.8504 20.0262 25.8504Z" fill="white"></path></g><circle cx="20.0263" cy="19.9999" r="19.6255" stroke="white" stroke-width="0.731384"></circle><defs><clipPath id="clip0"><rect width="17.5532" height="17.5532" fill="white" transform="translate(11.2495 11.2227)"></rect></clipPath></defs></svg>